<?xml version="1.0" encoding="UTF-8" standalone="no"?>
<!-- Created with Inkscape (http://www.inkscape.org/) -->

<svg
   xmlns:dc="http://purl.org/dc/elements/1.1/"
   xmlns:cc="http://creativecommons.org/ns#"
   xmlns:rdf="http://www.w3.org/1999/02/22-rdf-syntax-ns#"
   xmlns:svg="http://www.w3.org/2000/svg"
   xmlns="http://www.w3.org/2000/svg"
   xmlns:xlink="http://www.w3.org/1999/xlink"
   xmlns:sodipodi="http://sodipodi.sourceforge.net/DTD/sodipodi-0.dtd"
   xmlns:inkscape="http://www.inkscape.org/namespaces/inkscape"
   width="744.09448819"
   height="1052.3622047"
   id="svg2"
   version="1.1"
   inkscape:version="0.48.4 r9939"
   sodipodi:docname="logo_3.svg">
  <defs
     id="defs4">
    <linearGradient
       inkscape:collect="always"
       id="linearGradient3088">
      <stop
         style="stop-color:#917c6f;stop-opacity:1;"
         offset="0"
         id="stop3090" />
      <stop
         style="stop-color:#917c6f;stop-opacity:0;"
         offset="1"
         id="stop3092" />
    </linearGradient>
    <linearGradient
       inkscape:collect="always"
       id="linearGradient3037">
      <stop
         style="stop-color:#b46161;stop-opacity:1;"
         offset="0"
         id="stop3039" />
      <stop
         style="stop-color:#b46161;stop-opacity:0;"
         offset="1"
         id="stop3041" />
    </linearGradient>
    <linearGradient
       inkscape:collect="always"
       id="linearGradient3021">
      <stop
         style="stop-color:#b46161;stop-opacity:1;"
         offset="0"
         id="stop3023" />
      <stop
         style="stop-color:#b46161;stop-opacity:0;"
         offset="1"
         id="stop3025" />
    </linearGradient>
    <linearGradient
       inkscape:collect="always"
       xlink:href="#linearGradient3021"
       id="linearGradient3027"
       x1="505.13846"
       y1="493.76068"
       x2="324.18677"
       y2="393.76071"
       gradientUnits="userSpaceOnUse"
       gradientTransform="matrix(0.99903453,0.04393192,-0.04393192,0.99903453,133.06832,52.923263)" />
    <linearGradient
       inkscape:collect="always"
       xlink:href="#linearGradient3037"
       id="linearGradient3035"
       x1="476.07837"
       y1="335.37512"
       x2="609.61328"
       y2="226.8037"
       gradientUnits="userSpaceOnUse"
       gradientTransform="matrix(0.99903453,0.04393192,-0.04393192,0.99903453,132.9428,55.777648)" />
    <linearGradient
       inkscape:collect="always"
       xlink:href="#linearGradient3037"
       id="linearGradient3043"
       x1="19.685007"
       y1="466.02133"
       x2="231.02073"
       y2="511.73564"
       gradientUnits="userSpaceOnUse"
       gradientTransform="matrix(0.99903453,0.04393192,-0.04393192,0.99903453,132.9428,55.777648)" />
    <linearGradient
       inkscape:collect="always"
       xlink:href="#linearGradient3021"
       id="linearGradient3045"
       x1="74.285713"
       y1="343.79077"
       x2="-62.857143"
       y2="240.93362"
       gradientUnits="userSpaceOnUse"
       gradientTransform="matrix(0.99903453,0.04393192,-0.04393192,0.99903453,132.9428,55.777648)" />
    <linearGradient
       inkscape:collect="always"
       xlink:href="#linearGradient3088"
       id="linearGradient3094"
       x1="816.68726"
       y1="523.6806"
       x2="770.3905"
       y2="506.53775"
       gradientUnits="userSpaceOnUse" />
  </defs>
  <sodipodi:namedview
     id="base"
     pagecolor="#ffffff"
     bordercolor="#666666"
     borderopacity="1.0"
     inkscape:pageopacity="0.0"
     inkscape:pageshadow="2"
     inkscape:zoom="0.35"
     inkscape:cx="375"
     inkscape:cy="520"
     inkscape:document-units="px"
     inkscape:current-layer="layer1"
     showgrid="false"
     inkscape:window-width="1366"
     inkscape:window-height="744"
     inkscape:window-x="0"
     inkscape:window-y="24"
     inkscape:window-maximized="1" />
  <metadata
     id="metadata7">
    <rdf:RDF>
      <cc:Work
         rdf:about="">
        <dc:format>image/svg+xml</dc:format>
        <dc:type
           rdf:resource="http://purl.org/dc/dcmitype/StillImage" />
        <dc:title></dc:title>
      </cc:Work>
    </rdf:RDF>
  </metadata>
  <g
     inkscape:label="Layer 1"
     inkscape:groupmode="layer"
     id="layer1">
    <path
       style="fill:none;stroke:#000000;stroke-width:0.56947267px;stroke-linecap:butt;stroke-linejoin:miter;stroke-opacity:1"
       d="m 393.54604,563.15915 c 27.13854,-58.30968 109.7276,-106.03766 160.19624,-97.6089 93.14011,15.55532 198.49761,138.45743 240.88709,137.53216 36.57871,-0.79844 55.07195,-30.2495 49.71891,-47.82426 -11.95408,-39.24696 -56.41585,-17.69396 -56.41585,-17.69396"
       id="path2987"
       inkscape:connector-curvature="0"
       sodipodi:nodetypes="csssc" />
    <path
       style="fill:none;stroke:#000000;stroke-width:0.56947267px;stroke-linecap:butt;stroke-linejoin:miter;stroke-opacity:1"
       d="m 489.17482,480.3999 c 65.75214,-31.42745 83.53861,-63.92203 83.12859,-97.98799 -0.50525,-41.97636 -57.23207,-55.53114 -70.25001,-32.68675 -17.01253,29.85424 -5.67926,39.03416 3.28361,48.16695 5.97575,6.08902 31.97764,-2.33974 31.97764,-2.33974"
       id="path2989"
       inkscape:connector-curvature="0"
       sodipodi:nodetypes="csssc" />
    <path
       style="fill:none;stroke:#000000;stroke-width:0.56947267px;stroke-linecap:butt;stroke-linejoin:miter;stroke-opacity:1"
       d="m 549.50612,442.91549 c 14.31762,-8.16083 42.41121,-87.95088 70.92379,-78.66482 32.22323,10.49455 2.82342,-8.66082 80.04396,-26.77464 23.78217,-5.57865 -17.61506,3.37334 -35.17864,35.44325 -7.21489,13.1739 -16.03049,37.59038 -16.03049,37.59038 l -20.5525,15.7949 -90.87407,29.47699"
       id="path2991"
       inkscape:connector-curvature="0"
       sodipodi:nodetypes="csssccc" />
    <path
       style="fill:none;stroke:#000000;stroke-width:0.56947267px;stroke-linecap:butt;stroke-linejoin:miter;stroke-opacity:1"
       d="m 442.86999,523.5183 c 58.64602,1.52063 66.46588,56.18763 70.78912,94.92664 5.69508,51.03176 7.40089,-103.67955 29.16676,-37.04999 10.65504,32.61713 32.95343,15.31634 37.94135,8.13766 11.87582,-17.09184 16.34675,-66.75894 48.30737,-9.11644 37.37956,67.41581 33.42866,-2.08501 33.42866,-2.08501 l 14.21563,6.96439 31.6131,17.26009 43.95267,25.88412 -38.48505,-44.48301 C 631.93881,506.45292 496.72101,456.52253 437.9009,528.31697"
       id="path2995"
       inkscape:connector-curvature="0"
       sodipodi:nodetypes="csssscccccc" />
    <path
       sodipodi:nodetypes="cssssc"
       inkscape:connector-curvature="0"
       id="path2997"
       d="m 393.54604,563.15915 c 27.13854,-58.30968 109.7276,-106.03766 160.19624,-97.6089 93.14011,15.55532 198.49761,138.45743 240.88709,137.53216 36.57871,-0.79844 55.07194,-30.2495 49.71891,-47.82426 -4.98806,-16.37653 -0.98062,-58.94003 -43.16706,-63.02641 -19.75932,-1.91398 -16.10593,59.61817 -16.10593,59.61817"
       style="fill:none;stroke:#000000;stroke-width:0.56947267px;stroke-linecap:butt;stroke-linejoin:miter;stroke-opacity:1" />
    <path
       sodipodi:nodetypes="csssc"
       inkscape:connector-curvature="0"
       id="path2999"
       d="m 489.17482,480.3999 c 65.75214,-31.42745 83.53861,-63.92203 83.12859,-97.98799 -0.50525,-41.97636 -57.23207,-55.53114 -70.25001,-32.68675 -17.01253,29.85424 -5.67926,39.03416 3.28361,48.16695 5.97575,6.08902 31.97764,-2.33974 31.97764,-2.33974"
       style="fill:none;stroke:#000000;stroke-width:0.56947267px;stroke-linecap:butt;stroke-linejoin:miter;stroke-opacity:1" />
    <path
       sodipodi:nodetypes="csssccc"
       inkscape:connector-curvature="0"
       id="path3001"
       d="m 549.50612,442.91549 c 14.31762,-8.16083 42.41121,-87.95088 70.92379,-78.66482 32.22323,10.49455 2.82342,-8.66082 80.04396,-26.77464 23.78217,-5.57865 -17.61506,3.37334 -35.17864,35.44325 -7.21489,13.1739 -16.03049,37.59038 -16.03049,37.59038 l -20.5525,15.7949 -90.87407,29.47699"
       style="fill:url(#linearGradient3035);fill-opacity:1;stroke:#000000;stroke-width:0.56947267px;stroke-linecap:butt;stroke-linejoin:miter;stroke-opacity:1" />
    <path
       sodipodi:nodetypes="csssscccccc"
       inkscape:connector-curvature="0"
       id="path3003"
       d="m 442.99551,520.66392 c 58.64602,1.52063 66.46588,56.18763 70.78912,94.92664 5.69508,51.03175 7.40089,-103.67956 29.16676,-37.04999 10.65504,32.61713 32.95343,15.31633 37.94135,8.13766 11.87581,-17.09184 16.34675,-66.75894 48.30737,-9.11644 37.37956,67.41581 33.42866,-2.08501 33.42866,-2.08501 l 14.21563,6.96439 31.6131,17.26009 43.95267,25.88412 -38.48505,-44.48301 C 632.06433,503.59854 496.84653,453.66814 438.02642,525.46259"
       style="fill:url(#linearGradient3027);stroke:#000000;stroke-width:0.56947267px;stroke-linecap:butt;stroke-linejoin:miter;stroke-opacity:1" />
    <path
       sodipodi:nodetypes="csssc"
       inkscape:connector-curvature="0"
       id="path3005"
       d="M 392.22907,587.65392 C 365.4902,520.21925 270.89558,458.86852 209.25882,463.0725 95.507844,470.83099 -43.897317,596.39769 -94.851241,591.051 c -43.969149,-4.61375 -63.238189,-39.16149 -55.000379,-58.10726 18.3961,-42.3086 59.653511,5.31405 59.653511,5.31405"
       style="fill:none;stroke:#000000;stroke-width:0.66068292px;stroke-linecap:butt;stroke-linejoin:miter;stroke-opacity:1" />
    <path
       sodipodi:nodetypes="csssc"
       inkscape:connector-curvature="0"
       id="path3007"
       d="m 285.50169,486.12255 c -75.97989,-41.55647 -94.08756,-79.4076 -90.12163,-117.14682 4.88683,-46.50256 74.58259,-55.75374 87.93128,-29.09122 17.44476,34.84396 2.86082,43.86986 -8.86371,53.08508 -7.81702,6.144 -38.27113,-5.85419 -38.27113,-5.85419"
       style="fill:none;stroke:#000000;stroke-width:0.66068292px;stroke-linecap:butt;stroke-linejoin:miter;stroke-opacity:1" />
    <path
       sodipodi:nodetypes="csssccc"
       inkscape:connector-curvature="0"
       id="path3009"
       d="m 216.66728,438.40109 c -16.41042,-10.51011 -42.11007,-101.86503 -77.3933,-94.47241 -39.874986,8.35472 -2.51738,-9.89309 -93.665269,-37.85292 -28.071467,-8.61099 20.869405,5.53661 38.751947,42.89403 7.345915,15.34596 15.473617,43.32368 15.473617,43.32368 l 23.140805,19.61219 106.43217,41.95383"
       style="fill:none;stroke:#000000;stroke-width:0.66068292px;stroke-linecap:butt;stroke-linejoin:miter;stroke-opacity:1" />
    <path
       sodipodi:nodetypes="csssscccccc"
       inkscape:connector-curvature="0"
       id="path3011"
       d="m 336.87024,538.66277 c -70.78041,-4.29097 -85.76949,55.54068 -94.92425,98.06371 -12.05976,56.01653 1.65479,-115.7406 -31.34828,-44.06325 -16.15595,35.08817 -41.24579,13.62791 -46.5209,5.15798 C 151.51723,577.65499 151.1953,522.11579 106.83105,582.7869 54.944815,653.74484 66.786558,577.06733 66.786558,577.06733 L 48.957312,583.34232 9.127501,599.26256 -46.441434,623.48962 4.4386954,578.0781 C 110.9204,500.4657 278.84774,458.87209 342.36526,544.49122"
       style="fill:none;stroke:#000000;stroke-width:0.66068292px;stroke-linecap:butt;stroke-linejoin:miter;stroke-opacity:1" />
    <path
       style="fill:none;stroke:#000000;stroke-width:0.66068292px;stroke-linecap:butt;stroke-linejoin:miter;stroke-opacity:1"
       d="M 392.22907,587.65392 C 365.4902,520.21925 270.89558,458.86852 209.25882,463.0725 95.507844,470.83099 -43.897317,596.39769 -94.851241,591.051 c -43.969149,-4.61375 -63.238149,-39.16147 -55.000379,-58.10726 8.94558,-20.57365 29.96037,-56.85112 46.75733,-52.80043 37.483624,9.03941 21.46761,63.82877 21.46761,63.82877"
       id="path3013"
       inkscape:connector-curvature="0"
       sodipodi:nodetypes="cssssc" />
    <path
       style="fill:none;stroke:#000000;stroke-width:0.66068292px;stroke-linecap:butt;stroke-linejoin:miter;stroke-opacity:1"
       d="m 285.50169,486.12255 c -75.97989,-41.55647 -94.08756,-79.4076 -90.12163,-117.14682 4.88683,-46.50256 74.58259,-55.75374 87.93128,-29.09122 17.44476,34.84396 2.86082,43.86986 -8.86371,53.08508 -7.81702,6.144 -38.27113,-5.85419 -38.27113,-5.85419"
       id="path3015"
       inkscape:connector-curvature="0"
       sodipodi:nodetypes="csssc" />
    <path
       style="fill:url(#linearGradient3045);fill-opacity:1;stroke:#000000;stroke-width:0.66068292px;stroke-linecap:butt;stroke-linejoin:miter;stroke-opacity:1"
       d="m 216.66728,438.40109 c -16.41042,-10.51011 -42.11007,-101.86503 -77.3933,-94.47241 -39.874986,8.35472 -2.51738,-9.89309 -93.665269,-37.85292 -28.071467,-8.61099 20.869405,5.53661 38.751947,42.89403 7.345915,15.34596 15.473617,43.32368 15.473617,43.32368 l 23.140805,19.61219 106.43217,41.95383"
       id="path3017"
       inkscape:connector-curvature="0"
       sodipodi:nodetypes="csssccc" />
    <path
       style="fill:url(#linearGradient3043);stroke:#000000;stroke-width:0.66068292px;stroke-linecap:butt;stroke-linejoin:miter;stroke-opacity:1"
       d="m 336.87024,538.66277 c -70.78041,-4.29097 -85.76949,55.54068 -94.92425,98.06371 -12.05976,56.01653 1.65479,-115.7406 -31.34828,-44.06325 -16.15595,35.08817 -41.24579,13.62791 -46.5209,5.15798 C 151.51723,577.65499 151.1953,522.11579 106.83105,582.7869 54.944815,653.74484 66.786558,577.06733 66.786558,577.06733 L 48.957312,583.34232 9.127501,599.26256 -46.441434,623.48962 4.4386954,578.0781 C 110.9204,500.4657 278.84774,458.87209 342.36526,544.49122"
       id="path3019"
       inkscape:connector-curvature="0"
       sodipodi:nodetypes="csssscccccc" />
    <path
       style="opacity:0.71193417;fill:#b46161;fill-opacity:1;stroke:#d78b31;stroke-width:2.09623241;stroke-linecap:square;stroke-linejoin:round;stroke-miterlimit:4;stroke-opacity:0.80710659;stroke-dasharray:none;stroke-dashoffset:0"
       d=""
       id="path3074"
       inkscape:connector-curvature="0" />
    <path
       style="opacity:0.71193417;fill:#b46161;fill-opacity:1;stroke:#d78b31;stroke-width:2.09623241;stroke-linecap:square;stroke-linejoin:round;stroke-miterlimit:4;stroke-opacity:0.80710659;stroke-dasharray:none;stroke-dashoffset:0"
       d=""
       id="path3076"
       inkscape:connector-curvature="0" />
    <path
       style="opacity:0.71193417000000003;fill:#916f6f;fill-opacity:1;stroke:#d78b31;stroke-width:2.09623240999999982;stroke-linecap:square;stroke-linejoin:round;stroke-miterlimit:4;stroke-opacity:0.80710658999999996;stroke-dasharray:none;stroke-dashoffset:0"
       d=""
       id="path3078"
       inkscape:connector-curvature="0" />
    <path
       style="opacity:0.71193417;fill:#917c6f;fill-opacity:1;stroke:#d78b31;stroke-width:2.09623241;stroke-linecap:square;stroke-linejoin:round;stroke-miterlimit:4;stroke-opacity:0.80710659;stroke-dasharray:none;stroke-dashoffset:0"
       d="m 831.45391,534.73394 c -6.46827,-4.76546 -26.40981,-5.37354 -37.53302,-1.14451 l -7.73683,2.94154 1.74473,-14.73149 c 2.4115,-20.36138 8.36994,-28.91641 18.44412,-26.48177 13.08717,3.16279 22.80908,11.94272 27.85546,25.15648 5.78278,15.14198 4.86006,19.88442 -2.77446,14.25975 l 0,0 z"
       id="path3084"
       inkscape:connector-curvature="0" />
    <path
       style="opacity:0.71193417000000003;fill:url(#linearGradient3094);fill-opacity:1;stroke:#d78b31;stroke-width:2.09623240999999982;stroke-linecap:square;stroke-linejoin:round;stroke-miterlimit:4;stroke-opacity:0.80710658999999985;stroke-dasharray:none;stroke-dashoffset:0"
       d="m 790.97659,519.67104 c 0.99699,-7.27383 4.2007,-15.61313 7.11935,-18.53178 4.85096,-4.85096 6.01369,-4.94101 13.54066,-1.04865 4.52872,2.34189 10.39151,6.64196 13.02842,9.55572 4.87439,5.38614 11.83911,21.02125 10.12677,22.73359 -0.51674,0.51673 -5.78253,-0.54684 -11.70176,-2.36351 -7.88509,-2.42 -13.85851,-2.47658 -22.34419,-0.21162 l -11.58195,3.0914 1.8127,-13.22515 0,0 z"
       id="path3086"
       inkscape:connector-curvature="0" />
  </g>
</svg>
