<?xml version="1.0" encoding="UTF-8" standalone="no"?>
<!-- Created with Inkscape (http://www.inkscape.org/) -->

<svg
   xmlns:dc="http://purl.org/dc/elements/1.1/"
   xmlns:cc="http://creativecommons.org/ns#"
   xmlns:rdf="http://www.w3.org/1999/02/22-rdf-syntax-ns#"
   xmlns:svg="http://www.w3.org/2000/svg"
   xmlns="http://www.w3.org/2000/svg"
   xmlns:xlink="http://www.w3.org/1999/xlink"
   xmlns:sodipodi="http://sodipodi.sourceforge.net/DTD/sodipodi-0.dtd"
   xmlns:inkscape="http://www.inkscape.org/namespaces/inkscape"
   width="744.09448819"
   height="1052.3622047"
   id="svg2"
   version="1.1"
   inkscape:version="0.48.4 r9939"
   sodipodi:docname="face.svg">
  <defs
     id="defs4">
    <linearGradient
       inkscape:collect="always"
       id="linearGradient3112">
      <stop
         style="stop-color:#000000;stop-opacity:1;"
         offset="0"
         id="stop3114" />
      <stop
         style="stop-color:#000000;stop-opacity:0;"
         offset="1"
         id="stop3116" />
    </linearGradient>
    <inkscape:path-effect
       effect="spiro"
       id="path-effect3092"
       is_visible="true" />
    <inkscape:path-effect
       effect="spiro"
       id="path-effect3082"
       is_visible="true" />
    <inkscape:path-effect
       effect="spiro"
       id="path-effect3076"
       is_visible="true" />
    <inkscape:path-effect
       effect="spiro"
       id="path-effect3068"
       is_visible="true" />
    <inkscape:path-effect
       effect="spiro"
       id="path-effect3062"
       is_visible="true" />
    <inkscape:path-effect
       effect="spiro"
       id="path-effect3058"
       is_visible="true" />
    <inkscape:path-effect
       effect="spiro"
       id="path-effect3052"
       is_visible="true" />
    <inkscape:path-effect
       is_visible="true"
       id="path-effect3010"
       effect="spiro" />
    <inkscape:path-effect
       effect="spiro"
       id="path-effect2987"
       is_visible="true" />
    <radialGradient
       inkscape:collect="always"
       xlink:href="#linearGradient3112"
       id="radialGradient3118"
       cx="814.3299"
       cy="855.52191"
       fx="814.3299"
       fy="855.52191"
       r="153.66625"
       gradientTransform="matrix(1.3400004,-0.00708221,0.0046054,0.20026378,-280.97875,666.3356)"
       gradientUnits="userSpaceOnUse" />
    <radialGradient
       inkscape:collect="always"
       xlink:href="#linearGradient3112"
       id="radialGradient3120"
       gradientUnits="userSpaceOnUse"
       gradientTransform="matrix(1.3400004,-0.00708221,0.0046054,0.20026378,-280.97875,666.3356)"
       cx="814.3299"
       cy="855.52191"
       fx="814.3299"
       fy="855.52191"
       r="153.66625" />
    <radialGradient
       inkscape:collect="always"
       xlink:href="#linearGradient3112"
       id="radialGradient3122"
       gradientUnits="userSpaceOnUse"
       gradientTransform="matrix(1.3400004,-0.00708221,0.0046054,0.20026378,-280.97875,666.3356)"
       cx="814.3299"
       cy="855.52191"
       fx="814.3299"
       fy="855.52191"
       r="153.66625" />
    <radialGradient
       inkscape:collect="always"
       xlink:href="#linearGradient3112"
       id="radialGradient3124"
       gradientUnits="userSpaceOnUse"
       gradientTransform="matrix(1.3400004,-0.00708221,0.0046054,0.20026378,-280.97875,666.3356)"
       cx="814.3299"
       cy="855.52191"
       fx="814.3299"
       fy="855.52191"
       r="153.66625" />
  </defs>
  <sodipodi:namedview
     id="base"
     pagecolor="#ffffff"
     bordercolor="#666666"
     borderopacity="1.0"
     inkscape:pageopacity="0.0"
     inkscape:pageshadow="2"
     inkscape:zoom="0.24748737"
     inkscape:cx="1833.0379"
     inkscape:cy="816.63559"
     inkscape:document-units="px"
     inkscape:current-layer="layer1"
     showgrid="false"
     inkscape:window-width="1366"
     inkscape:window-height="744"
     inkscape:window-x="0"
     inkscape:window-y="24"
     inkscape:window-maximized="1" />
  <metadata
     id="metadata7">
    <rdf:RDF>
      <cc:Work
         rdf:about="">
        <dc:format>image/svg+xml</dc:format>
        <dc:type
           rdf:resource="http://purl.org/dc/dcmitype/StillImage" />
        <dc:title></dc:title>
      </cc:Work>
    </rdf:RDF>
  </metadata>
  <g
     inkscape:label="Layer 1"
     inkscape:groupmode="layer"
     id="layer1">
    <path
       style="opacity:0.71193417;fill:#6c5353;fill-opacity:1;stroke:#d78b31;stroke-width:0.73400003;stroke-linecap:square;stroke-linejoin:round;stroke-miterlimit:4;stroke-opacity:0.80710659;stroke-dasharray:none;stroke-dashoffset:0"
       d="m 1580.2353,-431.64359 -0.7192,7.62628 -18.546,3.95254 c -10.2002,2.17389 -18.2728,4.26506 -17.9391,4.64702 0.3338,0.38192 4.4752,2.29096 9.2034,4.24227 9.89,4.08173 10.2966,5.81776 1.8242,7.78916 -3.3176,0.77195 -7.0454,2.18623 -8.284,3.14279 -3.3791,2.60951 21.2946,8.62348 30.7274,7.48952 3.9369,-0.4733 10.3972,-1.24963 14.3564,-1.72528 6.2159,-0.74677 8.3627,-0.15472 15.7302,4.33811 15.1948,9.26607 15.4177,8.13654 -3.665,18.57381 -39.5883,21.65289 -96.2554,46.0772 -136.2532,58.7271 -22.9587,7.261 -62.1761,15.22156 -80.7269,16.38631 -19.4716,1.22262 -45.8172,-0.60157 -64.4399,-4.46187 -19.3621,-4.01357 -37.4208,-10.66771 -62.9585,-23.19859 -25.0292,-12.2813 -41.5531,-17.49385 -60.3564,-19.03963 -19.5199,-1.60472 -34.5571,-0.31153 -50.1933,4.3166 l -12.3509,3.65573 0.5461,-5.97693 c 0.9936,-10.87515 8.0572,-31.01738 15.4896,-44.16961 12.4903,-22.1026 34.6909,-41.64762 61.6947,-54.31465 13.4634,-6.31546 18.504,-7.85255 47.6439,-14.52867 37.6189,-8.61864 65.2414,-12.16437 114.2825,-14.66954 51.447,-2.62808 88.3835,-0.67057 128.9807,6.83555 22.9926,4.25116 51.4922,12.27556 68.0984,19.17394 l 8.574,3.56171 -0.7191,7.62633 0,0 z"
       id="path3012"
       inkscape:connector-curvature="0"
       inkscape:transform-center-x="-33.521782"
       inkscape:transform-center-y="-21.09025" />
    <path
       inkscape:connector-curvature="0"
       id="path3014"
       d="m 1775.8059,-448.48822 -6.5986,-7.49809 11.2552,-9.19655 c 6.1903,-5.05811 10.7405,-9.41542 10.1114,-9.68289 -0.629,-0.26749 -5.7705,-0.88161 -11.4255,-1.36472 -11.8288,-1.01054 -13.7914,-2.55072 -8.8058,-6.91045 1.9524,-1.70715 3.6312,-4.148 3.7309,-5.42407 0.272,-3.48113 -25.3137,-2.01819 -31.8634,1.82187 -2.7335,1.60269 -7.2195,4.23243 -9.9688,5.84386 -4.3165,2.53003 -6.6074,2.59158 -16.7862,0.45103 -20.9931,-4.41479 -20.1097,-3.27023 -14.5258,-18.82065 11.5842,-32.26044 34.3507,-72.16002 54.7409,-95.9366 11.7041,-13.64774 35.8786,-32.71499 49.7621,-39.2489 14.5727,-6.85825 37.5644,-12.81358 56.2366,-14.56643 19.4135,-1.82244 40.2602,-0.7406 72.6788,3.77173 31.7731,4.42247 50.0234,4.57514 66.6626,0.55773 17.2732,-4.17055 28.1986,-9.80046 36.4681,-18.79238 l 6.5321,-7.10264 5.1856,5.87128 c 9.4355,10.68297 22.6934,31.99553 29.0732,46.73606 10.7212,24.77171 11.1933,49.93691 1.3121,69.9328 -4.9267,9.9695 -7.55,12.91131 -24.7959,27.80628 -22.2669,19.22791 -41.2319,30.68921 -78.4749,47.41379 -39.0701,17.5451 -70.7397,26.46785 -110.5888,31.15795 -22.5688,2.65628 -53.1368,3.31595 -73.0407,1.57627 l -10.2766,-0.89822 -6.5986,-7.49806 0,0 z"
       style="opacity:0.71193417;fill:#6c5353;fill-opacity:1;stroke:#d78b31;stroke-width:0.73400003;stroke-linecap:square;stroke-linejoin:round;stroke-miterlimit:4;stroke-opacity:0.80710659;stroke-dasharray:none;stroke-dashoffset:0" />
    <path
       style="opacity:0.71193417;fill:#6c5353;fill-opacity:1;stroke:#d78b31;stroke-width:0.73400003;stroke-linecap:square;stroke-linejoin:round;stroke-miterlimit:4;stroke-opacity:0.80710659;stroke-dasharray:none;stroke-dashoffset:0"
       d="m 1652.7955,-479.89184 -13.7979,0.12017 -8.2277,-9.19845 c -4.5252,-5.05913 -8.7752,-9.03935 -9.4443,-8.84493 -0.6691,0.19444 -3.867,2.42668 -7.1065,4.96055 -6.776,5.30025 -9.8831,5.61822 -13.9409,1.42665 -1.5888,-1.64135 -4.3605,-3.45073 -6.1592,-4.02088 -4.9069,-1.55537 -14.2922,11.40159 -11.6882,16.13603 1.0869,1.97598 2.8699,5.21851 3.9623,7.20568 1.7151,3.11989 0.7744,4.25163 -6.8925,8.29261 -15.8128,8.3343 -13.7622,8.37579 -33.718,-0.68239 -41.3997,-18.79182 -77.7364,-42.90988 -113.9954,-65.68477 -19.5299,-12.26706 -41.4628,-23.83319 -55.6708,-38.15522 -13.4654,-13.57334 -28.1202,-28.55228 -26.7695,-44.00732 1.174,-13.43397 8.743,-23.02706 29.8315,-36.84022 20.6686,-13.53813 28.0692,-12.57057 39.3699,-20.26247 10.1744,-6.92526 19.6039,-14.18209 25.0119,-22.908 l 11.5603,-18.65282 c 0,0 27.169,10.21739 42.8745,11.8944 23.0118,2.45716 46.986,-5.47498 70.0716,-3.2379 25.9066,2.51047 47.2354,5.24755 71.6821,18.1999 12.1886,6.45775 26.3247,23.2733 33.599,36.23215 9.8623,17.56932 11.2992,36.35246 12.7422,54.72763 1.2014,15.29958 -1.6194,30.62144 -3.4265,45.90289 -2.4753,20.93216 1.3046,53.77774 -10.1539,62.68017 l -5.9162,4.59641 z"
       id="path3016"
       inkscape:connector-curvature="0"
       sodipodi:nodetypes="ccssscsscssaaasascaasaaascc" />
    <path
       sodipodi:nodetypes="ccssscsscssaaasascaasaaascc"
       inkscape:connector-curvature="0"
       id="path3022"
       d="m 1651.7737,-366.88885 11.4402,3.40597 -0.5928,9.99809 c -0.326,5.49893 -0.015,10.00058 0.6903,10.00367 0.7057,0.003 5.1203,-1.10204 9.8103,-2.45588 9.8104,-2.83188 12.6193,-2.3149 12.6028,2.31952 -0.01,1.8147 0.8251,4.07469 1.8479,5.02218 2.7902,2.58473 20.87,-6.16398 22.5157,-10.8953 0.687,-1.97461 1.8145,-5.21485 2.5058,-7.2005 1.0853,-3.11759 2.7639,-3.85101 12.2995,-5.37404 19.6668,-3.14114 18.0141,-3.6983 27.1759,9.16209 19.0069,26.67969 29.5911,56.64935 41.1857,85.44487 6.2451,15.50991 15.0266,31.02856 15.2526,46.95107 0.2143,15.09017 0.2822,31.69089 -13.1898,44.63004 -11.7103,11.24707 -25.6061,17.56676 -53.9926,24.07483 -27.8212,6.37849 -33.1319,3.66473 -48.5752,7.40128 -13.9041,3.3642 -27.461,7.20275 -38.8865,13.32673 l -24.4237,13.09087 c 0,0 -14.1652,-15.69124 -25.7363,-21.12697 -16.9542,-7.96444 -43.8955,-6.69667 -60.2001,-15.03874 -23.9894,-12.27389 -38.3867,-30.46483 -48.1262,-47.81419 -4.8558,-8.64999 14.1759,-35.65889 26.2526,-52.50545 13.7087,-19.1232 35.0586,-36.16485 51.9524,-54.44124 10.7838,-11.66638 20.018,-23.80398 31.5343,-35.24062 8.197,-8.14022 10.1352,-18.96183 26.6766,-23.69864 l 8.5404,-2.44565 z"
       style="opacity:0.71193417;fill:#6c5353;fill-opacity:1;stroke:#d78b31;stroke-width:0.73400003;stroke-linecap:square;stroke-linejoin:round;stroke-miterlimit:4;stroke-opacity:0.80710659;stroke-dasharray:none;stroke-dashoffset:0" />
    <path
       style="opacity:0.71193417;fill:#6c5353;fill-opacity:1;stroke:#d78b31;stroke-width:0.73400003;stroke-linecap:square;stroke-linejoin:round;stroke-miterlimit:4;stroke-opacity:0.80710659;stroke-dasharray:none;stroke-dashoffset:0"
       d="m 1757.6018,-381.42526 11.2056,-4.49348 15.818,5.38938 c 8.6998,2.96417 16.1105,5.07677 16.468,4.69472 0.3575,-0.3821 0.7821,-3.34229 0.9435,-6.57822 0.3375,-6.76881 2.5742,-8.0339 10.0353,-5.67618 2.9216,0.92327 6.9796,1.61654 9.0177,1.54068 5.56,-0.20697 0.493,-14.4703 -6.3102,-17.76292 -2.8394,-1.37423 -7.4984,-3.62944 -10.3533,-5.01164 -4.4824,-2.17005 -4.8258,-3.45435 -2.516,-9.41045 4.7638,-12.28413 3.04,-11.66799 28.345,-10.13122 52.497,3.18814 106.0881,12.62278 158.2916,20.91304 28.118,4.46532 57.5173,7.55617 83.2929,15.50294 24.4282,7.53138 51.2179,15.90785 65.3409,29.78984 12.2762,12.06663 15.5188,22.8242 11.8247,41.55538 -3.6204,18.3582 -10.6476,19.87005 -12.3415,30.15981 -1.525,9.26419 -2.112,18.58008 2.0494,27.89545 l 8.8956,19.91292 c 0,0 -31.1232,-3.60477 -46.9098,-3.7324 -14.0865,-0.11389 -28.3124,0.76766 -42.0068,2.65241 -22.3454,3.07537 -31.6279,17.47443 -64.4565,13.97659 -16.3676,-1.74396 -44.1444,-12.9979 -62.7716,-22.16996 -26.1866,-12.89432 -45.5083,-29.74362 -66.9225,-45.23805 -17.0809,-12.35897 -32.1896,-25.57125 -49.0482,-38.02902 -16.8949,-12.48468 -34.0533,-31.97279 -52.1885,-36.77692 l -16.9088,-4.47924 z"
       id="path3024"
       inkscape:connector-curvature="0"
       sodipodi:nodetypes="ccssscsscssaaasascaasaaascc" />
    <path
       sodipodi:open="true"
       transform="matrix(0.84845391,0,0,0.58946407,1445.5877,-613.98664)"
       sodipodi:end="10.957862"
       sodipodi:start="4.7478949"
       d="m 284.72484,272.39819 a 92.85714,57.142857 0 1 1 -6.79731,0.005"
       sodipodi:ry="57.142857"
       sodipodi:rx="92.85714"
       sodipodi:cy="329.50504"
       sodipodi:cx="281.42856"
       id="path3036"
       style="opacity:0.71193417;color:#000000;fill:#6c5353;fill-opacity:1;fill-rule:nonzero;stroke:#d78b31;stroke-width:1.03744411;stroke-linecap:square;stroke-linejoin:round;stroke-miterlimit:4;stroke-opacity:0.80710659;stroke-dasharray:none;stroke-dashoffset:0;marker:none;visibility:visible;display:inline;overflow:visible;enable-background:accumulate"
       sodipodi:type="arc" />
    <path
       inkscape:transform-center-y="-12.069733"
       inkscape:transform-center-x="-12.575187"
       inkscape:connector-curvature="0"
       id="path3038"
       d="m 954.84466,-82.679391 0.9151,3.02267 -6.5862,4.46693 c -3.6223,2.4568 -6.43114,4.54251 -6.24154,4.63489 0.1893,0.0924 2.09754,0.15933 4.24004,0.1488 4.4818,-0.0221 4.9116,0.57497 1.9288,2.67879 -1.168,0.82381 -2.3948,1.95804 -2.7262,2.52047 -0.9041,1.53422 9.6238,-0.11043 13.1109,-2.04831 1.4555,-0.80877 3.8437,-2.13582 5.3074,-2.94904 2.298,-1.27681 3.2248,-1.39369 6.7909,-0.85597 7.3548,1.10809 7.2645,0.64181 1.4854,7.66703 -11.989,14.57432 -30.17894,32.93102 -43.73704,44.13784 -7.7824,6.43272 -21.7718,15.7269402 -28.7966,19.13169019 -7.3733,3.57378001 -17.8946,7.08288001 -25.7344,8.58305001 -8.1508,1.5597398 -16.2092,1.9046698 -28.0935,1.2024 -11.6477,-0.68828 -18.8839,-0.0386 -26.4312,2.3728298 -7.8349,2.50343 -13.4748,5.39646 -18.8245,9.65661 l -4.2257,3.36502 -0.7241,-2.36611 c -1.3175,-4.30521 -1.728,-13.1127098 -0.9007,-19.3137798 1.3908,-10.42101 6.9545,-21.4166002 15.4615,-30.5561602 4.2416,-4.55676 5.959,-5.9473 16.2345,-13.14348 13.2653,-9.29007 23.4416,-15.05048 42.1021,-23.83245 19.5759,-9.2128 34.2327,-14.3613 51.1808,-17.97838 9.5987,-2.04859 21.9281,-3.53735 29.46014,-3.55725 l 3.8891,-0.0103 0.9151,3.02263 0,0 z"
       style="opacity:0.71193417;fill:#6c5353;fill-opacity:1;stroke:#d78b31;stroke-width:0.73400009;stroke-linecap:square;stroke-linejoin:round;stroke-miterlimit:4;stroke-opacity:0.80710659;stroke-dasharray:none;stroke-dashoffset:0" />
    <path
       style="opacity:0.71193417;fill:#6c5353;fill-opacity:1;stroke:#d78b31;stroke-width:0.73400009;stroke-linecap:square;stroke-linejoin:round;stroke-miterlimit:4;stroke-opacity:0.80710659;stroke-dasharray:none;stroke-dashoffset:0"
       d="m 1028.1873,-120.3144 -3.7381,-1.80589 2.9322,-5.30287 c 1.6128,-2.91662 2.698,-5.30418 2.4119,-5.30581 -0.2864,-0.002 -2.3802,0.58454 -4.6528,1.30311 -4.7539,1.50253 -5.7576,1.22848 -4.5035,-1.22959 0.491,-0.96247 0.761,-2.16111 0.5999,-2.6636 -0.4396,-1.37073 -10.1507,3.27045 -12.0939,5.77994 -0.8109,1.04737 -2.1418,2.76601 -2.9576,3.81925 -1.2809,1.65359 -2.1612,2.04269 -6.45094,2.85096 -8.8476,1.66708 -8.325,1.96252 -8.5915,-4.85796 -0.5523,-14.14962 2.043,-32.99656 6.2407,-45.31669 2.4093,-7.07172 8.81494,-18.20014 13.18534,-22.90727 4.5874,-4.94076 12.587,-10.88084 19.5669,-14.52922 7.2569,-3.79324 15.5254,-6.70776 28.8271,-10.1611 13.0369,-3.38459 20.1512,-6.23903 25.9864,-10.4264 6.0575,-4.34692 9.4203,-8.23724 11.2248,-12.98564 l 1.4252,-3.75069 2.9342,1.41111 c 5.3392,2.56748 13.8282,8.57799 18.6157,13.18032 8.0453,7.7343 12.1704,17.25434 11.4635,26.45568 -0.3525,4.5876 -0.9109,6.12797 -5.2781,14.55975 -5.6391,10.8852 -11.2121,18.28212 -23.0617,30.60294 -12.4309,12.92529 -23.3373,21.38188 -38.0844,29.52989 -8.3521,4.61474 -20.1248,9.74482 -28.1301,12.25803 l -4.1332,1.29762 -3.738,-1.80587 0,0 z"
       id="path3040"
       inkscape:connector-curvature="0" />
    <path
       sodipodi:nodetypes="ccssscsscssaaasascaasaaascc"
       inkscape:connector-curvature="0"
       id="path3042"
       d="m 975.47756,-112.65651 -5.3416,2.24784 -4.6374,-2.19419 c -2.5505,-1.20684 -4.8251,-2.04618 -5.0546,-1.86529 -0.2294,0.18097 -1.1222,1.54245 -1.9839,3.0256 -1.8024,3.10238 -2.9596,3.7195 -5.1927,2.76886 -0.8743,-0.37227 -2.2345,-0.61982 -3.0227,-0.55013 -2.15,0.19003 -3.7668,6.62836 -2.0137,8.01801 0.7319,0.57993 1.9326,1.531709 2.6681,2.115119 1.155,0.91585 0.9669,1.49749 -1.3788,4.26194 -4.838,5.70147 -4.0349,5.39004 -13.20664,5.12103 -19.0277,-0.55802 -36.9224,-3.95497 -54.5767,-6.85215 -9.509,-1.56046 -19.8417,-2.47018 -27.605,-5.663599 -7.3575,-3.02645 -15.3971,-6.39902 -17.2932,-12.50751 -1.648,-5.30968 -0.2099,-10.17548 5.8195,-18.80801 5.9093,-8.46062 8.9361,-9.27282 12.1218,-14.00926 2.8681,-4.26437 5.395,-8.53631 6.1291,-12.72653 l 1.5698,-8.95724 c 0,0 12.1557,-0.44018 18.5202,-2.30729 9.3251,-2.73565 17.3969,-9.58633 26.7163,-12.41769 10.4581,-3.17735 19.1733,-5.53773 30.6998,-4.50062 5.74684,0.51706 13.87284,4.67274 18.72864,8.45293 6.5836,5.12514 10.0838,12.05775 13.5227,18.83383 2.8631,5.64192 4.167,11.93429 5.8585,18.04945 2.3171,8.37637 8.9303,20.297 5.8729,25.52024 l -1.5785,2.69676 z"
       style="opacity:0.71193417;fill:#6c5353;fill-opacity:1;stroke:#d78b31;stroke-width:0.73400009;stroke-linecap:square;stroke-linejoin:round;stroke-miterlimit:4;stroke-opacity:0.80710659;stroke-dasharray:none;stroke-dashoffset:0" />
    <path
       style="opacity:0.71193417;fill:#6c5353;fill-opacity:1;stroke:#d78b31;stroke-width:0.73400009;stroke-linecap:square;stroke-linejoin:round;stroke-miterlimit:4;stroke-opacity:0.80710659;stroke-dasharray:none;stroke-dashoffset:0"
       d="m 992.78066,-69.405891 4.9782,-0.52713 1.3357,3.9068 c 0.7346,2.1488 1.55724,3.817 1.83514,3.70421 0.2744,-0.1117 1.8166,-1.23734 3.4267,-2.50207 3.3679,-2.6455 4.5401,-2.89665 5.2596,-1.12693 0.2842,0.69195 0.9588,1.42198 1.5046,1.62 1.4888,0.54025 7.1426,-5.68103 7.0409,-7.74772 -0.042,-0.86264 -0.1118,-2.27797 -0.1542,-3.14544 -0.067,-1.36192 0.4705,-1.90949 3.9367,-4.01207 7.1486,-4.33641 6.4192,-4.28507 11.9931,-0.84369 11.5633,7.13944 20.3696,16.87756 29.3844,26.00676 4.8556,4.91717 10.6981,9.43287 13.2799,15.46798 2.4468,5.71961 5.0735,12.03853 1.8662,19.12226 -2.7879,6.15739 -7.1967,10.7847902 -17.2057,17.7966502 -9.8098,6.87228 -12.2981,6.68504 -17.7126,10.57446 -4.8749,3.5017898 -9.5408,7.1290198 -13.0204,11.2875598 l -7.4384,8.88941 c 0,0 -7.9611,-3.72228 -13.3079,-3.94817 -7.8343,-0.33107 -18.10284,4.45203 -25.74384,3.87341 -11.2426,-0.85144 -19.6855,-5.48982 -26.1867,-10.55064 -3.2414,-2.52328 -0.078,-15.8589998 1.9752,-24.2099198 2.3306,-9.4794302 7.956,-19.3847002 11.6566,-29.0495702 2.3623,-6.16939 4.0488,-12.27117 6.7316,-18.46987 1.9096,-4.41202 0.9676,-8.84761 6.6521,-13.29368 l 2.9351,-2.29552 z"
       id="path3044"
       inkscape:connector-curvature="0"
       sodipodi:nodetypes="ccssscsscssaaasascaasaaascc" />
    <path
       sodipodi:nodetypes="ccssscsscssaaasascaasaaascc"
       inkscape:connector-curvature="0"
       id="path3046"
       d="m 1031.619,-91.838281 3.6496,-3.50168 6.9896,-0.46956 c 3.8443,-0.25822 7.0543,-0.63543 7.1333,-0.83817 0.079,-0.20282 -0.2196,-1.39925 -0.6638,-2.65884 -0.929,-2.634799 -0.2583,-3.474119 3.0098,-3.765909 1.2797,-0.11427 2.9648,-0.49754 3.7447,-0.85173 2.1278,-0.96626 -2.0749,-5.59616 -5.2338,-5.76584 -1.3184,-0.0705 -3.4816,-0.18713 -4.8072,-0.25905 -2.0814,-0.11206 -2.416,-0.54696 -2.4516,-3.18661 -0.073,-5.44415 -0.6464,-4.93416 9.4255,-8.38676 20.8949,-7.16264 43.1933,-12.11815 64.7733,-17.28857 11.6235,-2.78491 23.5296,-6.2984 34.7884,-7.38201 10.6702,-1.02697 22.3902,-2.10853 30.0516,0.93062 6.6594,2.64173 9.6042,6.22604 11.103,13.95771 1.4688,7.57774 -1.0245,9.27571 -0.071,13.46946 0.8586,3.77581 2.0897,7.42159 5.1656,10.30935 l 6.5749,6.17304 c 0,0 -12.6562,3.592639 -18.8095,6.063459 -5.4906,2.20466 -10.8793,4.81123 -15.9045,7.71544 -8.1997,4.73887 -9.5507,11.71064 -22.8528,15.61622 -6.6321,1.94721 -19.1864,2.08918 -27.8599,1.56475 -12.1934,-0.73723 -22.3391,-4.0782 -33.0858,-6.5685 -8.5718,-1.98642 -16.5112,-4.61291 -25.0122,-6.67245 -8.5193,-2.06403 -18.238,-6.75634 -26.0361,-5.69384 l -7.2709,0.9907 z"
       style="opacity:0.71193417;fill:#6c5353;fill-opacity:1;stroke:#d78b31;stroke-width:0.73400009;stroke-linecap:square;stroke-linejoin:round;stroke-miterlimit:4;stroke-opacity:0.80710659;stroke-dasharray:none;stroke-dashoffset:0" />
    <path
       sodipodi:type="arc"
       style="opacity:0.71193417;color:#000000;fill:#6c5353;fill-opacity:1;fill-rule:nonzero;stroke:#d78b31;stroke-width:2.49328852;stroke-linecap:square;stroke-linejoin:round;stroke-miterlimit:4;stroke-opacity:0.80710659;stroke-dasharray:none;stroke-dashoffset:0;marker:none;visibility:visible;display:inline;overflow:visible;enable-background:accumulate"
       id="path3048"
       sodipodi:cx="281.42856"
       sodipodi:cy="329.50504"
       sodipodi:rx="92.85714"
       sodipodi:ry="57.142857"
       d="m 284.72484,272.39819 a 92.85714,57.142857 0 1 1 -6.79731,0.005"
       sodipodi:start="4.7478949"
       sodipodi:end="10.957862"
       transform="matrix(0.32963205,-0.1354096,0.0923293,0.22476024,873.97182,-130.71684)"
       sodipodi:open="true" />
    <path
       style="opacity:0.71193417;fill:#6c5353;fill-opacity:1;stroke:#d78b31;stroke-width:0.73400003;stroke-linecap:square;stroke-linejoin:round;stroke-miterlimit:4;stroke-opacity:0.80710659;stroke-dasharray:none;stroke-dashoffset:0"
       d="m 1349.279,899.97658 c -0.5135,-1.8959 -1.7999,-11.2125 -2.8583,-20.7035 -3.067,-27.5022 -13.9099,-92.3993 -24.8565,-148.76974 -45.112,-232.3105 -146.0806,-511.12985 -274.0202,-756.692541 -10.6471,-20.43557 -18.9645,-37.8518 -18.4833,-38.70275 1.4076,-2.48831 75.2467,108.82375 99.8775,150.56437 83.1049,140.834831 154.0037,305.386591 195.1318,452.889121 33.4921,120.1169 42.5028,215.58044 31.2956,331.55854 -3.0732,31.8028 -4.1406,37.0391 -6.0866,29.8565 l 0,0 z"
       id="path3054"
       inkscape:connector-curvature="0" />
    <path
       style="opacity:0.71193417;fill:#6c5353;fill-opacity:1;stroke:#d78b31;stroke-width:0.73400003;stroke-linecap:square;stroke-linejoin:round;stroke-miterlimit:4;stroke-opacity:0.80710659;stroke-dasharray:none;stroke-dashoffset:0"
       d="m 1439.6226,1300.548 c -89.3486,-13.2535 -189.1075,-91.5843 -253.1002,-198.7342 -49.166,-82.3239 -74.8761,-172.64172 -78.4833,-275.70532 -2.7401,-78.29074 8.0416,-147.23274 35.2034,-225.10234 47.8708,-137.2406 114.8948,-232.03452 273.9603,-387.47018 151.4742,-148.017641 207.3434,-222.9406808 249.5786,-334.69586 25.1403,-66.5219 54.9994,-175.27479 61.942,-225.60524 1.0919,-7.91602 3.0013,-14.39277 4.2431,-14.39277 3.6918,0 6.529,63.19805 4.367,97.27481 -4.1777,65.84997 -17.9646,123.81914 -43.2608,181.897559 -32.7082,75.0959802 -45.0541,91.8568302 -158.4399,215.099271 -168.4693,183.11443 -231.5853,262.54867 -285.9695,359.90501 -80.3473,143.8343 -110.692,285.59794 -89.486,418.05834 20.5441,128.32542 98.1842,240.57952 218.454,315.84672 38.6756,24.204 64.2237,33.648 96.3745,35.6253 49.3088,3.0325 81.2859,-13.8788 114.0703,-60.3265 31.8763,-45.1612 106.2246,-195.993 135.9987,-275.90342 26.0023,-69.7869 37.4527,-111.5625 79.1766,-288.86694 59.4555,-252.65428 95.327,-464.86326 96.1634,-462.2128 1.0588,3.35527 -56.7911,378.707 -77.8216,487.0615 -57.7899,297.74984 -118.52,462.21126 -208.0148,563.31926 -52.2573,59.0383 -111.3797,84.3585 -174.9558,74.9278 z"
       id="path3064"
       inkscape:connector-curvature="0"
       sodipodi:nodetypes="csssssssssssssssssssscc" />
    <path
       style="opacity:0.71193417;fill:#6c5353;fill-opacity:1;stroke:#d78b31;stroke-width:0.73400003;stroke-linecap:square;stroke-linejoin:round;stroke-miterlimit:4;stroke-opacity:0.80710659;stroke-dasharray:none;stroke-dashoffset:0"
       d="m 2444.8159,685.91562 c 2.8907,-1.23044 6.3781,-1.16276 7.7496,0.15028 1.3716,1.31314 -0.9935,2.31989 -5.2559,2.23718 -4.7102,-0.0913 -5.6882,-1.02767 -2.4937,-2.38746 z"
       id="path3070"
       inkscape:connector-curvature="0" />
    <path
       style="opacity:0.71193417000000003;fill:#241c1c;fill-opacity:1;stroke:#d78b31;stroke-width:0.73400008999999999;stroke-linecap:square;stroke-linejoin:round;stroke-miterlimit:4;stroke-opacity:0.80710658999999996;stroke-dasharray:none;stroke-dashoffset:0"
       d="m 1748.4728,309.33077 c -36.1618,-5.29689 -64.7159,-17.36775 -104.5676,-44.20434 -39.8528,-26.83736 -48.3102,-32.28545 -48.9548,-31.53564 -1.9719,2.29366 5.0415,30.46832 11.0585,44.42502 2.253,5.22595 3.8659,9.7697 3.5844,10.0972 -1.0516,1.22319 -15.5077,-18.54626 -19.9013,-27.21603 -14.2018,-28.02364 -11.823,-51.70561 5.1935,-51.70326 7.0989,0 11.6055,2.96004 26.3977,17.33271 32.1645,31.25227 68.6639,51.93116 108.0771,61.23164 25.8482,6.09947 52.7656,7.87713 75.2803,4.97163 49.1932,-6.3484 94.222,-27.97763 132.1602,-63.48201 4.5839,-4.28987 23.877,-25.56628 42.8735,-47.2809 36.2884,-41.4808 45.2955,-50.01797 62.8884,-59.60765 31.1312,-16.96927 53.9661,-16.43988 71.1509,1.6495 2.8897,3.04177 4.264,5.16777 3.0541,4.72447 -16.6299,-6.09321 -46.3873,-3.78173 -63.5517,4.93653 l -5.6864,2.8883 10.5321,2.52691 c 5.7928,1.38982 14.3653,4.67085 19.0502,7.29119 8.7989,4.92144 19.2932,13.12103 18.2886,14.28962 -0.3141,0.36544 -5.0208,-0.38432 -10.4591,-1.66612 -12.9462,-3.05129 -33.8847,-2.06583 -45.405,2.13693 -4.3962,1.60381 -8.2614,3.42073 -8.5891,4.03759 -0.3277,0.61684 2.7334,2.19203 6.8026,3.50046 8.3165,2.67412 15.7591,7.29554 19.3062,11.98796 2.3794,3.1477 2.3794,3.14806 0,2.06566 -15.4377,-7.01829 -30.8915,-6.14986 -51.5551,2.89716 -18.2967,8.01059 -27.6115,15.74271 -51.403,42.6687 -20.1655,22.82239 -25.6069,28.14858 -39.3227,38.49026 -26.8838,20.27036 -58.5088,33.64867 -95.8459,40.54564 -14.0306,2.59172 -57.9136,3.83799 -70.4554,2.00087 z"
       id="path3072"
       inkscape:connector-curvature="0" />
    <path
       style="opacity:0.71193417;fill:#6c5353;fill-opacity:1;stroke:#d78b31;stroke-width:0.73400003;stroke-linecap:square;stroke-linejoin:round;stroke-miterlimit:4;stroke-opacity:0.80710659;stroke-dasharray:none;stroke-dashoffset:0"
       d="m 1513.0655,862.31718 c 0.4938,-2.7213 20.5447,-25.7742 38.7075,-44.5029 36.9918,-38.1443 39.8591,-52.7207 22.4201,-113.97354 -10.8027,-37.9434 -14.0735,-53.5842 -18.1431,-86.7581 -7.4502,-60.7331 -8.7079,-132.4849 -3.4797,-198.5236 2.5853,-32.65422 9.3094,-85.77601 13.916,-109.93894 l 2.9431,-15.43718 -2.1704,23.65395 c -11.6291,126.73957 -5.3401,271.09597 16.0274,367.89267 10.8326,49.0726 12.3655,58.2292 12.1746,72.72174 -0.4586,34.7931 -13.7687,53.5087 -68.9823,96.9968 -11.0396,8.695 -13.8637,10.3519 -13.4132,7.8691 z"
       id="path3078"
       inkscape:connector-curvature="0" />
    <path
       style="opacity:0.71193417;fill:#6c5353;fill-opacity:1;stroke:#d78b31;stroke-width:0.73399997;stroke-linecap:square;stroke-linejoin:round;stroke-miterlimit:4;stroke-opacity:0.80710659;stroke-dasharray:none;stroke-dashoffset:0"
       d="m 1368.0974,999.92918 c 23.588,-7.1247 45.9461,-17.7184 56.8597,-26.9415 2.97,-2.5098 9.2184,-8.6286 13.8854,-13.5972 12.8995,-13.7331 19.8656,-19.1924 30.0429,-23.5444 13.2829,-5.68 28.0144,-5.3234 43.609,1.0556 3.5388,1.4475 8.4478,3.9197 10.9089,5.4938 l 4.4749,2.862 4.104,-3.1789 c 10.2691,-7.9541 20.9658,-12.3254 33.9811,-13.8865 12.7686,-1.5316 24.0422,3.0307 29.1432,11.7938 1.8804,3.2304 2.3398,4.9148 2.8741,10.5359 0.9641,10.143 3.7134,15.463 10.8771,21.0476 3.7947,2.9583 7.6891,4.74 12.7592,5.8374 l 3.6736,0.7951 -2.9736,1.0062 c -3.9311,1.3302 -10.4081,1.2725 -14.0257,-0.125 -3.3697,-1.3017 -8.2095,-5.5721 -10.365,-9.1455 -0.8417,-1.3954 -2.6078,-4.9249 -3.9247,-7.8434 -3.5304,-7.824 -5.6421,-11.0362 -9.276,-14.1095 -12.7926,-10.8192 -35.7336,-8.4025 -53.5088,5.6368 -5.2401,4.1388 -5.4662,4.2463 -6.3586,3.0242 -2.7846,-3.8133 -15.4822,-10.0425 -23.3011,-11.4311 -9.8603,-1.751 -21.718,-0.1771 -31.9567,4.242 -9.8694,4.2597 -15.5626,8.1408 -34.0289,23.1978 -6.5268,5.3219 -14.4497,11.2437 -17.6066,13.1597 -6.0737,3.6862 -16.5232,8.5543 -23.0717,10.7485 -9.691,3.2472 -24.5426,6.05202 -31.7281,5.99222 l -3.6596,-0.031 8.592,-2.59522 z"
       id="path3084"
       inkscape:connector-curvature="0" />
    <path
       inkscape:connector-curvature="0"
       id="path3086"
       d="m 1355.3731,1003.6341 c 24.4616,2.9643 48.3077,9.5576 60.6442,16.7676 3.3571,1.962 10.5643,6.9158 16.0158,11.0083 15.068,11.3116 22.8687,15.4924 33.6426,18.0303 14.0614,3.3124 28.5124,0.4292 42.7785,-8.5352 3.2374,-2.0343 7.6484,-5.3134 9.8024,-7.2871 l 3.9163,-3.5885 4.5893,2.4262 c 11.4835,6.0706 22.7723,8.5383 35.8622,7.8393 12.8419,-0.6859 23.1635,-7.1179 26.6824,-16.6274 1.2972,-3.5056 1.4603,-5.2439 1.0205,-10.8732 -0.7936,-10.1576 1.0004,-15.87112 7.0976,-22.60382 3.2298,-3.5665 6.76,-5.9911 11.566,-7.9436 l 3.4823,-1.4147 -3.1024,-0.48 c -4.1011,-0.6348 -10.4718,0.5353 -13.7954,2.5337 -3.0958,1.8616 -7.1296,6.9002 -8.6388,10.7909 -0.5894,1.5193 -1.7225,5.2998 -2.5183,8.40132 -2.133,8.3144 -3.6612,11.8417 -6.7128,15.4938 -10.7426,12.857 -33.7576,14.4193 -53.6813,3.6441 -5.8735,-3.1765 -6.1147,-3.2436 -6.7837,-1.8863 -2.0878,4.2351 -13.5258,12.5541 -20.9897,15.2659 -9.4126,3.4197 -21.3644,3.9073 -32.2102,1.3138 -10.4547,-2.5 -16.7302,-5.3448 -37.5097,-17.0038 -7.3443,-4.1209 -16.1672,-8.5928 -19.6064,-9.9377 -6.6169,-2.5874 -17.7476,-5.587 -24.5758,-6.623 -10.1049,-1.5333 -25.2175,-1.7437 -32.2858,-0.4497 l -3.5998,0.6595 8.9101,1.0798 z"
       style="opacity:0.71193417;fill:#6c5353;fill-opacity:1;stroke:#d78b31;stroke-width:0.73399997;stroke-linecap:square;stroke-linejoin:round;stroke-miterlimit:4;stroke-opacity:0.80710659;stroke-dasharray:none;stroke-dashoffset:0"
       inkscape:transform-center-x="40.475937"
       inkscape:transform-center-y="22.446125" />
    <path
       style="opacity:0.71193417;fill:#6c5353;fill-opacity:1;stroke:#d78b31;stroke-width:0.73400003;stroke-linecap:square;stroke-linejoin:round;stroke-miterlimit:4;stroke-opacity:0.80710659;stroke-dasharray:none;stroke-dashoffset:0"
       d="m 1364.7711,1005.4731 -10.1548,-1.5221 18.9398,0.8162 c 34.0846,1.4687 62.8055,-0.3456 88.9068,-5.61642 9.8313,-1.9853 27.0918,-6.5721 34.2042,-9.0894 l 5.233,-1.8521 5.0154,1.4703 c 7.8667,2.3062 25.5711,3.9013 34.7955,3.1349 20.3054,-1.6871 43.3207,-9.3273 61.6068,-20.4511 2.693,-1.6382 5.0302,-2.8362 5.1939,-2.6622 0.477,0.5075 -8.9244,7.9811 -14.4598,11.4947 -15.3015,9.7127 -31.741,15.448 -50.3942,17.5813 -9.5957,1.0974 -25.9717,-0.047 -35.5576,-2.484 l -7.0785,-1.7999 -8.453,3.1129 c -18.6697,6.87552 -37.4483,10.36482 -62.0611,11.53182 -12.4229,0.589 -52.1226,-1.6243 -65.7364,-3.6649 z"
       id="path3094"
       inkscape:connector-curvature="0" />
    <flowRoot
       xml:space="preserve"
       id="flowRoot3096"
       style="font-size:40px;font-style:normal;font-weight:normal;line-height:125%;letter-spacing:0px;word-spacing:0px;fill:#241c1c;fill-opacity:1;stroke:none;font-family:Sans"
       transform="matrix(4.6378842,-0.10101963,0.21072052,9.6743308,-1313.1139,-7394.6584)"><flowRegion
         id="flowRegion3098"><rect
           id="rect3100"
           width="460.62955"
           height="351.53308"
           x="666.70068"
           y="797.80377"
           style="fill:#241c1c" /></flowRegion><flowPara
         id="flowPara3102"
         style="font-style:normal;font-variant:normal;font-weight:normal;font-stretch:normal;fill:#241c1c;font-family:FreeMono;-inkscape-font-specification:FreeMono">Glamour touch</flowPara></flowRoot>    <flowRoot
       transform="matrix(4.6378842,-0.10101963,-0.21072052,-9.6743308,-960.00193,8820.6945)"
       style="font-size:40px;font-style:normal;font-weight:normal;line-height:125%;letter-spacing:0px;word-spacing:0px;fill:url(#radialGradient3118);fill-opacity:1;stroke:none;font-family:Sans"
       id="flowRoot3104"
       xml:space="preserve"><flowRegion
         id="flowRegion3106"
         style="fill:url(#radialGradient3122)"><rect
           y="797.80377"
           x="666.70068"
           height="351.53308"
           width="460.62955"
           id="rect3108"
           style="fill:url(#radialGradient3120)" /></flowRegion><flowPara
         style="font-style:normal;font-variant:normal;font-weight:normal;font-stretch:normal;fill:url(#radialGradient3124);font-family:FreeMono;-inkscape-font-specification:FreeMono"
         id="flowPara3110">Glamour touch</flowPara></flowRoot>  </g>
</svg>
