<?xml version="1.0" encoding="UTF-8" standalone="no"?>
<!-- Created with Inkscape (http://www.inkscape.org/) -->

<svg
   xmlns:dc="http://purl.org/dc/elements/1.1/"
   xmlns:cc="http://creativecommons.org/ns#"
   xmlns:rdf="http://www.w3.org/1999/02/22-rdf-syntax-ns#"
   xmlns:svg="http://www.w3.org/2000/svg"
   xmlns="http://www.w3.org/2000/svg"
   xmlns:sodipodi="http://sodipodi.sourceforge.net/DTD/sodipodi-0.dtd"
   xmlns:inkscape="http://www.inkscape.org/namespaces/inkscape"
   width="744.09448819"
   height="1052.3622047"
   id="svg2"
   version="1.1"
   inkscape:version="0.48.4 r9939"
   sodipodi:docname="lavender.svg">
  <defs
     id="defs4">
    <inkscape:path-effect
       effect="spiro"
       id="path-effect3076"
       is_visible="true" />
    <inkscape:path-effect
       effect="spiro"
       id="path-effect3072"
       is_visible="true" />
    <inkscape:path-effect
       effect="spiro"
       id="path-effect3066"
       is_visible="true" />
    <inkscape:path-effect
       effect="spiro"
       id="path-effect3010"
       is_visible="true" />
    <inkscape:path-effect
       effect="spiro"
       id="path-effect2987"
       is_visible="true" />
  </defs>
  <sodipodi:namedview
     id="base"
     pagecolor="#ffffff"
     bordercolor="#666666"
     borderopacity="1.0"
     inkscape:pageopacity="0.0"
     inkscape:pageshadow="2"
     inkscape:zoom="0.35"
     inkscape:cx="952.14286"
     inkscape:cy="634.28571"
     inkscape:document-units="px"
     inkscape:current-layer="layer1"
     showgrid="false"
     inkscape:window-width="1366"
     inkscape:window-height="744"
     inkscape:window-x="0"
     inkscape:window-y="24"
     inkscape:window-maximized="1" />
  <metadata
     id="metadata7">
    <rdf:RDF>
      <cc:Work
         rdf:about="">
        <dc:format>image/svg+xml</dc:format>
        <dc:type
           rdf:resource="http://purl.org/dc/dcmitype/StillImage" />
        <dc:title></dc:title>
      </cc:Work>
    </rdf:RDF>
  </metadata>
  <g
     inkscape:label="Layer 1"
     inkscape:groupmode="layer"
     id="layer1">
    <path
       style="opacity:0.71193417;fill:#800080;fill-opacity:1;stroke:#d78b31;stroke-width:0.73399997;stroke-linecap:square;stroke-linejoin:round;stroke-miterlimit:4;stroke-opacity:0.80710659;stroke-dasharray:none;stroke-dashoffset:0"
       d="m 296.71613,405.00015 c -38.87674,-0.91558 -74.29942,2.95392 -110.95654,-11.91052 -38.36962,-15.55884 -48.81864,-21.40071 -65.32388,-42.34846 -7.51998,-9.54392 -7.7834,-24.71561 -9.53806,-51.16498 -1.38751,-20.91492 -2.96864,-37.13861 -6.25877,-47.29128 -3.95511,-12.2045 0.33274,-3.00285 -6.061661,-15.31225 l -6.885828,-13.25511 5.181453,2.5563 c 6.195426,3.05656 14.933416,5.82992 24.324006,7.72021 6.47811,1.30403 9.12196,1.2784 44.84329,-0.43484 34.73262,-1.6658 51.60185,-4.7571 62.01052,-3.64236 39.9077,4.27404 56.19167,4.68905 85.50678,21.63204 13.69086,7.91282 34.96584,27.62905 38.40712,38.80372 7.02107,22.79857 13.78827,29.70273 12.54464,53.09973 -0.35256,6.63174 -6.89775,45.71649 -7.88059,45.73454 -0.37477,0.007 -1.79284,-1.30093 -3.15151,-2.90622 -3.13373,-3.70294 -9.72936,-7.42139 -16.16901,-9.11569 -5.02504,-1.32213 -16.714,-2.18993 -16.63849,-1.23528 0.0218,0.27984 2.82311,2.59384 6.22426,5.14223 5.82306,4.36305 13.09513,11.87723 15.44108,15.95509 0.98322,1.70912 0.39118,1.63861 -9.31048,-1.10897 -5.69817,-1.61379 -15.61936,-4.64172 -22.04688,-6.72875 -6.42753,-2.08704 -11.99598,-3.57542 -12.37406,-3.30749 -0.37815,0.26792 1.98745,2.13836 5.25685,4.15658 5.60857,3.46199 13.71329,10.26422 15.82149,13.27882 0.84583,1.20946 0.0945,1.39509 -6.58961,1.62803 -4.1494,0.14461 -11.51859,0.16932 -16.37612,0.0549 z"
       id="path3012"
       inkscape:connector-curvature="0"
       sodipodi:nodetypes="sssssscssssssscsssscsscssss" />
    <path
       inkscape:connector-curvature="0"
       id="path3014"
       d="m 302.21426,397.80474 c -31.97372,-13.00578 -64.75969,-19.04212 -109.24606,-20.11373 -46.56477,-1.12168 -75.58039,0.77539 -95.873695,6.2682 -16.191959,4.38274 -20.344094,6.69718 -48.831124,27.21916 -22.526324,16.22782 -27.297194,19.33866 -40.3209339,26.29144 -15.6559,8.35795 -30.9915501,17.35317 -45.9468601,26.95034 l -9.10451,5.84256 6.75434,-0.21243 c 8.07602,-0.25398 17.89194,0.61687 27.3244,2.42418 6.5071001,1.24681 8.5914301,2.20148 35.35384,16.19355 26.021762,13.6048 29.317005,15.1275 38.767984,17.91448 36.236014,10.68556 75.370949,14.49853 116.124699,11.31422 19.03307,-1.48715 32.79959,-3.92023 49.85885,-8.81193 39.4535,-11.31321 75.33858,-33.42809 95.06194,-58.58402 4.73903,-6.04428 12.4784,-18.52328 11.71215,-18.88497 -0.29218,-0.13782 -2.76356,0.40609 -5.49204,1.20944 -6.29381,1.85255 -15.36715,2.49418 -22.24329,1.573 -5.36548,-0.71884 -15.58563,-4.15561 -14.54776,-4.89205 0.30423,-0.21585 4.91008,-1.07579 10.23498,-1.91096 9.11686,-1.42989 22.61747,-4.86658 28.66616,-7.29722 2.53522,-1.01872 1.99053,-1.17159 -8.56832,-2.40349 -6.20152,-0.7236 -17.22263,-1.80903 -24.49131,-2.41204 -7.26846,-0.60303 -13.2381,-1.38096 -13.26543,-1.72878 -0.0279,-0.34773 3.77645,-1.00697 8.45337,-1.46487 8.02266,-0.78547 21.45883,-3.35886 26.22911,-5.02359 1.91381,-0.66789 1.50411,-1.08175 -3.59343,-3.62987 -3.16445,-1.58181 -9.02214,-4.20559 -13.01706,-5.83062 z"
       style="opacity:0.71193417;fill:#800080;fill-opacity:1;stroke:#d78b31;stroke-width:0.73399997;stroke-linecap:square;stroke-linejoin:round;stroke-miterlimit:4;stroke-opacity:0.80710659;stroke-dasharray:none;stroke-dashoffset:0" />
    <path
       sodipodi:nodetypes="sssssscssssssscsssscsscssss"
       inkscape:connector-curvature="0"
       id="path3016"
       d="m 443.80272,437.2043 c 24.25777,17.51861 39.8885,36.34545 82.0247,44.33665 44.10468,8.36453 58.32336,9.66499 96.90823,4.58138 17.57947,-2.31607 38.60925,-11.43372 76.03752,-26.72649 29.59652,-12.0928 52.85301,-21.23855 68.76801,-25.89204 19.13132,-5.594 3.93461,-1.98359 24.65317,-6.50726 l 22.31037,-4.8712 -6.58223,-0.85233 c -7.87028,-1.01904 -16.85516,-3.39283 -25.011,-6.60785 -5.62641,-2.21793 -7.15507,-3.46278 -25.92925,-21.11525 -18.25478,-17.16392 -23.98064,-26.89018 -31.67182,-31.05089 -29.48835,-15.95254 -39.69223,-23.27122 -80.34487,-26.58272 -18.98588,-1.54656 -58.69783,0.56931 -76.10829,5.77499 -35.5207,10.62066 -49.02297,11.67905 -80.47805,26.50695 -8.91569,4.20285 -58.81829,31.05023 -58.2617,31.51818 0.21237,0.17835 2.85028,0.0413 5.86266,-0.30468 6.94849,-0.79818 15.96619,0.004 22.10673,1.96618 4.79181,1.53122 12.90044,6.43762 11.5423,6.98393 -0.3981,0.16014 -5.2387,0.26711 -10.75685,0.23779 -9.44766,-0.0503 -24.08793,1.14489 -31.08619,2.53772 -2.9331,0.58372 -2.48583,0.81608 7.03357,3.65356 5.5911,1.66662 15.62605,4.43546 22.29976,6.15296 6.67378,1.71748 12.01562,3.40007 11.87062,3.7391 -0.14492,0.33899 -4.11763,0.37824 -8.82866,0.0872 -8.08078,-0.49926 -22.23419,-0.12483 -27.62888,0.73095 -2.16452,0.34333 -1.9754,0.80572 1.65823,4.05545 2.25561,2.01733 6.58095,5.45884 9.61192,7.64771 z"
       style="opacity:0.71193417;fill:#800080;fill-opacity:1;stroke:#d78b31;stroke-width:0.73399997;stroke-linecap:square;stroke-linejoin:round;stroke-miterlimit:4;stroke-opacity:0.80710659;stroke-dasharray:none;stroke-dashoffset:0" />
    <path
       style="opacity:0.71193417;fill:#800080;fill-opacity:1;stroke:#d78b31;stroke-width:0.73399997;stroke-linecap:square;stroke-linejoin:round;stroke-miterlimit:4;stroke-opacity:0.80710659;stroke-dasharray:none;stroke-dashoffset:0"
       d="m 375.3354,461.05463 c -11.49774,22.2617 -29.43376,41.08472 -18.06973,66.42344 11.89478,26.52245 17.6793,34.24354 45.40372,50.0794 12.63122,7.21497 36.60524,12.07542 77.96842,21.28117 32.70798,7.27949 57.91171,13.21145 72.91734,18.22436 18.03841,6.02597 4.87327,0.7444 22.26551,8.18193 l 18.72847,8.00896 -2.32833,-3.723 c -2.78381,-4.4515 -4.27159,-10.25246 -4.14165,-16.14803 0.0898,-4.06718 1.01107,-5.55376 15.62681,-25.21526 14.2113,-19.11734 24.73312,-27.69366 26.4323,-33.92395 6.51478,-23.88746 11.28076,-33.2218 -5.82539,-55.05549 -7.98901,-10.1969 -32.17158,-28.34665 -48.7478,-33.76235 -33.81896,-11.0491 -42.51451,-17.01874 -80.03545,-23.58159 -10.63512,-1.86023 -74.80232,-10.29779 -75.15827,-9.74782 -0.13551,0.20976 1.46602,1.41752 3.55939,2.68408 4.82893,2.92145 8.52926,7.80476 9.07131,11.97134 0.4231,3.25126 -2.09435,10.12862 -3.58319,9.78948 -0.43642,-0.0994 -3.17333,-2.4014 -6.08204,-5.1155 -4.98002,-4.64679 -14.47488,-11.09131 -20.16077,-13.68381 -2.38307,-1.08662 -2.46851,-0.73003 -1.34255,5.60762 0.6613,3.72243 2.15894,10.27125 3.32782,14.55294 1.16887,4.28167 1.67456,7.89173 1.1237,8.02231 -0.55086,0.13055 -2.72931,-1.7876 -4.84105,-4.26264 -3.62233,-4.24564 -11.71079,-10.93972 -15.78965,-13.06768 -1.63639,-0.85375 -2.18108,-0.48666 -4.7769,3.21958 -1.61147,2.30076 -4.10536,6.45899 -5.54202,9.24051 z"
       id="path3018"
       inkscape:connector-curvature="0"
       sodipodi:nodetypes="sssssscssssssscsssscsscssss" />
    <path
       sodipodi:nodetypes="sssssscssssssscsssscsscssss"
       inkscape:connector-curvature="0"
       id="path3020"
       d="m 318.27035,448.88595 c -37.37301,7.33809 -73.27841,9.49504 -103.00232,29.89571 -31.11246,21.35372 -38.953,28.71414 -46.7212,51.62564 -3.53937,10.43864 2.18145,25.09108 10.89726,50.85036 6.89218,20.36921 11.74851,36.25343 12.55444,46.57576 0.96906,12.40846 1.50585,2.83617 0.14793,15.75074 l -1.46173,13.90679 4.0221,-3.32197 c 4.80912,-3.97203 12.1978,-8.09364 20.56753,-11.4733 5.77412,-2.33153 8.3503,-2.74591 43.69603,-7.0287 34.36778,-4.16424 51.95863,-3.98923 61.62205,-6.79121 37.0507,-10.74312 52.69242,-13.8471 74.47144,-35.02988 10.17129,-9.89291 23.05404,-32.41075 21.99222,-43.74223 -2.16617,-23.11858 1.68232,-30.89041 -8.74125,-53.2126 -2.95448,-6.32712 -24.70376,-42.87447 -25.66477,-42.72861 -0.36641,0.0556 -1.22775,1.55038 -1.91397,3.32175 -1.58287,4.08594 -6.51982,8.76178 -12.1028,11.4627 -4.35636,2.10759 -15.35978,4.88443 -15.66265,3.95266 -0.0888,-0.27312 1.71831,-2.96641 4.0157,-5.98508 3.93303,-5.16825 8.03139,-13.6113 8.70195,-17.92741 0.28112,-1.80899 -0.26575,-1.6428 -8.59979,2.61403 -4.89495,2.50025 -13.33167,7.06349 -18.74812,10.14054 -5.41637,3.07704 -10.23483,5.43496 -10.7074,5.23976 -0.47263,-0.1952 1.08667,-2.38908 3.46507,-4.87539 4.07984,-4.26492 9.26674,-12.16075 10.12536,-15.4136 0.34458,-1.30505 -0.4578,-1.35899 -7.0371,-0.47323 -4.08428,0.54987 -11.24666,1.74991 -15.91628,2.66677 z"
       style="opacity:0.71193417;fill:#800080;fill-opacity:1;stroke:#d78b31;stroke-width:0.73399997;stroke-linecap:square;stroke-linejoin:round;stroke-miterlimit:4;stroke-opacity:0.80710659;stroke-dasharray:none;stroke-dashoffset:0" />
    <path
       style="opacity:0.71193417;fill:#800080;fill-opacity:1;stroke:#d78b31;stroke-width:0.73399997;stroke-linecap:square;stroke-linejoin:round;stroke-miterlimit:4;stroke-opacity:0.80710659;stroke-dasharray:none;stroke-dashoffset:0"
       d="m 433.77492,394.75313 c 38.40049,-4.76613 74.33751,-4.4644 107.72215,-22.78278 34.94439,-19.17414 44.1369,-25.98029 56.29421,-48.30325 5.53908,-10.17048 2.74104,-25.17685 -0.85087,-51.46663 -2.84035,-20.78874 -4.54285,-36.96465 -3.32443,-47.31605 1.46436,-12.44337 -0.93587,-2.93187 2.92843,-15.72114 l 4.16122,-13.77182 -4.62716,3.03877 c -5.53246,3.63341 -13.64569,7.23983 -22.58472,10.03914 -6.16658,1.93111 -8.79561,2.16844 -44.59433,4.02545 -34.80805,1.80564 -52.17401,0.42914 -62.27988,2.56384 -38.74635,8.18458 -54.82442,10.21202 -80.50304,29.85332 -11.99251,9.17304 -29.13202,30.75384 -30.2942,42.12934 -2.37102,23.20825 -7.69509,30.6975 -1.74292,53.67563 1.68714,6.51298 16.06475,44.45413 17.0439,44.37432 0.37326,-0.0306 1.51699,-1.4626 2.54177,-3.18259 2.36349,-3.96751 8.15968,-8.29422 14.20942,-10.60687 4.72074,-1.80464 16.14703,-3.82269 16.26463,-2.8726 0.0339,0.27852 -2.2788,2.84154 -5.14053,5.69564 -4.89962,4.88644 -10.60192,13.02819 -12.108,17.28765 -0.63111,1.78516 -0.058,1.65676 9.01695,-2.01992 5.33017,-2.15947 14.56612,-6.13477 20.5247,-8.83399 5.95842,-2.69918 11.18492,-4.72195 11.61427,-4.49497 0.42928,0.227 -1.54123,2.30879 -4.37932,4.62633 -4.86822,3.97543 -11.54057,11.49698 -13.02504,14.68292 -0.59558,1.27822 0.18761,1.38687 6.86854,0.95284 4.1473,-0.26942 11.46627,-0.97705 16.26425,-1.57258 z"
       id="path3022"
       inkscape:connector-curvature="0"
       sodipodi:nodetypes="sssssscssssssscsssscsscssss" />
    <path
       style="opacity:0.71193417;fill:#ff8080;fill-opacity:1;stroke:#d78b31;stroke-width:0.73399997;stroke-linecap:square;stroke-linejoin:round;stroke-miterlimit:4;stroke-opacity:0.80710659;stroke-dasharray:none;stroke-dashoffset:0"
       d="m 478.48896,416.61762 c 38.83616,2.10825 73.05812,8.67468 113.14047,-3.16518 41.95485,-12.39297 53.77721,-17.35284 75.35092,-36.76222 9.8292,-8.84301 13.84392,-23.80645 22.1294,-49.79231 6.55182,-20.54842 12.13517,-36.44868 17.91434,-46.22071 6.94706,-11.74691 0.41226,-2.99144 9.80782,-14.65293 l 10.11746,-12.55739 -5.77827,2.12314 c -6.90889,2.53862 -16.2729,4.60055 -26.06664,5.73978 -6.75622,0.78588 -9.37546,0.55571 -44.42758,-3.90428 -34.08192,-4.33657 -50.07055,-8.69679 -60.68339,-8.40239 -40.69096,1.12873 -56.9656,0.27677 -90.2705,14.73836 -15.55424,6.75397 -41.56028,24.57747 -47.74222,35.34713 -12.61248,21.97221 -21.04123,28.26648 -25.59386,51.47016 -1.29038,6.57691 -4.45852,45.68488 -3.48697,45.77886 0.37048,0.0357 2.10233,-1.14589 3.84879,-2.62602 4.02812,-3.41427 11.49819,-6.57558 18.31283,-7.74989 5.31752,-0.91639 17.14086,-0.86769 16.82971,0.0693 -0.091,0.27465 -3.44534,2.34295 -7.45343,4.59624 -6.86244,3.85781 -15.94338,10.71541 -19.28189,14.56104 -1.39925,1.61171 -0.79388,1.58799 9.52068,-0.37383 6.0584,-1.15224 16.66039,-3.37391 23.56018,-4.93703 6.89948,-1.56311 12.79775,-2.60159 13.10718,-2.30767 0.30919,0.29394 -2.50278,1.95788 -6.2491,3.69775 -6.4264,2.98451 -16.15817,9.07453 -18.99762,11.88841 -1.13906,1.12895 -0.43884,1.3705 6.14182,2.11848 4.08496,0.46433 11.39745,1.05983 16.24987,1.32321 z"
       id="path3024"
       inkscape:connector-curvature="0"
       sodipodi:nodetypes="sssssscssssssscsssscsscssss" />
    <path
       sodipodi:nodetypes="sssssscssssssscsssscsscssss"
       inkscape:connector-curvature="0"
       id="path3026"
       d="m 352.68857,471.89619 c -8.65249,22.65151 -8.70519,43.92443 -40.17292,63.3954 -32.93767,20.38058 -44.57913,25.71436 -82.4795,32.55987 -17.26757,3.11893 -42.57391,1.22817 -86.92884,-1.30915 -35.0738,-2.00637 -62.373041,-3.26709 -79.878639,-2.70813 -21.043409,0.67195 -4.93811,-0.59971 -26.603384,1.48709 l -23.32978,2.24716 5.2058,-2.69088 c 6.22447,-3.21739 12.44376,-7.9625 17.31252,-13.2089 3.358767,-3.61932 3.80081,-5.17156 7.498224,-26.32885 3.595042,-20.57173 1.541624,-30.87081 5.305884,-36.81817 14.432627,-22.80275 18.109233,-32.28635 51.691135,-47.17596 15.68356,-6.95383 52.40821,-16.75952 71.6429,-17.26924 39.24262,-1.03996 51.97752,-4.07369 90.70113,-0.19134 10.97586,1.10046 74.84456,10.20328 74.69444,10.78146 -0.058,0.22043 -2.49456,0.87492 -5.41614,1.45445 -6.73928,1.33665 -14.13911,4.69928 -18.14058,8.24343 -3.12244,2.76554 -6.71037,9.49623 -5.10725,9.58069 0.47,0.0247 4.83592,-1.30418 9.70211,-2.9531 8.33133,-2.82323 22.17449,-6.07053 29.39341,-6.89513 3.02563,-0.34561 2.7997,-0.008 -3.55322,5.30477 -3.73157,3.12064 -10.59161,8.52454 -15.24451,12.00865 -4.65306,3.48404 -8.152,6.54549 -7.77513,6.80315 0.37673,0.25762 3.9243,-0.87606 7.88376,-2.51935 6.7919,-2.81893 19.60231,-6.64996 25.00761,-7.47863 2.16858,-0.33249 2.33978,0.13269 1.50209,4.07982 -0.52007,2.45025 -1.82995,6.77065 -2.91112,9.60089 z"
       style="opacity:0.71193417;fill:#ff8080;fill-opacity:1;stroke:#d78b31;stroke-width:0.73399997;stroke-linecap:square;stroke-linejoin:round;stroke-miterlimit:4;stroke-opacity:0.80710659;stroke-dasharray:none;stroke-dashoffset:0" />
    <path
       style="opacity:0.71193417;fill:#ff5555;fill-opacity:1;stroke:#d78b31;stroke-width:0.73399997;stroke-linecap:square;stroke-linejoin:round;stroke-miterlimit:4;stroke-opacity:0.80710659;stroke-dasharray:none;stroke-dashoffset:0"
       d="m 435.36818,460.01652 c 7.10659,22.50433 5.7023,43.78987 35.85661,62.6853 31.56282,19.77817 42.84644,24.89784 80.30219,31.03955 17.06505,2.79826 42.51699,0.43343 87.07413,-2.9343 35.23356,-2.66302 62.63666,-4.43465 80.11518,-4.20242 21.01081,0.27917 4.98243,-0.69239 26.51857,0.99093 l 23.19084,1.81268 -5.02489,-2.59533 c -6.00811,-3.10313 -11.90631,-7.73508 -16.41896,-12.89386 -3.11295,-3.55887 -3.44895,-5.10384 -5.69967,-26.20559 -2.1883,-20.51772 0.57164,-30.86174 -2.78757,-36.74258 -12.88012,-22.54765 -15.90943,-31.96862 -48.49304,-46.24026 -15.21733,-6.66522 -51.29386,-15.79097 -70.50611,-15.94161 -39.19633,-0.30735 -51.73164,-3.10508 -90.74593,1.50334 -11.05822,1.30623 -75.59123,11.6083 -75.48049,12.18404 0.0429,0.21947 2.436,0.82888 5.31986,1.35419 6.65195,1.21158 13.8263,4.43809 17.58753,7.90974 2.93498,2.70896 6.0642,9.37691 4.45431,9.49138 -0.47197,0.0335 -4.74965,-1.21466 -9.506,-2.77371 -8.14334,-2.66935 -21.77285,-5.66007 -28.94004,-6.3503 -3.0038,-0.2893 -2.8009,0.044 3.19223,5.24177 3.52017,3.05291 10.01447,8.33208 14.43181,11.73147 4.41742,3.39933 7.7088,6.39735 7.31408,6.66224 -0.39449,0.2648 -3.86686,-0.8033 -7.7161,-2.37366 -6.60331,-2.69383 -19.15948,-6.28795 -24.51148,-7.01614 -2.1472,-0.29217 -2.3504,0.1765 -1.78245,4.1105 0.35248,2.4421 1.36733,6.74079 2.25539,9.55263 z"
       id="path3028"
       inkscape:connector-curvature="0"
       sodipodi:nodetypes="sssssscssssssscsssscsscssss" />
    <path
       sodipodi:nodetypes="sssssscssssssscsssscsscssss"
       inkscape:connector-curvature="0"
       id="path3030"
       d="m 335.16466,368.37506 c -12.21904,-21.62005 -15.68524,-42.71907 -50.02817,-58.93772 -35.94711,-16.97633 -48.35233,-21.12175 -87.05058,-24.18183 -17.63127,-1.39423 -42.43335,2.97284 -86.02948,9.85665 -34.473527,5.44334 -61.353976,9.38159 -78.810413,10.55042 -20.98427,1.40502 -4.80272,1.08111 -26.6310799,1.14373 l -23.5053601,0.0674 5.5964,2.15704 c 6.6914201,2.57909 13.6228701,6.67431 19.2950301,11.39978 3.9128999,3.25996 4.6005399,4.75637 11.6639599,25.38188 6.86794,20.05465 6.48366,30.4742 11.17244,36.00382 17.977586,21.20106 23.146873,30.2475 58.852016,41.71299 16.675137,5.35469 54.682147,11.4672 73.846147,10.07928 39.09823,-2.83159 52.21896,-1.07563 90.0125,-8.7394 10.71222,-2.17225 72.61357,-17.49054 72.37168,-18.04936 -0.093,-0.21293 -2.61495,-0.62242 -5.60647,-0.90972 -6.90031,-0.6626 -14.78114,-3.27006 -19.31961,-6.39219 -3.54155,-2.43619 -8.18114,-8.76029 -6.60422,-9.00191 0.46225,-0.0708 5.00675,0.81778 10.09894,1.97455 8.71845,1.98065 22.97281,3.83939 30.26694,3.94677 3.0571,0.045 2.77877,-0.26744 -4.37646,-4.9129 -4.20263,-2.72854 -11.87551,-7.41423 -17.05067,-10.41264 -5.17531,-2.99833 -9.13778,-5.69103 -8.80525,-5.98378 0.33238,-0.29263 4.03392,0.48278 8.2254,1.72326 7.19046,2.12793 20.51431,4.66744 26.00965,4.9574 2.20472,0.11636 2.29996,-0.362 0.83537,-4.19535 -0.90915,-2.37961 -2.90201,-6.5368 -4.42871,-9.23815 z"
       style="opacity:0.71193417;fill:#ff8080;fill-opacity:1;stroke:#d78b31;stroke-width:0.73399997;stroke-linecap:square;stroke-linejoin:round;stroke-miterlimit:4;stroke-opacity:0.80710659;stroke-dasharray:none;stroke-dashoffset:0" />
    <path
       style="opacity:0.71193417;fill:#ff8080;fill-opacity:1;stroke:#d78b31;stroke-width:0.73399997;stroke-linecap:square;stroke-linejoin:round;stroke-miterlimit:4;stroke-opacity:0.80710659;stroke-dasharray:none;stroke-dashoffset:0"
       d="m 418.4287,376.18848 c 28.0251,-16.6112 58.77574,-28.3127 69.67632,-54.19636 11.41003,-27.09281 12.73768,-35.6424 1.84026,-57.70277 -4.96496,-10.05095 -21.5905,-21.23427 -49.6068,-41.26195 -22.15393,-15.83687 -38.96174,-28.32847 -47.76119,-37.0892 -10.57775,-10.53124 -3.57821,-2.05562 -12.45016,-13.6638 l -9.5535,-12.49999 -1.03607,3.99101 c -1.23882,4.7719 -4.69093,10.37977 -9.60959,15.61067 -3.39317,3.60854 -5.39658,4.67397 -33.97932,18.07212 -27.79172,13.02736 -43.82047,17.68855 -50.35949,22.7707 -25.07153,19.48564 -36.77517,26.46637 -39.88685,50.85649 -1.45315,11.39079 4.51604,34.50819 14.33591,44.07695 20.03436,19.52215 22.6347,27.33735 49.50614,43.90719 7.6165,4.69654 55.8428,30.54433 56.597,30.15441 0.28699,-0.149 -0.10314,-1.68482 -0.86841,-3.41386 -1.7649,-3.9882 -0.96116,-9.40746 1.97066,-13.28513 2.2876,-3.02584 10.05678,-8.45282 11.0589,-7.72498 0.29376,0.21338 0.7673,3.05121 1.05233,6.30624 0.48754,5.57306 3.38744,14.0406 6.15665,17.97946 1.16059,1.65086 1.52474,1.35659 5.72511,-4.62758 2.46724,-3.51485 6.52065,-9.79382 9.00799,-13.95317 2.48711,-4.15938 4.99628,-7.52943 5.57598,-7.48886 0.57947,0.0405 0.8864,2.37606 0.6817,5.19003 -0.35067,4.82725 1.13756,13.11659 2.90525,16.18174 0.70926,1.2298 1.47633,1.05714 6.72746,-1.51388 3.25983,-1.59602 8.79207,-4.59992 12.29372,-6.67548 z"
       id="path3032"
       inkscape:connector-curvature="0"
       sodipodi:nodetypes="sssssscssssssscsssscsscssss" />
    <path
       style="opacity:0.71193417;fill:#ff8080;fill-opacity:1;stroke:#d78b31;stroke-width:0.73399997;stroke-linecap:square;stroke-linejoin:round;stroke-miterlimit:4;stroke-opacity:0.80710659;stroke-dasharray:none;stroke-dashoffset:0"
       d="m 333.31385,460.04824 c -26.35174,17.53944 -55.92749,30.28534 -64.20876,56.45317 -8.66822,27.39026 -9.12995,35.95309 4.00742,57.53973 5.98553,9.83502 23.75058,20.38445 53.80679,39.33918 23.76707,14.98847 41.84711,26.83455 51.53771,35.24853 11.64913,10.11437 3.78773,1.92057 13.83955,13.16811 l 10.82401,12.11169 0.63201,-4.01192 c 0.75541,-4.79694 3.64041,-10.50509 8.03072,-15.88967 3.02879,-3.71468 4.92476,-4.84696 32.15998,-19.20584 26.48161,-13.96149 42.04368,-19.17272 48.07001,-24.46672 23.10561,-20.29774 34.10601,-27.66602 34.74684,-52.06999 0.2991,-11.39724 -8.01521,-34.21147 -18.80843,-43.39405 -22.02023,-18.73439 -25.4137,-26.42643 -53.97423,-41.97758 -8.09531,-4.40792 -58.95891,-28.44291 -59.67382,-28.02782 -0.27245,0.15834 0.27404,1.67456 1.21465,3.3696 2.16979,3.90984 1.91495,9.33616 -0.62479,13.30246 -1.9818,3.09499 -9.20388,8.77605 -10.28015,8.08662 -0.31537,-0.20212 -1.0768,-3.0119 -1.69181,-6.24401 -1.05301,-5.53366 -4.81175,-13.86486 -7.9811,-17.6899 -1.32832,-1.60319 -1.66274,-1.29718 -5.25827,4.81235 -2.11174,3.58844 -5.53043,9.98629 -7.597,14.21745 -2.0665,4.2311 -4.235,7.6768 -4.81884,7.65699 -0.58391,-0.0198 -1.12761,-2.33519 -1.20824,-5.14538 -0.13838,-4.82052 -2.46724,-13.02424 -4.54631,-16.0146 -0.83408,-1.19975 -1.58392,-1.00061 -6.57651,1.74646 -3.09925,1.70535 -8.32892,4.89363 -11.6215,7.08512 z"
       id="path3034"
       inkscape:connector-curvature="0"
       sodipodi:nodetypes="sssssscssssssscsssscsscssss" />
    <path
       sodipodi:type="arc"
       style="opacity:0.71193417;color:#000000;fill:#800080;fill-opacity:1;fill-rule:nonzero;stroke:#d78b31;stroke-width:1.71621954;stroke-linecap:square;stroke-linejoin:round;stroke-miterlimit:4;stroke-opacity:0.80710659;stroke-dasharray:none;stroke-dashoffset:0;marker:none;visibility:visible;display:inline;overflow:visible;enable-background:accumulate"
       id="path3036"
       sodipodi:cx="2040"
       sodipodi:cy="816.64789"
       sodipodi:rx="105.71429"
       sodipodi:ry="41.42857"
       d="m 2043.7527,775.24543 a 105.71429,41.42857 0 1 1 -7.7385,0.003"
       sodipodi:start="4.7478949"
       sodipodi:end="10.957862"
       sodipodi:open="true"
       transform="matrix(0.40694959,0,0,0.44908514,-450.33872,50.999263)" />
    <path
       sodipodi:nodetypes="sssssscssssssscsssscsscssss"
       inkscape:connector-curvature="0"
       id="path3038"
       d="m 878.53816,290.64984 c -17.52763,-10.70158 -34.24973,-18.35311 -48.53849,-34.6922 -14.95629,-17.10242 -18.77277,-22.47604 -22.92774,-36.19463 -1.89314,-6.25034 0.41233,-13.09101 3.84261,-25.35957 2.71245,-9.70141 4.58703,-17.36045 4.71408,-22.76259 0.15295,-6.49382 0.63137,-1.25199 -0.30793,-8.4385 l -1.01162,-7.73866 1.9469,2.51265 c 2.32798,3.00442 5.85711,6.55562 9.82393,9.8854 2.73663,2.29714 3.9427,2.98571 20.45594,11.67862 16.05616,8.45231 24.21937,11.539 28.77314,14.79229 17.45933,12.47335 24.79595,16.96992 35.41465,32.29275 4.95917,7.15616 11.47945,21.588 11.25757,27.48621 -0.45244,12.03361 1.52037,16.90652 -2.78499,27.01904 -1.22041,2.86631 -10.44359,18.57644 -10.89332,18.32427 -0.17145,-0.096 -0.60712,-1.05528 -0.96811,-2.13137 -0.83276,-2.48228 -3.23687,-5.88805 -5.89347,-8.34911 -2.07319,-1.9205 -7.24843,-5.40253 -7.36669,-4.95647 -0.0346,0.13076 0.86878,1.90502 2.00766,3.94283 1.94981,3.48889 4.05465,8.7677 4.46933,11.2087 0.17374,1.02306 -0.0841,0.83485 -4.05542,-2.95996 -2.33248,-2.22882 -6.3588,-6.20688 -8.94718,-8.84002 -2.58845,-2.63318 -4.88207,-4.77172 -5.09682,-4.75227 -0.21469,0.0195 0.56174,1.48055 1.72542,3.24685 1.99636,3.02993 4.59354,8.2115 5.07009,10.11505 0.19119,0.76369 -0.18012,0.64757 -3.25599,-1.01809 -1.90949,-1.03407 -5.26364,-2.97406 -7.45355,-4.31121 z"
       style="opacity:0.71193417;fill:#800080;fill-opacity:1;stroke:#d78b31;stroke-width:0.73400003;stroke-linecap:square;stroke-linejoin:round;stroke-miterlimit:4;stroke-opacity:0.80710659;stroke-dasharray:none;stroke-dashoffset:0" />
    <path
       style="opacity:0.71193417;fill:#800080;fill-opacity:1;stroke:#d78b31;stroke-width:0.73400003;stroke-linecap:square;stroke-linejoin:round;stroke-miterlimit:4;stroke-opacity:0.80710659;stroke-dasharray:none;stroke-dashoffset:0"
       d="m 882.1879,288.89432 c -12.45678,-14.26965 -26.39688,-25.64399 -46.44958,-37.90034 -20.98977,-12.82906 -34.48388,-19.66451 -44.5876,-22.58602 -8.06165,-2.33099 -10.31918,-2.39738 -26.55026,-0.78089 -12.83475,1.27826 -15.50093,1.40345 -22.53315,1.05821 -8.45333,-0.41496 -16.86308,-0.46077 -25.19607,-0.13725 l -5.07293,0.19699 3.10462,1.69349 c 3.71202,2.02482 8.03526,5.01231 12.03449,8.31623 2.75894,2.27926 3.55387,3.25714 13.48378,16.58719 9.65511,12.96115 10.90981,14.51317 14.76087,18.25917 14.76529,14.36264 31.94704,26.42563 50.98326,35.79441 8.89045,4.37549 15.53785,6.93444 24.07514,9.26791 19.74456,5.39674 39.59338,5.028 52.58109,-0.97683 3.12069,-1.44274 8.63385,-4.96293 8.34332,-5.32721 -0.11084,-0.13883 -1.32128,-0.55045 -2.69008,-0.91429 -3.15741,-0.83961 -7.38483,-2.95548 -10.36351,-5.18711 -2.32438,-1.74138 -6.42122,-5.98102 -5.83169,-6.03492 0.17284,-0.0158 2.40418,0.81992 4.95848,1.85697 4.37318,1.77564 11.06014,3.81631 14.19849,4.33297 1.31532,0.21656 1.09212,0.004 -3.51105,-3.34117 -2.70373,-1.96487 -7.54056,-5.36722 -10.74861,-7.56078 -3.20791,-2.19349 -5.79747,-4.12121 -5.75424,-4.28363 0.0429,-0.16253 1.87776,0.55043 4.07717,1.58434 3.7727,1.7735 10.29236,4.18239 12.72709,4.7024 0.97678,0.20861 0.85672,-0.0846 -1.05339,-2.57137 -1.18571,-1.54375 -3.42931,-4.26556 -4.98564,-6.04847 z"
       id="path3040"
       inkscape:connector-curvature="0" />
    <path
       style="opacity:0.71193417;fill:#800080;fill-opacity:1;stroke:#d78b31;stroke-width:0.73400003;stroke-linecap:square;stroke-linejoin:round;stroke-miterlimit:4;stroke-opacity:0.80710659;stroke-dasharray:none;stroke-dashoffset:0"
       d="m 940.2579,343.96458 c 8.22755,14.24081 12.32405,26.78134 30.2023,41.50365 18.7136,15.41008 24.9697,19.75494 43.3235,27.70189 8.3621,3.62069 19.3799,5.11938 38.84,8.2039 15.388,2.43907 27.4227,4.51481 35.4016,6.6516 9.5917,2.56869 2.1059,0.1565 12.2479,3.62308 l 10.9213,3.73291 -2.8561,-2.1231 c -3.415,-2.53849 -7.1203,-5.97672 -10.3141,-9.57089 -2.2034,-2.47947 -2.6993,-3.43974 -8.4125,-16.28844 -5.5552,-12.49316 -6.6036,-18.34983 -9.435,-22.24299 -10.8558,-14.92672 -14.3247,-20.89452 -32.2766,-33.13556 -8.3841,-5.71687 -26.7759,-15.28667 -35.523,-17.57301 -17.8459,-4.66453 -24.1534,-7.76704 -40.8236,-9.47753 -4.725,-0.48485 -31.70304,-1.71536 -31.52473,-1.35914 0.0679,0.13584 1.28914,0.77301 2.71391,1.4162 3.28647,1.48345 7.25792,4.22881 9.73574,6.73045 1.93367,1.95204 4.83566,6.28853 4.13093,6.17275 -0.20658,-0.0339 -2.42427,-1.26776 -4.92821,-2.74183 -4.28707,-2.52379 -11.13378,-5.86657 -14.53794,-7.09782 -1.42671,-0.51606 -1.26052,-0.29393 2.61353,3.49274 2.27547,2.22412 6.3949,6.11664 9.15425,8.65004 2.75942,2.53342 4.91899,4.69868 4.79894,4.8116 -0.12012,0.1129 -1.93242,-0.92138 -4.02764,-2.29851 -3.59383,-2.36227 -10.08807,-5.94241 -12.67728,-6.98876 -1.03899,-0.41989 -1.02686,-0.16344 0.10557,2.24891 0.70293,1.4975 2.11912,4.17856 3.14716,5.9579 z"
       id="path3042"
       inkscape:connector-curvature="0"
       sodipodi:nodetypes="sssssscssssssscsssscsscssss" />
    <path
       sodipodi:nodetypes="sssssscssssssscsssscsscssss"
       inkscape:connector-curvature="0"
       id="path3044"
       d="m 905.31923,336.48137 c -8.78556,6.89097 -19.94836,10.54273 -18.83255,24.85979 1.1679,14.98588 2.56344,19.9632 12.636,34.37084 4.58895,6.56416 14.71097,15.08064 32.04366,30.14031 13.70595,11.90848 24.21563,21.22874 30.23609,27.43879 7.23727,7.46514 2.09646,1.62248 8.81427,9.54646 l 7.234,8.53282 -0.4633,-2.27794 c -0.554,-2.72368 -0.3031,-5.70649 0.6984,-8.30319 0.6905,-1.79165 1.3474,-2.2109 11.1348,-7.11592 9.5166,-4.76925 15.6709,-5.811 17.4392,-8.14166 6.7802,-8.93578 10.4389,-11.83976 6.1524,-26.11286 -2.0019,-6.66591 -10.0945,-21.16846 -16.7646,-27.97413 -13.6083,-13.88489 -16.6072,-18.85132 -32.61569,-31.71424 -4.5375,-3.64591 -32.36005,-24.40031 -32.60972,-24.2491 -0.0953,0.0576 0.43983,1.02073 1.18903,2.14024 1.72834,2.58232 2.62995,5.74137 2.21036,7.74439 -0.3274,1.56299 -2.57114,3.96576 -3.19385,3.4202 -0.18247,-0.15987 -1.0588,-1.91188 -1.94724,-3.89325 -1.52121,-3.3923 -4.80754,-8.78225 -6.97799,-11.44463 -0.90971,-1.1159 -1.00552,-0.97936 -1.50672,2.14715 -0.29442,1.83636 -0.6604,5.15554 -0.81343,7.37586 -0.15302,2.22034 -0.50023,3.96534 -0.77151,3.87777 -0.27135,-0.0876 -0.95502,-1.5204 -1.5194,-3.18407 -0.96812,-2.85381 -3.57521,-7.9828 -5.08935,-10.0124 -0.60747,-0.81427 -0.91373,-0.79462 -2.68626,0.17215 -1.10043,0.60011 -2.89881,1.79563 -3.9966,2.65662 z"
       style="opacity:0.71193417;fill:#800080;fill-opacity:1;stroke:#d78b31;stroke-width:0.73400003;stroke-linecap:square;stroke-linejoin:round;stroke-miterlimit:4;stroke-opacity:0.80710659;stroke-dasharray:none;stroke-dashoffset:0" />
    <path
       style="opacity:0.71193417;fill:#800080;fill-opacity:1;stroke:#d78b31;stroke-width:0.73400003;stroke-linecap:square;stroke-linejoin:round;stroke-miterlimit:4;stroke-opacity:0.80710659;stroke-dasharray:none;stroke-dashoffset:0"
       d="m 881.32183,315.94216 c -18.16323,-6.61991 -34.83116,-15.16357 -51.60508,-13.92867 -17.55755,1.29262 -22.29858,2.50159 -29.49249,10.67002 -3.27767,3.72156 -3.01907,11.77539 -3.17438,25.57899 -0.12276,10.91529 -0.4541,19.28996 -1.73769,24.11008 -1.54296,5.79429 0.23124,1.66443 -2.45053,7.06851 l -2.88751,5.8194 2.3595,-0.41765 c 2.82122,-0.49943 6.83909,-0.38262 11.18428,0.32505 2.99766,0.48819 4.23511,0.98534 20.98839,8.43207 16.28976,7.24075 24.25878,11.97616 29.09977,13.28414 18.56108,5.01501 26.16821,7.77099 39.45532,4.0836 6.20536,-1.72218 15.66149,-8.36078 16.99011,-13.69898 2.71073,-10.89104 5.70264,-13.3406 4.53217,-26.06243 -0.33176,-3.60593 -4.3772,-25.67485 -4.83746,-25.86422 -0.17533,-0.0721 -0.80594,0.36688 -1.40108,0.97573 -1.37275,1.40442 -4.36452,2.1841 -7.33439,1.91132 -2.31738,-0.21278 -7.76348,-1.88674 -7.75226,-2.38277 0,-0.14538 1.25533,-0.86897 2.78228,-1.60789 2.61415,-1.26521 5.82697,-3.94815 6.82175,-5.69683 0.41697,-0.73291 0.14174,-0.80354 -4.32744,-1.11029 -2.62496,-0.18012 -7.18989,-0.37733 -10.14405,-0.43809 -2.95429,-0.0608 -5.52175,-0.28423 -5.70533,-0.49645 -0.18372,-0.21229 0.87584,-0.77854 2.35458,-1.25841 2.5365,-0.8232 6.15673,-2.97374 7.067,-4.19813 0.36522,-0.49121 0.009,-0.72772 -3.12353,-2.07433 -1.94468,-0.83594 -5.39263,-2.19671 -7.66207,-3.02384 z"
       id="path3046"
       inkscape:connector-curvature="0"
       sodipodi:nodetypes="sssssscssssssscsssscsscssss" />
    <path
       sodipodi:nodetypes="sssssscssssssscsssscsscssss"
       inkscape:connector-curvature="0"
       id="path3048"
       d="m 942.48487,322.3642 c 18.21934,8.03983 34.50853,17.6891 52.61383,18.35274 18.9512,0.69464 24.2182,0.0909 33.3134,-6.65275 4.1439,-3.07244 5.2706,-10.5104 7.8402,-23.19415 2.0318,-10.02976 3.8435,-17.69962 6.0521,-21.99675 2.6548,-5.16559 0.043,-1.5562 3.8444,-6.24078 l 4.0931,-5.04448 -2.5893,0.13109 c -3.096,0.15677 -7.3609,-0.38181 -11.8721,-1.49917 -3.1121,-0.77083 -4.3453,-1.36099 -20.9166,-10.01022 -16.1129,-8.40992 -23.7877,-13.62201 -28.7232,-15.34493 -18.9229,-6.60577 -26.55632,-9.95777 -41.36983,-7.99074 -6.91826,0.9187 -18.15983,6.01211 -20.50651,10.78114 -4.78779,9.72979 -8.40532,11.66258 -9.3724,23.4933 -0.27412,3.35335 0.19723,24.09257 0.65506,24.31618 0.17465,0.0852 0.92344,-0.25111 1.66433,-0.74738 1.70873,-1.14487 5.03538,-1.54123 8.15531,-0.97164 2.43459,0.44446 7.9517,2.56903 7.85333,3.0242 -0.0298,0.13311 -1.49024,0.66479 -3.24739,1.1809 -3.00861,0.88353 -6.90233,3.00737 -8.26795,4.50954 -0.57228,0.62963 -0.2913,0.72399 4.42209,1.48586 2.76843,0.44747 7.60263,1.11866 10.74293,1.49159 3.14029,0.37293 5.83965,0.85397 5.9985,1.06891 0.15892,0.21497 -1.0696,0.62238 -2.73033,0.90524 -2.84865,0.48527 -7.08431,2.07549 -8.2685,3.10429 -0.47508,0.41277 -0.1364,0.66859 2.9703,2.24378 1.92847,0.97779 5.36886,2.59972 7.64523,3.60423 z"
       style="opacity:0.71193417;fill:#800080;fill-opacity:1;stroke:#d78b31;stroke-width:0.73400003;stroke-linecap:square;stroke-linejoin:round;stroke-miterlimit:4;stroke-opacity:0.80710659;stroke-dasharray:none;stroke-dashoffset:0" />
    <path
       sodipodi:nodetypes="sssssscssssssscsssscsscssss"
       inkscape:connector-curvature="0"
       id="path3050"
       d="m 959.31747,343.96049 c 17.31853,11.2231 31.82663,23.21417 51.94123,28.54236 21.0542,5.57704 27.2217,6.49363 40.132,3.54329 5.8821,-1.34415 10.0991,-6.95922 18.0196,-16.36273 6.2633,-7.43585 11.3431,-13.05369 15.5325,-15.88474 5.036,-3.4032 0.6657,-1.22587 6.801,-3.9427 l 6.6069,-2.92551 -2.9663,-0.58233 c -3.5467,-0.69623 -8.1333,-2.25521 -12.7677,-4.33977 -3.1971,-1.43803 -4.351,-2.2342 -19.5734,-13.50505 -14.8008,-10.9588 -21.3725,-17.13785 -26.2443,-19.81628 -18.6791,-10.26955 -25.9416,-14.95862 -43.3941,-17.32236 -8.1509,-1.10392 -22.8227,-0.0349 -27.3546,3.1348 -9.24605,6.46665 -14.084,7.04413 -19.86283,16.19426 -1.63793,2.59356 -9.32958,19.20814 -8.90292,19.50733 0.16266,0.11397 1.13888,0.0452 2.16948,-0.15296 2.37703,-0.45726 6.27831,0.10965 9.56408,1.38978 2.56393,0.99892 7.93113,4.15095 7.6399,4.48674 -0.0849,0.0987 -1.9408,0.13347 -4.12317,0.0779 -3.7364,-0.0952 -8.96083,0.56103 -11.09338,1.39336 -0.89372,0.34885 -0.61468,0.49856 4.388,2.35387 2.93843,1.08977 8.11339,2.90526 11.49996,4.0344 3.3865,1.12912 6.2339,2.22727 6.32763,2.44039 0.0936,0.21305 -1.45075,0.21116 -3.43208,-0.004 -3.39855,-0.36949 -8.79624,-0.22814 -10.53691,0.27586 -0.69829,0.20229 -0.41862,0.49545 2.45351,2.57158 1.78286,1.28875 5.01203,3.49055 7.1759,4.89281 z"
       style="opacity:0.71193417;fill:#ff8080;fill-opacity:1;stroke:#d78b31;stroke-width:0.73400003;stroke-linecap:square;stroke-linejoin:round;stroke-miterlimit:4;stroke-opacity:0.80710659;stroke-dasharray:none;stroke-dashoffset:0" />
    <path
       style="opacity:0.71193417;fill:#ff8080;fill-opacity:1;stroke:#d78b31;stroke-width:0.73400003;stroke-linecap:square;stroke-linejoin:round;stroke-miterlimit:4;stroke-opacity:0.80710659;stroke-dasharray:none;stroke-dashoffset:0"
       d="m 893.29064,335.32385 c -7.55434,7.81827 -10.97881,17.29816 -28.39691,17.65644 -18.23174,0.37505 -24.37676,-0.32674 -42.70105,-7.30611 -8.34865,-3.17984 -19.55094,-10.72368 -39.3097,-23.5994 -15.62431,-10.18152 -27.8335,-17.9719 -35.88116,-22.35721 -9.67401,-5.27153 -2.14904,-1.57505 -12.33188,-6.37977 l -10.9653,-5.17391 2.79676,0.1774 c 3.34411,0.21212 6.92991,-0.259 9.98195,-1.31135 2.10547,-0.726 2.55457,-1.30171 7.61745,-9.76501 4.92281,-8.22906 5.63558,-13.36906 8.29753,-15.02668 10.20632,-6.35539 13.39373,-9.61439 31.04058,-7.36836 8.24155,1.04899 26.50453,6.39599 35.33035,11.26105 18.00652,9.92573 24.28088,11.94345 41.26456,23.92852 4.81391,3.39708 32.39442,24.36933 32.2337,24.58762 -0.0616,0.083 -1.27389,-0.26999 -2.69472,-0.78488 -3.27739,-1.18772 -7.17901,-1.64621 -9.56463,-1.1239 -1.86155,0.40753 -4.56867,2.46138 -3.85334,2.92352 0.20969,0.13553 2.40695,0.69832 4.88276,1.25079 4.23886,0.94584 11.0512,3.1617 14.46486,4.70496 1.43073,0.6468 1.27417,0.73721 -2.46335,1.4267 -2.19524,0.40472 -6.17771,1.00019 -8.84992,1.32318 -2.67227,0.32293 -4.75232,0.76286 -4.62208,0.97766 0.13003,0.21468 1.92404,0.64802 3.98669,0.96292 3.53828,0.54016 9.97446,2.22207 12.5643,3.28336 1.03899,0.42576 1.04252,0.67872 0.0305,2.21847 -0.62811,0.95582 -1.91427,2.53713 -2.85814,3.51399 z"
       id="path3052"
       inkscape:connector-curvature="0"
       sodipodi:nodetypes="sssssscssssssscsssscsscssss" />
    <path
       sodipodi:nodetypes="sssssscssssssscsssscsscssss"
       inkscape:connector-curvature="0"
       id="path3054"
       d="m 932.77691,351.91226 c -0.3666,11.9249 -4.40754,21.05258 6.28066,37.46901 11.18739,17.18328 15.49864,22.45552 31.54473,35.11323 7.3107,5.76694 19.2596,11.45017 40.0542,21.74409 16.4434,8.13995 29.1844,14.60448 37.0932,19.3357 9.5073,5.68742 2.3758,1.01014 11.8973,7.46326 l 10.2532,6.94894 -1.8695,-2.48863 c -2.2354,-2.97559 -4.1764,-6.60439 -5.4033,-10.10141 -0.8463,-2.41248 -0.752,-3.1909 1.5978,-13.20428 2.285,-9.73614 5.1932,-13.62182 4.6061,-17.13574 -2.2512,-13.47288 -2.1225,-18.47937 -14.6541,-33.4754 -5.8526,-7.00353 -20.7947,-20.6278 -29.5049,-25.78167 -17.77,-10.51473 -23.0215,-15.08214 -41.4946,-23.35484 -5.236,-2.34477 -36.22031,-14.83276 -36.26208,-14.54653 -0.0152,0.10932 0.97497,1.01489 2.20204,2.01282 2.83043,2.30189 5.5762,5.64132 6.73115,8.18649 0.9012,1.98601 1.25803,5.79036 0.50778,5.41521 -0.21987,-0.11002 -1.96504,-1.79959 -3.87821,-3.7547 -3.27531,-3.34731 -8.99339,-8.29054 -12.14137,-10.49616 -1.31934,-0.92439 -1.28034,-0.72195 0.61329,3.18449 1.11234,2.29449 3.22086,6.36994 4.68567,9.05657 1.46482,2.68664 2.48191,4.89605 2.26009,4.90974 -0.22161,0.0138 -1.62955,-1.38229 -3.12838,-3.10223 -2.57134,-2.95051 -7.70508,-7.87888 -10.02177,-9.62085 -0.92939,-0.69888 -1.09669,-0.54354 -1.46738,1.36253 -0.23006,1.18324 -0.4559,3.37035 -0.50162,4.86036 z"
       style="opacity:0.71193417;fill:#ff5555;fill-opacity:1;stroke:#d78b31;stroke-width:0.73400003;stroke-linecap:square;stroke-linejoin:round;stroke-miterlimit:4;stroke-opacity:0.80710659;stroke-dasharray:none;stroke-dashoffset:0" />
    <path
       style="opacity:0.71193417;fill:#ff8080;fill-opacity:1;stroke:#d78b31;stroke-width:0.73400003;stroke-linecap:square;stroke-linejoin:round;stroke-miterlimit:4;stroke-opacity:0.80710659;stroke-dasharray:none;stroke-dashoffset:0"
       d="m 901.8719,284.48412 c -2.09901,-12.88386 -0.30209,-23.21779 -13.32229,-39.54855 -13.62836,-17.09361 -18.60533,-22.22805 -35.70893,-33.83944 -7.79259,-5.29024 -19.76604,-9.90786 -40.68578,-18.37814 -16.54226,-6.69786 -29.39211,-12.05714 -37.51479,-16.15722 -9.76435,-4.92874 -2.35618,-0.78906 -12.2897,-6.54038 l -10.69665,-6.1932 2.19941,2.44434 c 2.62974,2.92265 5.12626,6.58545 6.94951,10.19612 1.25782,2.49086 1.33118,3.34075 1.24535,14.41574 -0.0835,10.76848 -1.92369,15.31686 -0.67605,19.02605 4.78384,14.22148 5.68773,19.62736 20.08705,34.19752 6.72485,6.80465 23.02625,19.59523 31.96034,24.04969 18.22724,9.08788 23.91144,13.34537 42.31789,19.93127 5.21716,1.86672 35.80703,11.41929 35.78639,11.10585 -0.008,-0.11962 -1.08935,-0.97012 -2.40335,-1.89035 -3.03112,-2.12265 -6.19698,-5.37282 -7.7612,-7.96779 -1.22055,-2.02488 -2.31891,-6.07564 -1.5634,-5.76595 0.22148,0.0908 2.14545,1.69053 4.27551,3.55499 3.64697,3.19224 9.83002,7.79572 13.12889,9.77484 1.38258,0.82947 1.30596,0.61634 -1.20435,-3.35131 -1.47437,-2.33035 -4.21357,-6.453 -6.08696,-9.16131 -1.87347,-2.70831 -3.24449,-4.95916 -3.0465,-5.00176 0.19792,-0.0426 1.75674,1.28348 3.46394,2.94683 2.92874,2.85341 8.58003,7.51436 11.03188,9.0987 0.98368,0.63562 1.10346,0.44737 1.0504,-1.65115 -0.0333,-1.3027 -0.2744,-3.68564 -0.53661,-5.29541 z"
       id="path3056"
       inkscape:connector-curvature="0"
       sodipodi:nodetypes="sssssscssssssscsssscsscssss" />
    <path
       sodipodi:nodetypes="sssssscssssssscsssscsscssss"
       inkscape:connector-curvature="0"
       id="path3058"
       d="m 938.47587,310.01599 c 15.39591,0.007 31.24603,2.92582 40.33903,-5.73972 9.518,-9.07023 11.4883,-12.53431 10.0605,-25.26477 -0.6505,-5.80013 -6.4211,-15.19284 -15.9562,-31.54851 -7.54,-12.93323 -13.18428,-22.95811 -15.78423,-29.1976 -3.12534,-7.5005 -1.29814,-1.8648 -3.4758,-9.39427 l -2.34509,-8.10795 -1.10895,1.50682 c -1.32592,1.80166 -3.79175,3.39042 -6.86402,4.4226 -2.11939,0.71212 -3.2005,0.65717 -18.33628,-0.93092 -14.71694,-1.5442 -22.74887,-3.70768 -26.53403,-3.17085 -14.51265,2.05826 -20.94918,2.07504 -26.26255,12.13617 -2.48143,4.69886 -3.46305,16.59625 -0.52836,23.46656 5.98728,14.01675 5.92015,18.19302 15.48762,32.70238 2.71183,4.11256 20.50436,28.41642 20.90954,28.44208 0.15428,0.009 0.22272,-0.77907 0.15095,-1.75348 -0.1648,-2.24715 1.06677,-4.45293 3.01948,-5.40724 1.5237,-0.74473 5.92314,-1.10977 6.26245,-0.51962 0.0994,0.173 -0.1389,1.56489 -0.52968,3.09302 -0.66926,2.61625 -0.70439,7.16299 -0.0752,9.654 0.26373,1.04403 0.47633,1.00911 3.34244,-0.54945 1.68351,-0.9154 4.52994,-2.64444 6.32562,-3.84216 1.79553,-1.19781 3.47496,-2.03747 3.73197,-1.86592 0.25694,0.17151 0.0229,1.29508 -0.5197,2.49676 -0.93106,2.06148 -1.57954,6.15494 -1.26586,7.99088 0.1258,0.7366 0.50217,0.86266 3.30032,1.10552 1.73707,0.15078 4.73237,0.2749 6.65599,0.27567 z"
       style="opacity:0.71193417;fill:#ff8080;fill-opacity:1;stroke:#d78b31;stroke-width:0.73400003;stroke-linecap:square;stroke-linejoin:round;stroke-miterlimit:4;stroke-opacity:0.80710659;stroke-dasharray:none;stroke-dashoffset:0" />
    <path
       sodipodi:nodetypes="sssssscssssssscsssscsscssss"
       inkscape:connector-curvature="0"
       id="path3060"
       d="m 886.37653,324.90665 c -14.78358,0.85075 -30.2665,-1.29131 -38.21419,8.19453 -8.31907,9.92891 -9.89777,13.62815 -7.37596,26.74019 1.14899,5.97397 7.5389,15.38551 18.17299,31.80243 8.40885,12.98165 14.73475,23.05528 17.79517,29.37596 3.67912,7.59813 1.41508,1.86002 4.18676,9.54091 l 2.98471,8.27103 0.92862,-1.62312 c 1.1102,-1.9408 3.33427,-3.72446 6.19089,-4.96514 1.97065,-0.85593 3.01366,-0.85926 17.69034,-0.0567 14.27074,0.78043 22.17846,2.57491 25.76433,1.8078 13.74876,-2.94123 19.92745,-3.31716 24.11982,-14.03865 1.95784,-5.00725 1.82484,-17.39023 -1.61403,-24.34591 -7.01602,-14.19094 -7.32921,-18.52227 -17.82739,-33.02421 -2.97562,-4.11051 -22.25695,-28.30359 -22.64821,-28.3076 -0.14922,-10e-4 -0.14312,0.81989 0.0138,1.8254 0.36148,2.31938 -0.62181,4.67359 -2.41041,5.77129 -1.39568,0.85658 -5.58701,1.47985 -5.96615,0.8872 -0.11105,-0.17369 -0.008,-1.62927 0.22895,-3.23455 0.40588,-2.7484 0.0291,-7.46165 -0.80054,-10.00785 -0.34762,-1.06716 -0.54852,-1.01911 -3.15969,0.75556 -1.53368,1.04234 -4.11055,2.9925 -5.72638,4.33368 -1.61584,1.34116 -3.15242,2.30478 -3.41469,2.14136 -0.26235,-0.16344 -0.13932,-1.34069 0.27322,-2.6162 0.7075,-2.18804 0.96028,-6.46573 0.49309,-8.35077 -0.18739,-0.75628 -0.56008,-0.8659 -3.26894,-0.96178 -1.68157,-0.0595 -4.56867,-0.0212 -6.41581,0.0851 z"
       style="opacity:0.71193417;fill:#ff8080;fill-opacity:1;stroke:#d78b31;stroke-width:0.73400003;stroke-linecap:square;stroke-linejoin:round;stroke-miterlimit:4;stroke-opacity:0.80710659;stroke-dasharray:none;stroke-dashoffset:0" />
    <path
       transform="matrix(0.1850049,0.10774342,-0.07178628,0.20042091,595.50368,-65.12545)"
       sodipodi:open="true"
       sodipodi:end="10.957862"
       sodipodi:start="4.7478949"
       d="m 2043.7527,775.24543 a 105.71429,41.42857 0 1 1 -7.7385,0.003"
       sodipodi:ry="41.42857"
       sodipodi:rx="105.71429"
       sodipodi:cy="816.64789"
       sodipodi:cx="2040"
       id="path3062"
       style="opacity:0.71193417;color:#000000;fill:#800080;fill-opacity:1;fill-rule:nonzero;stroke:#d78b31;stroke-width:3.46580243;stroke-linecap:square;stroke-linejoin:round;stroke-miterlimit:4;stroke-opacity:0.80710659;stroke-dasharray:none;stroke-dashoffset:0;marker:none;visibility:visible;display:inline;overflow:visible;enable-background:accumulate"
       sodipodi:type="arc" />
    <path
       style="opacity:0.71193417;fill:#800080;fill-opacity:1;stroke:#d78b31;stroke-width:0.73399997;stroke-linecap:square;stroke-linejoin:round;stroke-miterlimit:4;stroke-opacity:0.80710659;stroke-dasharray:none;stroke-dashoffset:0"
       d="m 677.59003,726.31347 c 0.53339,-0.90938 12.96177,-24.44253 27.61869,-52.2962 22.17515,-42.14111 30.09129,-59.46186 45.69133,-88.61534 26.09692,-48.77008 52.06551,-97.80971 80.11093,-144.31338 21.56968,-35.76579 32.17067,-50.75692 67.6551,-103.35556 5.79208,-8.5856 10.55586,-15.32531 10.58611,-14.97717 0.0303,0.34816 -5.34498,9.1056 -11.94498,19.46097 -30.92342,48.51879 -57.93106,95.60985 -85.13831,145.44531 -17.18776,31.48275 -32.95439,64.45932 -49.258,96.86041 -13.55541,26.93946 -30.51731,60.99462 -40.37616,81.10059 -21.82127,44.50192 -20.18902,40.4617 -20.93517,41.16356 -1.86597,1.75538 -24.08218,21.48968 -24.57866,21.3183 -0.22034,-0.076 0.0358,-0.88224 0.56912,-1.79149 z"
       id="path3068"
       inkscape:connector-curvature="0"
       sodipodi:nodetypes="csaasssaasccc" />
    <path
       style="opacity:0.71193417;fill:#800080;fill-opacity:1;stroke:#d78b31;stroke-width:0.73400009;stroke-linecap:square;stroke-linejoin:round;stroke-miterlimit:4;stroke-opacity:0.80710659;stroke-dasharray:none;stroke-dashoffset:0"
       d="m 528.10881,502.24405 c -33.12281,-10.49727 -40.99565,-16.39494 -79.87204,-38.18201 -13.9493,-7.81745 -22.27869,-18.00078 -32.27032,-27.09622 -5.78925,-5.26997 -16.01812,-15.90219 -16.01812,-15.90219 l -7.06158,-9.59152 39.20951,23.00862 11.01426,10.59083 c 19.59297,18.83973 16.46152,14.94336 52.17332,31.56002 15.73896,7.32334 64.07901,23.20056 85.56295,28.10303 45.11429,10.29478 91.98884,16.03591 136.8733,16.76404 34.00622,0.55166 54.51994,-0.7147 134.06568,-8.27627 50.3357,-4.78489 78.92851,-5.98033 116.71022,-4.87961 58.26121,1.69738 115.51661,8.89841 169.51781,21.32032 21.8846,5.03412 76.7111,23.07589 96.0029,31.59168 46.8302,20.67183 87.4015,45.15039 121.1837,73.11563 11.295,9.35009 31.2849,28.8786 30.1015,29.40655 -0.8541,0.38097 -33.1217,-5.37486 -37.0202,-5.34025 -1.1617,0.0103 -22.1809,-24.72938 -27.8293,-28.31215 -25.1237,-15.93569 -17.4956,-15.8935 -43.8824,-29.77123 -89.2181,-46.92283 -108.499,-56.2209 -195.5848,-72.81411 -30.1506,-5.74485 -90.79578,-10.13891 -151.60263,-7.82516 -52.45222,1.99583 -65.99971,7.15286 -122.13248,10.59161 -42.89456,2.62775 -69.09459,5.96827 -144.91601,-0.88324 -24.84097,-2.24472 -94.69047,-14.64903 -134.22527,-27.17837 z"
       id="path3078"
       inkscape:connector-curvature="0"
       sodipodi:nodetypes="asacccsssssssssssssssssa" />
  </g>
</svg>
