<?xml version="1.0" encoding="UTF-8" standalone="no"?>
<!-- Created with Inkscape (http://www.inkscape.org/) -->

<svg
   xmlns:dc="http://purl.org/dc/elements/1.1/"
   xmlns:cc="http://creativecommons.org/ns#"
   xmlns:rdf="http://www.w3.org/1999/02/22-rdf-syntax-ns#"
   xmlns:svg="http://www.w3.org/2000/svg"
   xmlns="http://www.w3.org/2000/svg"
   xmlns:xlink="http://www.w3.org/1999/xlink"
   xmlns:sodipodi="http://sodipodi.sourceforge.net/DTD/sodipodi-0.dtd"
   xmlns:inkscape="http://www.inkscape.org/namespaces/inkscape"
   width="744.09448819"
   height="1052.3622047"
   id="svg2"
   version="1.1"
   inkscape:version="0.48.4 r9939"
   sodipodi:docname="peacock.svg">
  <defs
     id="defs4">
    <linearGradient
       inkscape:collect="always"
       id="linearGradient3266">
      <stop
         style="stop-color:#000000;stop-opacity:1;"
         offset="0"
         id="stop3268" />
      <stop
         id="stop3274"
         offset="0.10455348"
         style="stop-color:#000000;stop-opacity:0.89411765;" />
      <stop
         style="stop-color:#000000;stop-opacity:0;"
         offset="1"
         id="stop3270" />
    </linearGradient>
    <inkscape:path-effect
       effect="spiro"
       id="path-effect3188"
       is_visible="true" />
    <inkscape:path-effect
       effect="spiro"
       id="path-effect3184"
       is_visible="true" />
    <linearGradient
       inkscape:collect="always"
       id="linearGradient3166">
      <stop
         style="stop-color:#00ffff;stop-opacity:1;"
         offset="0"
         id="stop3168" />
      <stop
         style="stop-color:#00ffff;stop-opacity:0;"
         offset="1"
         id="stop3170" />
    </linearGradient>
    <inkscape:path-effect
       is_visible="true"
       id="path-effect3154"
       effect="spiro" />
    <inkscape:path-effect
       effect="spiro"
       id="path-effect3150"
       is_visible="true" />
    <inkscape:path-effect
       effect="spiro"
       id="path-effect3144"
       is_visible="true" />
    <inkscape:path-effect
       is_visible="true"
       id="path-effect3124"
       effect="spiro" />
    <inkscape:path-effect
       effect="spiro"
       id="path-effect3120"
       is_visible="true" />
    <linearGradient
       inkscape:collect="always"
       id="linearGradient3106">
      <stop
         style="stop-color:#ff00ff;stop-opacity:1;"
         offset="0"
         id="stop3108" />
      <stop
         style="stop-color:#ff00ff;stop-opacity:0;"
         offset="1"
         id="stop3110" />
    </linearGradient>
    <inkscape:path-effect
       effect="spiro"
       id="path-effect3096"
       is_visible="true" />
    <inkscape:path-effect
       is_visible="true"
       id="path-effect3092"
       effect="spiro" />
    <inkscape:path-effect
       effect="spiro"
       id="path-effect3086"
       is_visible="true" />
    <inkscape:path-effect
       is_visible="true"
       id="path-effect3082"
       effect="spiro" />
    <inkscape:path-effect
       effect="spiro"
       id="path-effect3078"
       is_visible="true" />
    <inkscape:path-effect
       is_visible="true"
       id="path-effect3074"
       effect="spiro" />
    <inkscape:path-effect
       is_visible="true"
       id="path-effect3052"
       effect="spiro" />
    <inkscape:path-effect
       effect="spiro"
       id="path-effect3048"
       is_visible="true" />
    <inkscape:path-effect
       is_visible="true"
       id="path-effect3028"
       effect="spiro" />
    <inkscape:path-effect
       effect="spiro"
       id="path-effect3024"
       is_visible="true" />
    <inkscape:path-effect
       is_visible="true"
       id="path-effect2991"
       effect="spiro" />
    <inkscape:path-effect
       effect="spiro"
       id="path-effect2987"
       is_visible="true" />
    <radialGradient
       inkscape:collect="always"
       xlink:href="#linearGradient3106"
       id="radialGradient3112"
       cx="1835.8619"
       cy="176.00922"
       fx="1835.8619"
       fy="176.00922"
       r="84.528145"
       gradientTransform="matrix(2.0151584,0.22616511,-0.19392251,1.727873,-311.5963,-325.16282)"
       gradientUnits="userSpaceOnUse" />
    <radialGradient
       inkscape:collect="always"
       xlink:href="#linearGradient3166"
       id="radialGradient3172"
       cx="1307.0527"
       cy="423.24799"
       fx="1307.0527"
       fy="423.24799"
       r="422.6883"
       gradientTransform="matrix(2.2594529,0.22586776,-0.17015917,1.7021758,-556.5109,-653.84923)"
       gradientUnits="userSpaceOnUse" />
    <radialGradient
       inkscape:collect="always"
       xlink:href="#linearGradient3266"
       id="radialGradient3272"
       cx="459.32962"
       cy="618.23907"
       fx="459.32962"
       fy="618.23907"
       r="147.02148"
       gradientTransform="matrix(2.3381386,-0.00141899,9.5360763e-4,0.12431263,-1418.2304,381.41126)"
       gradientUnits="userSpaceOnUse" />
    <radialGradient
       inkscape:collect="always"
       xlink:href="#linearGradient3266"
       id="radialGradient3276"
       gradientUnits="userSpaceOnUse"
       gradientTransform="matrix(2.3381386,-0.00141899,9.5360763e-4,0.12431263,-1418.2304,381.41126)"
       cx="459.32962"
       cy="618.23907"
       fx="459.32962"
       fy="618.23907"
       r="147.02148" />
    <radialGradient
       inkscape:collect="always"
       xlink:href="#linearGradient3266"
       id="radialGradient3278"
       gradientUnits="userSpaceOnUse"
       gradientTransform="matrix(2.3381386,-0.00141899,9.5360763e-4,0.12431263,-1418.2304,381.41126)"
       cx="459.32962"
       cy="618.23907"
       fx="459.32962"
       fy="618.23907"
       r="147.02148" />
    <radialGradient
       inkscape:collect="always"
       xlink:href="#linearGradient3266"
       id="radialGradient3280"
       gradientUnits="userSpaceOnUse"
       gradientTransform="matrix(2.3381386,-0.00141899,9.5360763e-4,0.12431263,-1418.2304,381.41126)"
       cx="459.32962"
       cy="618.23907"
       fx="459.32962"
       fy="618.23907"
       r="147.02148" />
  </defs>
  <sodipodi:namedview
     id="base"
     pagecolor="#ffffff"
     bordercolor="#666666"
     borderopacity="1.0"
     inkscape:pageopacity="0.0"
     inkscape:pageshadow="2"
     inkscape:zoom="0.24748737"
     inkscape:cx="2211.7642"
     inkscape:cy="766.48846"
     inkscape:document-units="px"
     inkscape:current-layer="layer1"
     showgrid="false"
     inkscape:window-width="1366"
     inkscape:window-height="744"
     inkscape:window-x="0"
     inkscape:window-y="24"
     inkscape:window-maximized="1" />
  <metadata
     id="metadata7">
    <rdf:RDF>
      <cc:Work
         rdf:about="">
        <dc:format>image/svg+xml</dc:format>
        <dc:type
           rdf:resource="http://purl.org/dc/dcmitype/StillImage" />
        <dc:title></dc:title>
      </cc:Work>
    </rdf:RDF>
  </metadata>
  <g
     inkscape:label="Layer 1"
     inkscape:groupmode="layer"
     id="layer1">
    <path
       style="opacity:0.71193417;fill:#000080;fill-opacity:1;stroke:#d78b31;stroke-width:0.73400003;stroke-linecap:square;stroke-linejoin:round;stroke-miterlimit:4;stroke-opacity:0.80710659;stroke-dasharray:none;stroke-dashoffset:0"
       d="m 2896.3282,694.05512 c 1.0449,-2.723 5.3127,-16.2133 9.484,-29.9784 52.9764,-174.82233 173.8659,-357.43997 314.1096,-474.49918 73.2617,-61.15039 142.302,-96.641418 224.221,-115.263628 35.7015,-8.11583 108.0862,-8.789926 148.0793,-1.37902 94.2766,17.46991 186.2543,71.044498 233.6828,136.114198 17.9368,24.60838 28.567,45.03383 38.6924,74.34536 8.8657,25.66505 9.3606,29.25257 9.4506,68.51179 0.09,39.25763 -0.3709,42.73023 -8.7952,66.26832 -31.3305,87.54023 -110.4837,149.39274 -221.9422,173.43185 -65.63,14.15491 -127.1159,14.47231 -276.3105,1.42646 -110.6533,-9.67577 -195.3422,-8.74854 -251.56,2.75425 -75.7716,15.5037 -154.827,51.059 -209.7258,94.3245 -7.6962,6.0654 -10.6815,7.3197 -9.386,3.9435 l 0,0 z m 111.5181,-104.17868 c 42.7798,-29.08185 94.2633,-50.0144 149.9104,-60.95171 23.969,-4.71106 41.2863,-6.01886 79.2433,-5.98446 45.9266,0.0417 66.5298,1.83643 187.1428,16.30246 52.4034,6.28511 127.9207,6.32128 162.4329,0.0777 69.3573,-12.5472 122.1848,-40.70788 158.6234,-84.55714 14.4383,-17.37471 32.0613,-54.57817 36.2963,-76.62429 4.5314,-23.58917 1.8359,-62.4023 -5.9887,-86.23285 -33.0232,-100.57518 -148.6993,-171.4285 -279.8767,-171.4285 -60.9556,0 -110.6407,11.93455 -166.4782,39.9887 -55.8376,28.0542 -104.7346,65.57916 -160.9978,123.5544 -83.4726,86.01254 -142.7276,182.74288 -181.494,296.2786 -4.5273,13.25905 -8.2315,25.22777 -8.2315,26.59717 0,2.9276 0.4996,2.6385 29.4178,-17.02009 z"
       id="path3088"
       inkscape:connector-curvature="0" />
    <path
       style="opacity:0.71193417;fill:#000080;fill-opacity:1;stroke:#d78b31;stroke-width:0.73400003;stroke-linecap:square;stroke-linejoin:round;stroke-miterlimit:4;stroke-opacity:0.80710659;stroke-dasharray:none;stroke-dashoffset:0"
       d="m 3007.0001,547.5343 c 0,-0.82976 3.6764,-10.43332 8.1698,-21.34124 37.9632,-92.15794 120.5801,-181.30444 202.8819,-218.91674 46.4281,-21.21779 66.103,-25.42115 117.6355,-25.13162 41.4052,0.23264 49.6142,1.21646 72.3046,8.66552 32.1027,10.53901 53.9666,23.27266 74.6439,43.47311 20.5627,20.08845 30.1057,39.90805 32.2205,66.91717 1.5092,19.27527 0.5956,23.41447 -9.1693,41.54013 -25.7538,47.80471 -85.8845,74.92952 -164.8099,74.34544 l -31.1388,-0.23046 24.2809,-4.03203 c 42.7671,-7.10179 74.375,-27.02498 87.1294,-54.91968 2.7603,-6.03705 5.0751,-19.89261 5.1439,-30.79011 0.3278,-51.92113 -49.4274,-97.84679 -118.1677,-109.07257 -21.1945,-3.4612 -28.2238,-3.30252 -50.6425,1.14322 -26.3522,5.22577 -76.1605,26.25022 -104.9574,44.30337 -19.5638,12.26476 -51.718,42.59096 -71.0309,66.99271 -23.8637,30.15178 -56.7966,93.26911 -48.6651,93.26911 0.8854,0 8.8959,-4.22242 17.801,-9.38317 28.8855,-16.73978 47.0757,-20.72505 91.3049,-20.00382 23.3215,0.3803 51.9596,3.08775 69.1973,6.5419 l 29.4088,5.89306 -53.6279,-1.31408 c -40.3618,-0.989 -60.0171,-0.0724 -79.4564,3.70529 -25.6915,4.99272 -83.3416,27.69555 -90.5873,35.67361 -3.6825,4.05465 -9.8692,5.72959 -9.8692,2.67188 z"
       id="path3100"
       inkscape:connector-curvature="0" />
    <path
       style="opacity:0.71193417;fill:#000080;fill-opacity:1;stroke:#d78b31;stroke-width:0.73400003;stroke-linecap:square;stroke-linejoin:round;stroke-miterlimit:4;stroke-opacity:0.80710659;stroke-dasharray:none;stroke-dashoffset:0"
       d="m 3063.8369,478.84038 c 15.9288,-29.65722 38.3975,-58.82379 64.1883,-83.32251 40.1727,-38.16009 60.5089,-48.0542 94.2394,-45.84986 47.5534,3.10769 85.8553,36.62211 85.8225,75.09537 -0.021,24.28843 -13.0537,41.83121 -41.0872,55.30459 -15.1997,7.30526 -17.0707,7.51541 -57.1428,6.41808 -109.1231,-2.98823 -114.7647,-2.51613 -152.6638,12.77521 -4.4553,1.79761 -3.173,-2.14378 6.6436,-20.42088 z"
       id="path3102"
       inkscape:connector-curvature="0" />
    <path
       style="opacity:0.71193417;fill:url(#radialGradient3112);fill-opacity:1;stroke:#d78b31;stroke-width:0.73400003;stroke-linecap:square;stroke-linejoin:round;stroke-miterlimit:4;stroke-opacity:0.80710659;stroke-dasharray:none;stroke-dashoffset:0"
       d="m 3271.2857,495.35686 -25.7143,-4.80384 26.1121,-1.69041 c 41.9862,-2.71804 68.3384,-19.41318 78.121,-49.49256 7.4457,-22.89396 -2.7559,-54.44124 -23.1558,-71.60665 -20.5636,-17.3031 -59.0056,-29.34715 -80.5343,-25.23169 -14.9899,2.8655 -7.3912,-1.97907 12.654,-8.06762 67.5119,-20.5061 142.5414,22.52286 147.5247,84.60454 4.6921,58.45377 -53.738,91.47067 -135.0074,76.28823 z"
       id="path3104"
       inkscape:connector-curvature="0" />
    <path
       style="opacity:0.71193417;fill:#000080;fill-opacity:1;stroke:#d78b31;stroke-width:0.73400003;stroke-linecap:square;stroke-linejoin:round;stroke-miterlimit:4;stroke-opacity:0.80710659;stroke-dasharray:none;stroke-dashoffset:0"
       d="m 2494.3913,901.12394 c -122.7818,-11.638 -223.2823,-88.81236 -263.7208,-202.51118 -37.4216,-105.21689 -14.4954,-235.86946 65.834,-375.17447 28.0219,-48.59502 56.5599,-88.75784 105.671,-148.71618 62.6362,-76.47052 75.8817,-94.01847 86.5529,-114.667244 14.8713,-28.775868 20.0771,-50.092429 19.8549,-81.300703 -0.3569,-50.124654 -16.3867,-85.730423 -53.3693,-118.544753 -36.269,-32.18126 -72.6126,-43.96808 -125.5955,-40.73257 -36.3745,2.22133 -56.7079,8.16141 -90.3552,26.39599 -31.9349,17.30654 -53.5287,34.78899 -83.9518,67.967463 -30.4344,33.190725 -61.1628,75.272801 -85.6925,117.354424 -9.3686,16.072191 -17.5835,28.734483 -18.2552,28.138436 -2.0267,-1.798301 6.8396,-47.92836 13.6975,-71.265802 25.3455,-86.251172 83.9813,-165.550031 151.3804,-204.726411 39.9291,-23.2092 91.5927,-35.71683 136.3799,-33.01725 93.6241,5.64327 173.984,59.05107 204.3103,135.78631 8.8158,22.306916 9.9659,28.294555 11.6072,60.429402 1.5296,29.950388 0.8311,39.858324 -4.3576,61.798242 -11.7941,49.870141 -40.2836,108.007266 -80.9139,165.117136 -9.3573,13.15263 -32.0409,45.06393 -50.4078,70.914 -71.3261,100.38577 -104.1142,162.37703 -122.9713,232.49751 -15.6235,58.09636 -17.7422,113.89753 -6.1691,162.47988 36.352,152.60149 176.7435,219.82438 334.6761,160.25121 66.3496,-25.02747 118.7778,-61.03889 171.6031,-117.86906 48.8564,-52.56056 87.3021,-116.87684 107.1476,-179.24855 7.6201,-23.94885 7.5881,-15.27268 -0.085,23.07014 -35.4542,177.16906 -161.6021,323.45332 -314.738,364.97811 -26.864,7.28449 -84,12.88331 -108.1321,10.59592 l 0,0 z"
       id="path3146"
       inkscape:connector-curvature="0" />
    <path
       inkscape:connector-curvature="0"
       id="path3164"
       d="m 2491.7384,926.85464 c -122.6656,-12.80552 -222.4273,-90.93245 -261.7824,-205.01083 -36.4189,-105.56812 -12.2508,-235.99668 69.4001,-374.5312 28.483,-48.32625 57.4017,-88.21576 107.081,-147.7042 63.3609,-75.8712 76.7727,-93.29234 87.6399,-113.838666 15.1443,-28.633074 20.5527,-49.899148 20.6274,-81.1081207 0.1199,-50.1257843 -15.5705,-85.8824373 -52.2391,-119.0471133 -35.9613,-32.52482 -72.1912,-44.65686 -125.2024,-41.92553 -36.394,1.87519 -56.783,7.62157 -90.6023,25.53525 -32.098,17.00196 -53.8571,34.278189 -84.5945,67.165746 -30.7488,32.899699 -61.8761,74.687551 -86.8051,116.533918 -9.5211,15.98233 -17.8561,28.5659 -18.5221,27.9635 -2.0095,-1.8175 7.2953,-47.861128 14.3749,-71.1322727 26.1649,-86.0061643 85.5525,-164.7436413 153.3212,-203.2770713 40.1481,-22.8283 91.9283,-34.84388 136.6878,-31.71836 93.5662,6.53367 173.4143,60.70352 203.0093,137.723808 8.6032,22.389772 9.6963,28.388081 11.0318,60.53709 1.2446,29.9635853 0.4519,39.864421 -4.9453,61.753985 -12.268,49.755671 -41.3092,107.619137 -82.481,164.339897 -9.482,13.06302 -32.4681,44.75709 -51.0802,70.43127 -72.2778,99.7027 -105.6541,161.37923 -125.1774,231.31715 -16.1755,57.9451 -18.8249,113.72359 -7.7145,162.41384 34.8986,152.94041 174.6443,221.49581 333.1364,163.42776 66.5847,-24.39513 119.3532,-59.90617 172.7167,-116.23125 49.3542,-52.0934 88.41,-116.04103 108.8479,-178.22113 7.8476,-23.87527 7.7331,-15.1998 -0.3042,23.06829 -37.1381,176.82376 -164.6719,321.90135 -318.1958,361.96746 -26.9321,7.02861 -84.1189,12.08361 -108.2281,9.56678 l 0,0 z"
       style="opacity:0.71193417;fill:url(#radialGradient3172);fill-opacity:1;stroke:#d78b31;stroke-width:0.73400003;stroke-linecap:square;stroke-linejoin:round;stroke-miterlimit:4;stroke-opacity:0.80710659;stroke-dasharray:none;stroke-dashoffset:0" />
    <path
       style="opacity:0.71193417;fill:#00ffff;fill-opacity:1;stroke:#d78b31;stroke-width:0.73400003;stroke-linecap:square;stroke-linejoin:round;stroke-miterlimit:4;stroke-opacity:0.80710659;stroke-dasharray:none;stroke-dashoffset:0"
       d="m 1919.7892,320.46534 c 2.449,-26.73567 8.9003,-51.80949 19.9265,-77.44713 18.1509,-42.2038 45.6306,-73.91658 83.0762,-95.87383 13.4231,-7.87094 13.8426,-7.97952 30.4239,-7.87584 24.8454,0.15535 44.8021,9.04858 63.9184,28.48364 11.9582,12.15765 17.1279,20.26893 24.5349,38.49551 7.4199,18.25796 11.9975,45.59905 10.1244,60.47054 -1.0296,8.17409 -1.4905,8.95872 -4.625,7.87323 -13.5125,-4.67941 -33.796,-8.93902 -51.72,-10.86136 -56.0161,-6.00768 -117.0979,13.98744 -163.3485,53.47209 l -13.0309,11.12461 0.7201,-7.86146 z"
       id="path3192"
       inkscape:connector-curvature="0" />
    <path
       inkscape:connector-curvature="0"
       id="path3194"
       d="m 1914.1193,305.11048 c 2.599,-30.37172 9.4454,-58.85559 21.1473,-87.97994 19.2631,-47.94353 48.4266,-83.96926 88.1668,-108.91269 14.2455,-8.941384 14.6907,-9.064734 32.2881,-8.946954 26.3677,0.17649 47.5474,10.279194 67.8349,32.357414 12.6909,13.8111 18.1774,23.02553 26.0384,43.73091 7.8744,20.74105 12.7325,51.80052 10.7446,68.69454 -1.0926,9.28576 -1.5818,10.17711 -4.9084,8.94399 -14.3403,-5.3158 -35.8668,-10.15473 -54.889,-12.3385 -59.4484,-6.82473 -124.2731,15.88974 -173.3577,60.7443 l -13.8293,12.63755 0.7643,-8.93062 z"
       style="opacity:0.71193417;fill:#000080;fill-opacity:1;stroke:#d78b31;stroke-width:0.73399997;stroke-linecap:square;stroke-linejoin:round;stroke-miterlimit:4;stroke-opacity:0.80710659;stroke-dasharray:none;stroke-dashoffset:0" />
    <path
       inkscape:connector-curvature="0"
       id="path3196"
       d="m 2822.0386,784.13307 c 2.286,-1.24604 12.988,-7.93868 23.782,-14.87258 137.0889,-88.06335 325.2437,-142.57926 488.8866,-141.64986 85.4851,0.4855 153.2865,15.92827 220.1976,50.15318 29.1607,14.91569 79.1889,55.84028 102.3439,83.72054 54.5838,65.72265 86.7822,154.57278 81.8046,225.73678 -1.8824,26.91317 -6.3648,46.81757 -16.3148,72.44897 -8.712,22.4428 -10.4405,25.1544 -33.0057,51.7831 -22.5645,26.6275 -24.8819,28.715 -44.2253,39.8334 -71.9395,41.3508 -161.8696,37.9726 -252.1601,-9.4724 -53.1657,-27.937 -95.5141,-62.8725 -190.3092,-156.99575 -70.3067,-69.8086 -128.9187,-117.59592 -174.1012,-141.94754 -60.8978,-32.82168 -135.6045,-53.9464 -198.1887,-56.04165 -8.7738,-0.29371 -11.5439,-1.15121 -8.7097,-2.69619 l 0,0 z m 136.5199,-6.77277 c 46.0987,4.76895 93.4694,20.03045 137.9344,44.43861 19.1525,10.51337 31.7823,19.52803 57.7923,41.2506 31.4713,26.28358 44.5661,39.277 118.942,118.02219 32.3147,34.2128 84.0818,77.409 111.3478,92.9124 54.7952,31.1562 107.2535,42.2928 157.5148,33.4395 19.9152,-3.508 53.4429,-18.6187 69.0534,-31.1222 16.7033,-13.3787 37.2247,-41.1948 45.5934,-61.8005 35.3201,-86.96476 -3.1714,-201.05995 -93.1297,-276.05154 -41.8019,-34.84716 -82.7532,-55.17187 -137.2143,-68.10137 -54.461,-12.9295 -109.6209,-15.47982 -181.6189,-8.39708 -106.817,10.50796 -203.2031,42.11629 -295.2245,96.81424 -10.7466,6.38776 -20.185,12.37257 -20.9742,13.29962 -1.6873,1.98188 -1.1781,2.07179 29.9835,5.29553 z"
       style="opacity:0.71193417;fill:#00ff00;fill-opacity:1;stroke:#d78b31;stroke-width:0.73400003;stroke-linecap:square;stroke-linejoin:round;stroke-miterlimit:4;stroke-opacity:0.80710659;stroke-dasharray:none;stroke-dashoffset:0" />
    <path
       inkscape:connector-curvature="0"
       id="path3198"
       d="m 2982.3821,748.21233 c 0.4783,-0.56172 8.5345,-4.96128 17.9027,-9.77679 79.1494,-40.68508 187.1858,-53.80382 265.3042,-32.21577 44.0681,12.17831 59.9834,20.58055 95.1562,50.23669 28.2606,23.82803 33.3231,29.18698 44.5905,47.20145 15.941,25.48703 23.5956,46.60646 26.1331,72.10233 2.5235,25.35453 -2.3552,44.22729 -16.4717,63.72056 -10.0743,13.9115 -13.0865,16.19131 -30.2298,22.87938 -45.2135,17.63933 -102.0832,1.62638 -155.8717,-43.88925 l -21.2213,-17.95744 18.9751,11.15135 c 33.4218,19.64148 66.5804,24.22374 91.4043,12.63142 5.3723,-2.50888 14.9455,-10.56531 21.2734,-17.90325 30.1496,-34.96147 22.4979,-94.49575 -18.1726,-141.39275 -12.5398,-14.45961 -17.4518,-18.37069 -35.3883,-28.17742 -21.0836,-11.52737 -67.3584,-25.76896 -97.5115,-30.0102 -20.4852,-2.88141 -60.0142,-0.7335 -87.3224,4.74487 -33.7432,6.76934 -92.7055,30.67058 -87.1292,35.3192 0.6072,0.50617 8.5343,2.22719 17.6155,3.82439 29.4571,5.18103 44.2283,12.8821 74.1439,38.65534 15.7743,13.58991 33.8531,31.7946 43.6835,43.98742 l 16.7713,20.80186 -36.0193,-31.54763 c -27.1091,-23.74358 -41.1165,-34.35965 -56.6248,-42.91534 -20.4962,-11.30744 -73.116,-28.89581 -82.683,-27.63716 -4.8623,0.63966 -10.0705,-1.7633 -8.3081,-3.83326 z"
       style="opacity:0.71193417;fill:#ff0000;fill-opacity:1;stroke:#d78b31;stroke-width:0.73400003;stroke-linecap:square;stroke-linejoin:round;stroke-miterlimit:4;stroke-opacity:0.80710659;stroke-dasharray:none;stroke-dashoffset:0" />
    <path
       inkscape:connector-curvature="0"
       id="path3202"
       d="m 3193.6953,863.97693 -14.8656,-17.95241 18.8814,13.78344 c 30.3596,22.16267 58.0535,25.92563 82.0984,11.15541 18.3012,-11.24186 29.4873,-38.43042 25.3909,-61.71306 -4.1294,-23.46945 -23.5504,-53.59943 -40.6861,-63.12092 -11.9313,-6.62961 -3.9282,-5.56519 13.3274,1.7725 58.1168,24.71332 84.7705,96.73545 52.4071,141.61154 -30.472,42.25368 -89.5713,31.20167 -136.5535,-25.5365 z"
       style="opacity:0.71193417;fill:#ffff00;fill-opacity:1;stroke:#d78b31;stroke-width:0.73400003;stroke-linecap:square;stroke-linejoin:round;stroke-miterlimit:4;stroke-opacity:0.80710659;stroke-dasharray:none;stroke-dashoffset:0" />
    <path
       style="opacity:0.71193417;fill:#ff0000;fill-opacity:1;stroke:#d78b31;stroke-width:0.73400003;stroke-linecap:square;stroke-linejoin:round;stroke-miterlimit:4;stroke-opacity:0.80710659;stroke-dasharray:none;stroke-dashoffset:0"
       d="m 2796.2069,559.22551 c 1.6339,-1.0559 9.8804,-5.73828 18.3255,-10.40529 107.2561,-59.27294 208.3571,-160.74464 262.6929,-263.65608 28.3844,-53.75968 40.4333,-100.96438 39.1313,-153.30598 -0.5675,-22.81117 -12.1977,-66.596056 -23.7922,-89.571886 -27.332,-54.161442 -78.2567,-101.296537 -129.3817,-119.753661 -19.3347,-6.9802 -34.6725,-10.20456 -55.8271,-11.73654 -18.5229,-1.34145 -20.9879,-1.07968 -47.0741,4.99775 -26.0851,6.07723 -28.3143,6.89767 -42.5397,15.657584 -52.9058,32.57859 -80.7735,90.003117 -78.1398,161.015941 1.5508,41.814442 11.5994,78.966902 45.1568,166.958812 24.8887,65.26114 38.4039,116.5104 40.1454,152.23092 2.3474,48.14477 -8.0733,101.40312 -27.6447,141.28849 -2.7437,5.59158 -3.0786,7.58895 -1.0526,6.27994 l 0,0 z m 50.5751,-83.5656 c 12.1746,-30.35716 17.4851,-64.69366 15.4632,-99.98132 -0.871,-15.1995 -2.8918,-25.85392 -9.2481,-48.7531 -7.6909,-27.70724 -12.3205,-39.85966 -42.052,-110.38262 -12.9176,-30.64061 -25.5421,-76.20487 -27.1546,-98.00595 -3.2405,-43.81248 6.6459,-80.088947 29.6852,-108.9260711 9.129,-11.426188 30.8944,-27.8713049 44.8282,-33.8701879 14.909,-6.41874 41.1337,-10.854303 58.2645,-9.854606 72.2998,4.218832 138.6532,62.955766 160.5409,142.113075 10.1708,36.78288 10.5357,68.6287 1.2224,106.70488 -9.3133,38.0761 -26.074,73.44325 -55.1862,116.4496 -43.1911,63.80458 -97.5404,114.6692 -166.4685,155.79509 -8.0496,4.80282 -15.3797,8.90747 -16.2891,9.12129 -1.9441,0.45723 -1.8355,0.11059 6.3941,-20.41008 z"
       id="path3206"
       inkscape:connector-curvature="0" />
    <path
       style="opacity:0.71193417;fill:#ffff00;fill-opacity:1;stroke:#d78b31;stroke-width:0.73400003;stroke-linecap:square;stroke-linejoin:round;stroke-miterlimit:4;stroke-opacity:0.80710659;stroke-dasharray:none;stroke-dashoffset:0"
       d="m 2875.0417,469.55722 c 0.551,-0.12959 6.3151,-3.84806 12.8091,-8.26319 54.8655,-37.30219 100.2806,-101.07992 111.5254,-156.61834 6.3435,-31.33042 5.8519,-43.85953 -2.9388,-74.91092 -7.0632,-24.9491 -9.0863,-29.74908 -17.819,-42.27796 -12.3553,-17.72578 -24.4595,-28.93043 -41.3244,-38.25286 -16.7713,-9.27082 -31.5254,-11.9338 -49.8144,-8.99145 -13.052,2.09983 -15.6483,3.29762 -26.0559,12.02118 -27.4488,23.00721 -35.4287,63.52892 -21.8716,111.06426 l 5.3488,18.75419 -1.3738,-15.28171 c -2.4198,-26.91649 5.5368,-49.10159 21.9329,-61.15496 3.5484,-2.60846 12.3634,-6.16948 19.5886,-7.91294 34.425,-8.30727 73.2252,14.54388 92.1497,54.27108 5.8349,12.24893 6.9024,16.5155 7.6908,30.73815 0.9267,16.71811 -4.7244,50.05804 -11.908,70.25474 -4.8805,13.72118 -19.6542,37.86072 -32.6364,53.32606 -16.0413,19.10954 -52.4611,48.84063 -53.8179,43.93381 -0.1477,-0.53429 1.3197,-6.02764 3.261,-12.20734 6.2968,-20.04522 5.9081,-31.64418 -1.9508,-58.22105 -4.1439,-14.01377 -10.7201,-30.87217 -15.8902,-40.73454 l -8.8206,-16.82589 9.8209,32.15578 c 7.3913,24.20132 10.0623,36.2052 10.7971,48.52569 0.9713,16.28299 -4.4858,54.61707 -8.5749,60.2354 -2.0782,2.85551 -2.1582,6.85047 -0.1276,6.37281 z"
       id="path3208"
       inkscape:connector-curvature="0" />
    <path
       style="opacity:0.71193417;fill:#ff0000;fill-opacity:1;stroke:#d78b31;stroke-width:0.73400003;stroke-linecap:square;stroke-linejoin:round;stroke-miterlimit:4;stroke-opacity:0.80710659;stroke-dasharray:none;stroke-dashoffset:0"
       d="m 2911.1762,424.53069 c 17.0369,-14.24417 32.6566,-32.35797 44.6224,-51.74746 18.6381,-30.20179 21.8153,-44.01877 14.7234,-64.02873 -9.9984,-28.21011 -38.6455,-46.08835 -64.1892,-40.05961 -16.1259,3.80627 -25.601,14.41062 -29.8709,33.43146 -2.315,10.313 -2.1424,11.47498 5.2725,35.48457 20.1923,65.38214 20.8202,68.86022 16.9893,94.11828 -0.4503,2.96919 1.953,1.57987 12.4525,-7.19851 z"
       id="path3210"
       inkscape:connector-curvature="0" />
    <path
       style="opacity:0.71193417;fill:#00ff00;fill-opacity:1;stroke:#d78b31;stroke-width:0.73400003;stroke-linecap:square;stroke-linejoin:round;stroke-miterlimit:4;stroke-opacity:0.80710659;stroke-dasharray:none;stroke-dashoffset:0"
       d="m 2865.5938,301.92804 7.4807,14.76669 -3.2344,-16.02107 c -5.2006,-25.76057 1.4892,-44.26997 19.8319,-54.87112 13.9611,-8.06887 36.6131,-6.84005 51.4161,2.78898 14.9218,9.70633 29.3343,31.0225 30.1935,44.6565 0.5982,9.49301 2.5474,4.15107 3.246,-8.89581 2.3529,-43.94204 -38.7408,-82.4971 -80.7993,-75.80787 -39.6007,6.29827 -51.7771,46.71402 -28.1345,93.3837 z"
       id="path3212"
       inkscape:connector-curvature="0" />
    <path
       style="opacity:0.71193417;fill:#00ff00;fill-opacity:1;stroke:#d78b31;stroke-width:0.73400003;stroke-linecap:square;stroke-linejoin:round;stroke-miterlimit:4;stroke-opacity:0.80710659;stroke-dasharray:none;stroke-dashoffset:0"
       d="m 3212.2581,852.34129 c -13.7204,-2.7397 -19.6476,-6.2765 -41.0551,-24.4981 -13.7609,-11.7129 -36.0859,-30.6676 -49.6114,-42.1216 -13.5254,-11.454 -33.2447,-24.95402 -43.8208,-30 -10.576,-5.04597 -19.2546,-10.07842 -19.2857,-11.18321 -0.1003,-3.5619 52.0675,-18.81166 76.5764,-22.38493 31.9613,-4.65976 81.7322,-2.47486 94.4081,4.14444 41.9201,21.8905 62.4363,78.2942 39.4435,108.4393 -13.4887,17.6846 -30.2183,22.8829 -56.655,17.6041 l 0,0 z"
       id="path3216"
       inkscape:connector-curvature="0" />
    <path
       style="opacity:0.71193417;fill:#ff0000;fill-opacity:1;stroke:#d78b31;stroke-width:0.73400003;stroke-linecap:square;stroke-linejoin:round;stroke-miterlimit:4;stroke-opacity:0.80710659;stroke-dasharray:none;stroke-dashoffset:0"
       d="m 3552.6132,651.09816 c 0.5136,-0.52958 8.8377,-4.39826 18.4981,-8.59707 81.6177,-35.47471 190.2768,-41.57048 266.8335,-14.96952 43.187,15.00619 58.5249,24.42133 91.7036,56.2927 26.6585,25.60793 31.3633,31.28342 41.4406,49.98966 14.2573,26.46574 20.5283,48.03649 21.4096,73.64316 0.8765,25.46473 -5.214,43.98199 -20.5631,62.52029 -10.954,13.22999 -14.1075,15.30997 -31.6478,20.87397 -46.2608,14.6747 -101.9743,-4.98701 -152.7027,-53.88995 l -20.0141,-19.29387 18.2132,12.35661 c 32.0799,21.76434 64.8722,28.48402 90.3946,18.5234 5.5235,-2.15575 15.5983,-9.5754 22.388,-16.48821 32.3501,-32.93589 28.5694,-92.84068 -8.9791,-142.27271 -11.5773,-15.24124 -16.2257,-19.46216 -33.4895,-30.40971 -20.293,-12.86836 -65.5485,-30.07639 -95.3638,-36.26117 -20.2555,-4.20178 -59.8407,-4.61792 -87.4463,-0.91928 -34.1107,4.57024 -94.4969,24.60348 -89.2333,29.60341 0.5731,0.54442 8.3722,2.77512 17.3309,4.95698 29.0597,7.07752 43.3013,15.71888 71.4853,43.37509 14.8612,14.58279 31.7234,33.9199 40.7436,46.72365 l 15.3892,21.84416 -33.901,-33.8137 c -25.5148,-25.44909 -38.8054,-36.94988 -53.7271,-46.49177 -19.721,-12.61086 -71.0915,-33.56949 -80.72,-32.93295 -4.8935,0.32348 -9.9352,-2.41169 -8.0424,-4.36317 z"
       id="path3218"
       inkscape:connector-curvature="0" />
    <path
       inkscape:connector-curvature="0"
       id="path3220"
       d="m 3772.2581,766.62701 c -13.7204,-2.7397 -19.6476,-6.2765 -41.0551,-24.4981 -13.7609,-11.7129 -36.0859,-30.6676 -49.6114,-42.1216 -13.5254,-11.454 -33.2447,-24.95402 -43.8208,-30 -10.576,-5.04597 -19.2546,-10.07842 -19.2857,-11.18321 -0.1003,-3.5619 52.0675,-18.81166 76.5764,-22.38493 31.9613,-4.65976 81.7322,-2.47486 94.4081,4.14444 41.9201,21.8905 62.4363,78.2942 39.4435,108.4393 -13.4887,17.6846 -30.2183,22.8829 -56.655,17.6041 l 0,0 z"
       style="opacity:0.71193417;fill:#000080;fill-opacity:1;stroke:#d78b31;stroke-width:0.73400003;stroke-linecap:square;stroke-linejoin:round;stroke-miterlimit:4;stroke-opacity:0.80710659;stroke-dasharray:none;stroke-dashoffset:0" />
    <path
       inkscape:connector-curvature="0"
       id="path3222"
       d="m 3745.6539,894.63885 c 0.3421,-0.25518 5.0726,-1.49182 10.5122,-2.74817 45.958,-10.61442 100.0381,0.53854 132.8043,27.38826 18.4839,15.14645 24.3428,23.03715 35.0295,47.17834 8.5866,19.39679 9.9023,23.53069 11.5891,36.41142 2.3865,18.2236 1.7211,32.3431 -2.2718,48.2045 -3.9706,15.7735 -10.1412,26.3209 -20.8339,35.6117 -7.6308,6.6304 -9.5291,7.4766 -19.05,8.4916 -25.1106,2.677 -48.9036,-17.049 -65.213,-54.066 l -6.4347,-14.6045 6.7541,10.0932 c 11.8962,17.7776 26.7387,26.4049 40.9144,23.7819 3.0679,-0.5677 9.2661,-3.7471 13.7736,-7.0654 21.4762,-15.8097 29.9782,-53.1518 20.1921,-88.68681 -3.0174,-10.95643 -4.5568,-14.18846 -11.0909,-23.28528 -7.6806,-10.69286 -26.7936,-27.47653 -40.2756,-35.36677 -9.1593,-5.36044 -28.4055,-11.04442 -42.5164,-12.55625 -17.4359,-1.86818 -50.3654,2.16576 -48.6603,5.96101 0.1856,0.41323 3.6064,2.85389 7.6015,5.42363 12.9591,8.33548 18.4166,15.60025 27.3939,36.46535 4.7336,11.002 9.6227,25.2008 11.8132,34.30819 l 3.7371,15.538 -10.7037,-25.4342 c -8.056,-19.14229 -12.5555,-28.0344 -18.1893,-35.946 -7.446,-10.45627 -28.8954,-30.38389 -33.7042,-31.31286 -2.444,-0.47224 -4.432,-2.84487 -3.1712,-3.78486 z"
       style="opacity:0.71193417;fill:#000080;fill-opacity:1;stroke:#d78b31;stroke-width:0.73400003;stroke-linecap:square;stroke-linejoin:round;stroke-miterlimit:4;stroke-opacity:0.80710659;stroke-dasharray:none;stroke-dashoffset:0" />
    <path
       style="opacity:0.71193417;fill:#ffff00;fill-opacity:1;stroke:#d78b31;stroke-width:0.73400003;stroke-linecap:square;stroke-linejoin:round;stroke-miterlimit:4;stroke-opacity:0.80710659;stroke-dasharray:none;stroke-dashoffset:0"
       d="m 3832.8891,995.77387 c -6.2226,-3.5655 -8.5043,-6.5524 -15.8041,-20.6888 -4.6923,-9.08699 -12.3134,-23.79975 -16.9357,-32.69529 -4.6221,-8.89551 -11.9137,-19.89808 -16.2033,-24.4501 -4.2898,-4.55195 -7.6558,-8.83551 -7.4801,-9.51896 0.5661,-2.2033 28.6589,-4.42374 41.2367,-3.25936 16.4025,1.51827 40.314,9.68628 45.3567,15.49341 16.6766,19.20454 16.9465,56.6894 0.5189,72.0667 -9.6372,9.02123 -18.6994,9.92253 -30.6891,3.0524 l 0,0 z"
       id="path3224"
       inkscape:connector-curvature="0" />
    <path
       inkscape:connector-curvature="0"
       id="path3226"
       d="m 3712.6132,578.43483 c 0.5136,0.52958 8.8377,4.39826 18.4981,8.59707 81.6177,35.47471 190.2768,41.57048 266.8335,14.96952 43.187,-15.00619 58.5249,-24.42133 91.7036,-56.2927 26.6585,-25.60793 31.3633,-31.28342 41.4406,-49.98966 14.2573,-26.46574 20.5283,-48.03649 21.4096,-73.64316 0.8765,-25.46473 -5.214,-43.98199 -20.5631,-62.52029 -10.954,-13.22999 -14.1075,-15.30997 -31.6478,-20.87397 -46.2608,-14.6747 -101.9743,4.98701 -152.7027,53.88995 l -20.0141,19.29387 18.2132,-12.35661 c 32.0799,-21.76434 64.8722,-28.48402 90.3946,-18.5234 5.5235,2.15575 15.5983,9.5754 22.388,16.48821 32.3501,32.93589 28.5694,92.84068 -8.9791,142.27271 -11.5773,15.24124 -16.2257,19.46216 -33.4895,30.40971 -20.293,12.86836 -65.5485,30.07639 -95.3638,36.26117 -20.2555,4.20178 -59.8407,4.61792 -87.4463,0.91928 -34.1107,-4.57024 -94.4969,-24.60348 -89.2333,-29.60341 0.5731,-0.54442 8.3722,-2.77512 17.3309,-4.95698 29.0597,-7.07752 43.3013,-15.71888 71.4853,-43.37509 14.8612,-14.58279 31.7234,-33.9199 40.7436,-46.72365 l 15.3892,-21.84416 -33.901,33.8137 c -25.5148,25.44909 -38.8054,36.94988 -53.7271,46.49177 -19.721,12.61086 -71.0915,33.56949 -80.72,32.93295 -4.8935,-0.32348 -9.9352,2.41169 -8.0424,4.36317 z"
       style="opacity:0.71193417;fill:#00ff00;fill-opacity:1;stroke:#d78b31;stroke-width:0.73400003;stroke-linecap:square;stroke-linejoin:round;stroke-miterlimit:4;stroke-opacity:0.80710659;stroke-dasharray:none;stroke-dashoffset:0" />
    <path
       style="opacity:0.71193417;fill:#ff6600;fill-opacity:1;stroke:#d78b31;stroke-width:0.73400003;stroke-linecap:square;stroke-linejoin:round;stroke-miterlimit:4;stroke-opacity:0.80710659;stroke-dasharray:none;stroke-dashoffset:0"
       d="m 3932.2581,462.90598 c -13.7204,2.7397 -19.6476,6.2765 -41.0551,24.4981 -13.7609,11.7129 -36.0859,30.6676 -49.6114,42.1216 -13.5254,11.454 -33.2447,24.95402 -43.8208,30 -10.576,5.04597 -19.2546,10.07842 -19.2857,11.18321 -0.1003,3.5619 52.0675,18.81166 76.5764,22.38493 31.9613,4.65976 81.7322,2.47486 94.4081,-4.14444 41.9201,-21.8905 62.4363,-78.2942 39.4435,-108.4393 -13.4887,-17.6846 -30.2183,-22.8829 -56.655,-17.6041 l 0,0 z"
       id="path3228"
       inkscape:connector-curvature="0" />
    <path
       style="opacity:0.71193417;fill:#ff0000;fill-opacity:1;stroke:#d78b31;stroke-width:0.73400003;stroke-linecap:square;stroke-linejoin:round;stroke-miterlimit:4;stroke-opacity:0.80710659;stroke-dasharray:none;stroke-dashoffset:0"
       d="m 3912.0257,649.56036 c 0.147,0.35265 3.3945,3.73378 7.2167,7.51364 32.2925,31.93502 82.8271,54.08241 124.0976,54.38738 23.2814,0.17196 32.2991,-1.79014 53.9158,-11.73152 17.3686,-7.98763 20.6459,-9.96981 28.8667,-17.45886 11.6309,-10.59555 18.5677,-20.17315 23.6826,-32.69809 5.0865,-12.45552 5.5871,-22.69724 1.6903,-34.57932 -2.7808,-8.4797 -3.8985,-10.06485 -11.2161,-15.90794 -19.2995,-15.41068 -49.3894,-15.48253 -82.4719,-0.19687 l -13.0523,6.03067 10.924,-2.91247 c 19.2408,-5.12994 36.0614,-2.68453 46.3672,6.74095 2.2303,2.03987 5.6589,7.48762 7.6187,12.10604 9.3381,22.0045 -3.4449,51.00302 -30.3592,68.87091 -8.2985,5.50914 -11.2822,6.78098 -21.4964,9.16286 -12.0065,2.79977 -36.6749,3.354 -51.9822,1.16779 -10.3993,-1.48521 -29.293,-8.2479 -41.7374,-14.93926 -15.3769,-8.26814 -40.4084,-28.81901 -36.9893,-30.36829 0.3722,-0.1687 4.4887,0.0997 9.1475,0.59639 15.1118,1.61113 23.4664,-0.16083 41.9359,-8.89419 9.7387,-4.60499 21.3005,-11.21198 27.9364,-15.96426 l 11.3214,-8.10777 -22.3162,10.77602 c -16.7958,8.11033 -25.2228,11.46564 -34.0659,13.56377 -11.6873,2.77295 -39.9504,4.1079 -44.4107,2.09766 -2.2669,-1.02166 -5.1651,-0.5548 -4.6232,0.74476 z"
       id="path3230"
       inkscape:connector-curvature="0" />
    <path
       inkscape:connector-curvature="0"
       id="path3232"
       d="m 4037.6232,631.01927 c -7.0246,-1.05875 -10.4908,-0.35083 -24.0087,4.90362 -8.6894,3.37755 -22.778,8.83345 -31.308,12.12423 -8.53,3.29081 -20.3796,6.50436 -26.3323,7.14123 -5.9529,0.63682 -11.0013,1.60101 -11.2186,2.14263 -0.701,1.7461 21.3011,18.48149 32.2964,24.56559 14.3387,7.93407 38.3987,15.61404 45.6382,14.56778 23.9417,-3.46008 44.038,-27.77873 38.6363,-46.75394 -3.1689,-11.13181 -10.1682,-16.6511 -23.7033,-18.69114 l 0,0 z"
       style="opacity:0.71193417;fill:#000080;fill-opacity:1;stroke:#d78b31;stroke-width:0.73400003;stroke-linecap:square;stroke-linejoin:round;stroke-miterlimit:4;stroke-opacity:0.80710659;stroke-dasharray:none;stroke-dashoffset:0" />
    <path
       inkscape:connector-curvature="0"
       id="path3234"
       d="m 3138.2425,181.34356 c 0.9107,-1.03143 5.6293,-5.79171 10.4859,-10.57842 61.6793,-60.7929 111.2111,-149.499772 128.6994,-230.488924 9.1357,-42.307756 8.4107,-77.059236 -2.3546,-112.861846 -4.6915,-15.60327 -20.8583,-43.58986 -33.0727,-57.25292 -28.7931,-32.20826 -72.2885,-55.18407 -110.5062,-58.3735 -14.4535,-1.20617 -25.4825,-0.57024 -40.1438,2.31441 -12.8374,2.52576 -14.4627,3.1651 -31.0381,12.20841 -16.5747,9.04299 -17.9343,10.02312 -25.9453,18.7049 -29.7935,32.28802 -37.8864,77.02336 -22.6919,125.43595 8.947,28.50674 22.7872,52.220461 62.196,106.566731 29.2285,40.307105 48.085,73.083002 56.0111,97.357662 10.6832,32.717807 13.6572,71.334887 7.8898,102.446827 -0.8085,4.36161 -0.659,5.79946 0.4704,4.52072 l 0,0 z m 18.5853,-66.96628 c 2.5406,-23.172784 -0.3332,-47.807646 -8.3681,-71.732004 -3.461,-10.304941 -6.8452,-17.265796 -15.4863,-31.851596 -10.4554,-17.648315 -15.8947,-25.154927 -49.4066,-68.183699 -14.5602,-18.695001 -31.7384,-47.721791 -36.9493,-62.434851 -10.472,-29.56804 -10.6034,-56.39102 -0.3944,-80.5404 4.0453,-9.56878 15.728,-24.94714 24.062,-31.67319 8.9173,-7.19683 25.8967,-15.13523 37.7238,-17.6371 49.916,-10.55924 106.0835,17.53289 135.8964,67.96848 13.8534,23.43646 20.113,45.29915 20.9733,73.25479 0.8604,27.955573 -3.8503,55.432595 -15.5104,90.470604 -17.299,51.982659 -44.6214,97.132214 -83.687,138.290266 -4.5621,4.80655 -8.7672,8.99833 -9.3447,9.31493 -1.2344,0.67692 -1.2261,0.41802 0.4913,-15.24623 z"
       style="opacity:0.71193417;fill:#00ff00;fill-opacity:1;stroke:#d78b31;stroke-width:0.73400003;stroke-linecap:square;stroke-linejoin:round;stroke-miterlimit:4;stroke-opacity:0.80710659;stroke-dasharray:none;stroke-dashoffset:0" />
    <path
       inkscape:connector-curvature="0"
       id="path3238"
       d="m 3182.3964,65.273875 c 12.6651,-23.578843 22.9404,-51.49734 29.3546,-79.757529 9.9907,-44.019016 9.4021,-62.329189 -2.7274,-84.850476 -17.1005,-31.75051 -49.4548,-44.24853 -72.4959,-28.00424 -14.5459,10.25549 -20.8805,26.71286 -19.9701,51.883646 0.4938,13.647425 0.9675,15.036988 14.4659,42.433899 36.7586,74.60629 38.2837,78.727553 41.2664,111.523734 0.3507,3.855314 2.3012,1.302112 10.1065,-13.229034 z"
       style="opacity:0.71193417;fill:#ff0000;fill-opacity:1;stroke:#d78b31;stroke-width:0.73400009;stroke-linecap:square;stroke-linejoin:round;stroke-miterlimit:4;stroke-opacity:0.80710659;stroke-dasharray:none;stroke-dashoffset:0" />
    <path
       style="opacity:0.71193417;fill:#ffff00;fill-opacity:1;stroke:#d78b31;stroke-width:0.73400003;stroke-linecap:square;stroke-linejoin:round;stroke-miterlimit:4;stroke-opacity:0.80710659;stroke-dasharray:none;stroke-dashoffset:0"
       d="m 3268.7714,114.92802 c -0.036,-1.26277 -0.7534,-7.39726 -1.5936,-13.63227 -10.6714,-79.186129 16.9158,-170.673911 71.6806,-237.71454 28.6084,-35.02125 60.8833,-58.89558 104.8189,-77.53626 19.1475,-8.12398 61.7585,-18.08702 87.1702,-20.38176 59.9031,-5.40957 127.1171,4.37837 170.7664,24.86745 16.5075,7.74877 27.6933,14.7501 40.7142,25.48354 11.4012,9.39814 12.5549,10.81153 22.0346,26.99026 9.4792,16.17808 10.0405,17.67185 10.7141,28.50633 2.5054,40.294113 -29.4159,76.393277 -89.5056,101.220362 -35.3826,14.618882 -71.6391,22.9765873 -162.9316,37.558705 -67.7092,10.815087 -117.53,22.528804 -147.9876,34.794662 -41.0516,16.53198 -79.2291,41.772932 -101.2809,66.961381 -3.0916,3.53115 -4.5543,4.44793 -4.5997,2.88214 l 0,0 z m 40.8832,-57.885128 c 18.2964,-17.717484 43.6925,-33.238779 73.9484,-45.194959 13.0326,-5.1498052 22.9517,-8.0064083 45.3889,-13.0707825 27.1483,-6.1277386 39.7539,-8.1443169 114.4982,-18.3165375 32.4751,-4.419563 77.1075,-14.508869 96.0019,-21.70144 37.9711,-14.454584 62.4259,-33.136563 73.4294,-56.09582 4.3598,-9.097313 5.8407,-26.798153 3.0497,-36.456803 -2.9862,-10.33468 -13.8981,-25.98081 -24.2435,-34.76164 -43.6622,-37.05941 -129.0285,-50.80233 -206.5422,-33.25075 -36.0191,8.15594 -62.5129,19.72557 -88.7719,38.76642 -26.2588,19.04075 -46.1426,41.05872 -65.469,72.496185 -28.6726,46.640844 -40.4614,94.4613419 -36.1083,146.471302 0.5082,6.073813 1.193,11.505424 1.522,12.070169 0.7028,1.207271 0.9287,1.021261 13.2964,-10.955344 z"
       id="path3242"
       inkscape:connector-curvature="0" />
    <path
       style="opacity:0.71193417;fill:#000080;fill-opacity:1;stroke:#d78b31;stroke-width:0.73400003;stroke-linecap:square;stroke-linejoin:round;stroke-miterlimit:4;stroke-opacity:0.80710659;stroke-dasharray:none;stroke-dashoffset:0"
       d="m 3319.8317,-7.6911649 c 10.9043,-25.3748971 30.7934,-52.4553111 56.8194,-77.3633741 40.5395,-38.797471 64.4155,-51.956181 110.6422,-60.978521 65.1711,-12.71945 128.7003,-1.63481 142.3496,24.83719 8.6163,16.71216 -2.6977,32.84978 -35.6695,50.87536 -17.8774,9.773225 -20.3232,10.502407 -74.6995,22.267372 -148.0758,32.037804 -155.5083,34.124999 -201.1244,56.4831356 -5.3623,2.6282384 -5.0375,-0.4831125 1.6822,-16.1211625 z"
       id="path3244"
       inkscape:connector-curvature="0" />
    <path
       style="opacity:0.71193417;fill:#ff0000;fill-opacity:1;stroke:#d78b31;stroke-width:0.73400003;stroke-linecap:square;stroke-linejoin:round;stroke-miterlimit:4;stroke-opacity:0.80710659;stroke-dasharray:none;stroke-dashoffset:0"
       d="m 2155.827,-210.01589 c 0.7266,-0.23564 7.9757,-5.81233 16.1092,-12.39272 68.7175,-55.59558 120.7041,-144.94543 127.6632,-219.41584 3.9257,-42.01013 1.3966,-58.45323 -15.1222,-98.31175 -13.2723,-32.02555 -16.7249,-38.10856 -30.4094,-53.57968 -19.3613,-21.88854 -37.4127,-35.21807 -61.6278,-45.50756 -24.081,-10.23254 -44.4485,-12.00036 -68.767,-5.96908 -17.3552,4.30426 -20.6914,6.18789 -33.4814,18.90374 -33.7325,33.5367 -38.5058,87.84492 -13.0832,148.85102 l 10.0301,24.069 -4.133,-19.96419 c -7.2797,-35.16401 0.1901,-65.31996 20.5909,-83.12729 4.4152,-3.85379 15.8175,-9.58285 25.3384,-12.73084 45.3622,-14.99914 101.2821,10.52179 132.8085,60.61172 9.7205,15.44416 11.8001,20.93733 14.9831,39.57566 3.7415,21.90869 1.052,66.48386 -5.6675,93.93015 -4.5649,18.64609 -20.9719,52.17986 -36.2439,74.07829 -18.871,27.05865 -63.7463,70.50832 -66.3129,64.20598 -0.2794,-0.68621 0.8897,-8.09411 2.5981,-16.46158 5.5414,-27.14198 3.2898,-42.37221 -11.3017,-76.44769 -7.694,-17.9677 -19.1037,-39.3951 -27.5692,-51.77437 l -14.4426,-21.12001 18.0772,41.19168 c 13.6054,31.00196 19.0065,46.49631 21.8341,62.63573 3.737,21.33037 2.0528,72.46003 -2.6463,80.34157 -2.3883,4.00564 -1.9023,9.27652 0.7753,8.40806 z"
       id="path3246"
       inkscape:connector-curvature="0" />
    <path
       inkscape:connector-curvature="0"
       id="path3248"
       d="m 2138.1414,-438.29272 c -3.1943,12.59056 -2.3146,18.90697 6.0943,43.75115 5.4052,15.96999 14.1285,41.86111 19.3849,57.5361 5.2566,15.6749 9.8482,37.33532 10.2035,48.13437 0.3553,10.79897 1.5032,19.99299 2.5508,20.43109 3.3779,1.41248 40.1704,-36.89069 54.0074,-56.22468 18.0444,-25.21288 37.0773,-67.99474 36.1026,-81.15091 -3.223,-43.50839 -48.6754,-81.83563 -87.385,-73.68621 -22.7089,4.78084 -34.8035,16.94942 -40.9585,41.20909 l 0,0 z"
       style="opacity:0.71193417;fill:#000080;fill-opacity:1;stroke:#d78b31;stroke-width:0.73400003;stroke-linecap:square;stroke-linejoin:round;stroke-miterlimit:4;stroke-opacity:0.80710659;stroke-dasharray:none;stroke-dashoffset:0" />
    <path
       inkscape:connector-curvature="0"
       id="path3250"
       d="m 2330.9718,-278.91942 c -0.362,-0.37396 -3.0148,-5.72356 -5.8951,-11.88813 -24.3354,-52.08245 -28.6974,-115.21856 -10.7116,-155.04299 10.1461,-22.46566 16.5342,-29.82832 38.195,-44.02026 17.4038,-11.40306 21.2634,-13.24117 33.9945,-16.19071 18.0122,-4.17291 32.7031,-4.51102 50.1551,-1.15457 17.3554,3.33786 29.9885,9.61733 42.6537,21.20138 9.0386,8.26704 10.4623,10.38634 14.2882,21.26867 10.0905,28.70113 -3.2051,57.63728 -36.4411,79.30997 l -13.1128,8.55059 8.3877,-8.56548 c 14.7736,-15.08687 19.2914,-32.8501 12.4535,-48.96585 -1.4798,-3.48772 -6.5563,-10.3752 -11.2811,-15.30527 -22.5111,-23.48958 -63.3356,-30.35757 -96.9574,-16.31134 -10.3666,4.33085 -13.2348,6.356 -20.6638,14.59035 -8.7326,9.67913 -20.3755,32.99721 -24.5343,49.13654 -2.8255,10.96446 -3.0337,33.56777 -0.4601,49.93212 3.1801,20.22052 16.95,57.81771 20.348,55.55774 0.3699,-0.24608 1.8756,-4.37538 3.3457,-9.17605 4.7688,-15.57203 10.6317,-22.42362 29.4287,-34.39134 9.9115,-6.31044 23.0597,-13.04983 31.7697,-16.28402 l 14.8599,-5.5179 -22.9832,14.3127 c -17.2978,10.77209 -25.1115,16.64801 -31.5869,23.75323 -8.5581,9.39047 -22.7458,35.6444 -22.2937,41.25354 0.2298,2.85072 -1.6249,5.32511 -2.9586,3.94708 z"
       style="opacity:0.71193417;fill:#00ff00;fill-opacity:1;stroke:#d78b31;stroke-width:0.73400003;stroke-linecap:square;stroke-linejoin:round;stroke-miterlimit:4;stroke-opacity:0.80710659;stroke-dasharray:none;stroke-dashoffset:0" />
    <path
       style="opacity:0.71193417;fill:#ff0000;fill-opacity:1;stroke:#d78b31;stroke-width:0.73400003;stroke-linecap:square;stroke-linejoin:round;stroke-miterlimit:4;stroke-opacity:0.80710659;stroke-dasharray:none;stroke-dashoffset:0"
       d="m 2409.2991,-387.26546 c -1.8414,7.443 -4.2407,10.30358 -16.62,19.81371 -7.9575,6.11317 -20.8346,16.03811 -28.616,22.05559 -7.7814,6.01738 -16.9456,15.27281 -20.3649,20.56766 -3.4192,5.29486 -6.8329,9.5053 -7.5858,9.35654 -2.4277,-0.47969 -12.9214,-32.64979 -15.4037,-47.2221 -3.237,-19.0033 -1.8426,-47.1721 2.6451,-53.43205 14.841,-20.70219 53.2471,-23.94471 73.8382,-6.23378 12.0797,10.39005 15.6548,20.75302 12.1071,35.09443 l 0,0 z"
       id="path3252"
       inkscape:connector-curvature="0" />
    <path
       style="opacity:0.71193417;fill:#000080;fill-opacity:1;stroke:#d78b31;stroke-width:0.73400009;stroke-linecap:square;stroke-linejoin:round;stroke-miterlimit:4;stroke-opacity:0.80710659;stroke-dasharray:none;stroke-dashoffset:0"
       d="m 2111.1056,-133.75461 c 0.3895,-0.39528 3.1948,-6.41843 6.2341,-13.38486 25.678,-58.85713 29.2644,-133.87044 8.807,-184.20965 -11.5404,-28.3973 -18.6784,-38.15042 -42.6779,-58.31283 -19.283,-16.20019 -23.5463,-18.96522 -37.5501,-24.35532 -19.813,-7.62571 -35.9148,-10.17251 -54.9718,-8.69499 -18.9515,1.46932 -32.6738,7.15171 -46.3309,19.18527 -9.7466,8.58787 -11.2664,10.91963 -15.2525,23.40103 -10.513,32.91847 4.6002,69.52778 41.423,100.34093 l 14.5278,12.15685 -9.3513,-11.48585 c -16.471,-20.23065 -21.7562,-42.17303 -14.569,-60.48595 1.5555,-3.96326 6.9872,-11.47573 12.0705,-16.69413 24.2195,-24.86332 68.8171,-27.14113 105.9185,-5.40968 11.4394,6.70042 14.6199,9.54515 22.9148,20.49441 9.7502,12.87054 22.9467,42.50735 27.8079,62.45163 3.3027,13.54943 3.9577,40.6629 1.4473,59.89531 -3.1023,23.7645 -17.4784,66.80574 -21.2439,63.60253 -0.41,-0.34879 -2.1375,-5.51598 -3.8389,-11.4824 -5.5187,-19.3535 -12.0716,-28.4177 -32.8917,-45.49752 -10.9782,-9.00603 -25.5107,-18.99784 -35.1145,-24.1428 l -16.3847,-8.77779 25.4508,20.49986 c 19.1549,15.42872 27.8265,23.60828 35.0552,33.06567 9.5537,12.49919 25.5937,46.02471 25.2042,52.6796 -0.1979,3.38224 1.8808,6.6174 3.3161,5.16068 z"
       id="path3254"
       inkscape:connector-curvature="0" />
    <path
       inkscape:connector-curvature="0"
       id="path3256"
       d="m 2023.2437,-274.99249 c 2.1579,9.18658 4.8407,12.96389 18.5831,26.16347 8.8336,8.48482 23.1294,22.25402 31.7683,30.59848 8.639,8.34435 18.8541,20.77008 22.7002,27.61282 3.8462,6.84269 7.6657,12.38525 8.4878,12.31678 2.6507,-0.22084 13.5399,-37.23701 15.9843,-54.33559 3.1875,-22.29773 1.1277,-56.25263 -3.9073,-64.40746 -16.6507,-26.96869 -58.7898,-36.45271 -81.0148,-18.23341 -13.0383,10.6883 -16.7594,22.584 -12.6016,40.28491 l 0,0 z"
       style="opacity:0.71193417;fill:#00ff00;fill-opacity:1;stroke:#d78b31;stroke-width:0.73400009;stroke-linecap:square;stroke-linejoin:round;stroke-miterlimit:4;stroke-opacity:0.80710659;stroke-dasharray:none;stroke-dashoffset:0" />
    <flowRoot
       xml:space="preserve"
       id="flowRoot3258"
       style="font-size:40px;font-style:normal;font-weight:normal;line-height:125%;letter-spacing:0px;word-spacing:0px;fill:url(#radialGradient3272);fill-opacity:1;stroke:none;font-family:Sans"
       transform="matrix(4.1414535,0,0,14.704934,2867.312,-5894.3202)"><flowRegion
         id="flowRegion3260"
         style="fill:url(#radialGradient3278);fill-opacity:1"><rect
           id="rect3262"
           width="897.01544"
           height="359.61432"
           x="-456.58896"
           y="430.10822"
           style="fill:url(#radialGradient3276);fill-opacity:1" /></flowRegion><flowPara
         id="flowPara3264"
         style="font-style:italic;fill:url(#radialGradient3280);fill-opacity:1;-inkscape-font-specification:Sans Italic">Glamour touch</flowPara></flowRoot>  </g>
</svg>
