<?xml version="1.0" encoding="UTF-8" standalone="no"?>
<!-- Created with Inkscape (http://www.inkscape.org/) -->

<svg
   xmlns:dc="http://purl.org/dc/elements/1.1/"
   xmlns:cc="http://creativecommons.org/ns#"
   xmlns:rdf="http://www.w3.org/1999/02/22-rdf-syntax-ns#"
   xmlns:svg="http://www.w3.org/2000/svg"
   xmlns="http://www.w3.org/2000/svg"
   xmlns:xlink="http://www.w3.org/1999/xlink"
   xmlns:sodipodi="http://sodipodi.sourceforge.net/DTD/sodipodi-0.dtd"
   xmlns:inkscape="http://www.inkscape.org/namespaces/inkscape"
   width="744.09448819"
   height="1052.3622047"
   id="svg2"
   version="1.1"
   inkscape:version="0.48.4 r9939"
   sodipodi:docname="rings.svg">
  <defs
     id="defs4">
    <linearGradient
       inkscape:collect="always"
       id="linearGradient3068">
      <stop
         style="stop-color:#000000;stop-opacity:1;"
         offset="0"
         id="stop3070" />
      <stop
         style="stop-color:#000000;stop-opacity:0;"
         offset="1"
         id="stop3072" />
    </linearGradient>
    <linearGradient
       inkscape:collect="always"
       id="linearGradient3052">
      <stop
         style="stop-color:#916f6f;stop-opacity:1;"
         offset="0"
         id="stop3054" />
      <stop
         style="stop-color:#916f6f;stop-opacity:0;"
         offset="1"
         id="stop3056" />
    </linearGradient>
    <radialGradient
       inkscape:collect="always"
       xlink:href="#linearGradient3052"
       id="radialGradient3058"
       cx="1838.5714"
       cy="602.79175"
       fx="1838.5714"
       fy="602.79175"
       r="416.08619"
       gradientTransform="matrix(1.1486248,0.00805822,-0.0027583,0.39316918,-271.59466,372.00448)"
       gradientUnits="userSpaceOnUse" />
    <radialGradient
       inkscape:collect="always"
       xlink:href="#linearGradient3068"
       id="radialGradient3074"
       cx="1478.769"
       cy="745.54047"
       fx="1478.769"
       fy="745.54047"
       r="154.755"
       gradientTransform="matrix(1.2620442,-0.00776804,0.00208988,0.11819741,-389.06084,639.55278)"
       gradientUnits="userSpaceOnUse" />
  </defs>
  <sodipodi:namedview
     id="base"
     pagecolor="#ffffff"
     bordercolor="#666666"
     borderopacity="1.0"
     inkscape:pageopacity="0.0"
     inkscape:pageshadow="2"
     inkscape:zoom="0.35"
     inkscape:cx="1555"
     inkscape:cy="520"
     inkscape:document-units="px"
     inkscape:current-layer="layer1"
     showgrid="false"
     inkscape:window-width="1366"
     inkscape:window-height="744"
     inkscape:window-x="0"
     inkscape:window-y="24"
     inkscape:window-maximized="1" />
  <metadata
     id="metadata7">
    <rdf:RDF>
      <cc:Work
         rdf:about="">
        <dc:format>image/svg+xml</dc:format>
        <dc:type
           rdf:resource="http://purl.org/dc/dcmitype/StillImage" />
        <dc:title></dc:title>
      </cc:Work>
    </rdf:RDF>
  </metadata>
  <g
     inkscape:label="Layer 1"
     inkscape:groupmode="layer"
     id="layer1">
    <path
       sodipodi:type="arc"
       style="opacity:0.71193417;color:#000000;fill:#ff0000;fill-opacity:1;fill-rule:nonzero;stroke:#d78b31;stroke-width:1.11112738;stroke-linecap:square;stroke-linejoin:round;stroke-miterlimit:4;stroke-opacity:0.80710659;stroke-dasharray:none;stroke-dashoffset:0;marker:none;visibility:visible;display:inline;overflow:visible;enable-background:accumulate"
       id="path2985"
       sodipodi:cx="1575.7142"
       sodipodi:cy="452.36218"
       sodipodi:rx="338.57144"
       sodipodi:ry="208.57143"
       d="m 1587.733,243.92221 a 338.57144,208.57143 0 1 1 -24.784,0.0169"
       sodipodi:start="4.7478949"
       sodipodi:end="10.957862"
       sodipodi:open="true"
       transform="matrix(0.66712952,0.2938511,-0.41735128,0.46971639,1098.5384,-547.59924)" />
    <path
       transform="matrix(0.60827842,0.26369669,-0.38053447,0.42151503,1171.2438,-481.46406)"
       sodipodi:open="true"
       sodipodi:end="10.957862"
       sodipodi:start="4.7478949"
       d="m 1587.733,243.92221 a 338.57144,208.57143 0 1 1 -24.784,0.0169"
       sodipodi:ry="208.57143"
       sodipodi:rx="338.57144"
       sodipodi:cy="452.36218"
       sodipodi:cx="1575.7142"
       id="path3010"
       style="opacity:0.71193417;color:#000000;fill:#000080;fill-opacity:1;fill-rule:nonzero;stroke:#d78b31;stroke-width:1.22836947;stroke-linecap:square;stroke-linejoin:round;stroke-miterlimit:4;stroke-opacity:0.80710659;stroke-dasharray:none;stroke-dashoffset:0;marker:none;visibility:visible;display:inline;overflow:visible;enable-background:accumulate"
       sodipodi:type="arc" />
    <path
       sodipodi:type="arc"
       style="opacity:0.71193417;color:#000000;fill:#ff0000;fill-opacity:1;fill-rule:nonzero;stroke:#d78b31;stroke-width:1.38819814;stroke-linecap:square;stroke-linejoin:round;stroke-miterlimit:4;stroke-opacity:0.80710659;stroke-dasharray:none;stroke-dashoffset:0;marker:none;visibility:visible;display:inline;overflow:visible;enable-background:accumulate"
       id="path3012"
       sodipodi:cx="1575.7142"
       sodipodi:cy="452.36218"
       sodipodi:rx="338.57144"
       sodipodi:ry="208.57143"
       d="m 1587.733,243.92221 a 338.57144,208.57143 0 1 1 -24.784,0.0169"
       sodipodi:start="4.7478949"
       sodipodi:end="10.957862"
       sodipodi:open="true"
       transform="matrix(0.53394017,0.23521752,-0.334029,0.37599151,1268.0169,-417.26952)" />
    <path
       sodipodi:type="spiral"
       style="fill:#ff0000;stroke:#000000;stroke-width:3.15220976px;stroke-linecap:butt;stroke-linejoin:miter;stroke-opacity:1"
       id="path3016"
       sodipodi:cx="1671.4286"
       sodipodi:cy="178.07646"
       sodipodi:expansion="1"
       sodipodi:revolution="3"
       sodipodi:radius="293.07657"
       sodipodi:argument="-18.329201"
       sodipodi:t0="0"
       d="m 1671.4286,178.07646 c 12.7495,7.30588 -3.558,20.79051 -12.1429,21.19048 -23.2643,1.08388 -34.4201,-26.06364 -30.2381,-45.47619 7.4807,-34.72449 47.4009,-49.39009 78.8096,-39.28572 46.0933,14.82856 64.7005,68.99035 48.3333,112.14285 -21.8149,57.5155 -90.6644,80.14986 -145.4762,57.38097 -68.975,-28.65233 -95.6698,-112.37761 -66.4286,-178.80951 35.415,-80.457943 134.1126,-111.2303243 212.1429,-75.47622 91.9559,42.134974 126.8163,155.86118 84.5238,245.47618 -48.8284,103.46406 -177.6188,142.41936 -278.8095,93.57146 C 1447.1636,313.28667 1404.1086,169.40799 1459.5238,56.647919 1521.6913,-69.851839 1680.6752,-117.00994 1805,-55.01879 c 138.024,68.821924 189.2879,242.92355 120.7143,378.8095"
       transform="matrix(0.06502011,0.41293368,-0.23495471,0.055661,2186.3403,-449.05346)" />
    <path
       transform="matrix(0.0807368,0.13221396,-0.28484793,-0.1184735,2106.4643,-104.36266)"
       d="m 1671.4286,178.07646 c 12.7495,7.30588 -3.558,20.79051 -12.1429,21.19048 -23.2643,1.08388 -34.4201,-26.06364 -30.2381,-45.47619 7.4807,-34.72449 47.4009,-49.39009 78.8096,-39.28572 46.0933,14.82856 64.7005,68.99035 48.3333,112.14285 -21.8149,57.5155 -90.6644,80.14986 -145.4762,57.38097 -68.975,-28.65233 -95.6698,-112.37761 -66.4286,-178.80951 35.415,-80.457943 134.1126,-111.2303243 212.1429,-75.47622 91.9559,42.134974 126.8163,155.86118 84.5238,245.47618 -48.8284,103.46406 -177.6188,142.41936 -278.8095,93.57146 C 1447.1636,313.28667 1404.1086,169.40799 1459.5238,56.647919 1521.6913,-69.851839 1680.6752,-117.00994 1805,-55.01879 c 138.024,68.821924 189.2879,242.92355 120.7143,378.8095"
       sodipodi:t0="0"
       sodipodi:argument="-18.329201"
       sodipodi:radius="293.07657"
       sodipodi:revolution="3"
       sodipodi:expansion="1"
       sodipodi:cy="178.07646"
       sodipodi:cx="1671.4286"
       id="path3018"
       style="fill:#000080;stroke:#000000;stroke-width:5.96595621px;stroke-linecap:butt;stroke-linejoin:miter;stroke-opacity:1"
       sodipodi:type="spiral" />
    <path
       sodipodi:type="spiral"
       style="fill:#ff0000;stroke:#000000;stroke-width:5.96595621px;stroke-linecap:butt;stroke-linejoin:miter;stroke-opacity:1"
       id="path3020"
       sodipodi:cx="1671.4286"
       sodipodi:cy="178.07646"
       sodipodi:expansion="1"
       sodipodi:revolution="3"
       sodipodi:radius="293.07657"
       sodipodi:argument="-18.329201"
       sodipodi:t0="0"
       d="m 1671.4286,178.07646 c 12.7495,7.30588 -3.558,20.79051 -12.1429,21.19048 -23.2643,1.08388 -34.4201,-26.06364 -30.2381,-45.47619 7.4807,-34.72449 47.4009,-49.39009 78.8096,-39.28572 46.0933,14.82856 64.7005,68.99035 48.3333,112.14285 -21.8149,57.5155 -90.6644,80.14986 -145.4762,57.38097 -68.975,-28.65233 -95.6698,-112.37761 -66.4286,-178.80951 35.415,-80.457943 134.1126,-111.2303243 212.1429,-75.47622 91.9559,42.134974 126.8163,155.86118 84.5238,245.47618 -48.8284,103.46406 -177.6188,142.41936 -278.8095,93.57146 C 1447.1636,313.28667 1404.1086,169.40799 1459.5238,56.647919 1521.6913,-69.851839 1680.6752,-117.00994 1805,-55.01879 c 138.024,68.821924 189.2879,242.92355 120.7143,378.8095"
       transform="matrix(0.09550069,0.1271845,-0.29738825,-0.10185771,1944.8302,-191.46618)" />
    <path
       transform="matrix(0.25880065,0.0827959,-0.42227216,0.03344943,1485.9046,-181.94955)"
       d="m 1671.4286,178.07646 c 12.7495,7.30588 -3.558,20.79051 -12.1429,21.19048 -23.2643,1.08388 -34.4201,-26.06364 -30.2381,-45.47619 7.4807,-34.72449 47.4009,-49.39009 78.8096,-39.28572 46.0933,14.82856 64.7005,68.99035 48.3333,112.14285 -21.8149,57.5155 -90.6644,80.14986 -145.4762,57.38097 -68.975,-28.65233 -95.6698,-112.37761 -66.4286,-178.80951 35.415,-80.457943 134.1126,-111.2303243 212.1429,-75.47622 91.9559,42.134974 126.8163,155.86118 84.5238,245.47618 -48.8284,103.46406 -177.6188,142.41936 -278.8095,93.57146 C 1447.1636,313.28667 1404.1086,169.40799 1459.5238,56.647919 1521.6913,-69.851839 1680.6752,-117.00994 1805,-55.01879 c 138.024,68.821924 189.2879,242.92355 120.7143,378.8095"
       sodipodi:t0="0"
       sodipodi:argument="-18.329201"
       sodipodi:radius="293.07657"
       sodipodi:revolution="3"
       sodipodi:expansion="1"
       sodipodi:cy="178.07646"
       sodipodi:cx="1671.4286"
       id="path3022"
       style="fill:#000080;stroke:#000000;stroke-width:4.78808022px;stroke-linecap:butt;stroke-linejoin:miter;stroke-opacity:1"
       sodipodi:type="spiral" />
    <path
       sodipodi:type="spiral"
       style="fill:#ff00ff;stroke:#000000;stroke-width:3.20196104px;stroke-linecap:butt;stroke-linejoin:miter;stroke-opacity:1"
       id="path3024"
       sodipodi:cx="1671.4286"
       sodipodi:cy="178.07646"
       sodipodi:expansion="1"
       sodipodi:revolution="3"
       sodipodi:radius="293.07657"
       sodipodi:argument="-18.329201"
       sodipodi:t0="0"
       d="m 1671.4286,178.07646 c 12.7495,7.30588 -3.558,20.79051 -12.1429,21.19048 -23.2643,1.08388 -34.4201,-26.06364 -30.2381,-45.47619 7.4807,-34.72449 47.4009,-49.39009 78.8096,-39.28572 46.0933,14.82856 64.7005,68.99035 48.3333,112.14285 -21.8149,57.5155 -90.6644,80.14986 -145.4762,57.38097 -68.975,-28.65233 -95.6698,-112.37761 -66.4286,-178.80951 35.415,-80.457943 134.1126,-111.2303243 212.1429,-75.47622 91.9559,42.134974 126.8163,155.86118 84.5238,245.47618 -48.8284,103.46406 -177.6188,142.41936 -278.8095,93.57146 C 1447.1636,313.28667 1404.1086,169.40799 1459.5238,56.647919 1521.6913,-69.851839 1680.6752,-117.00994 1805,-55.01879 c 138.024,68.821924 189.2879,242.92355 120.7143,378.8095"
       transform="matrix(0.37578121,0.0205243,-0.37501544,0.23907458,1053.8684,-47.998078)" />
    <path
       transform="matrix(0.40731292,0.1152199,-0.5505008,0.34352376,958.63958,-86.862235)"
       d="m 1671.4286,178.07646 c 12.7495,7.30588 -3.558,20.79051 -12.1429,21.19048 -23.2643,1.08388 -34.4201,-26.06364 -30.2381,-45.47619 7.4807,-34.72449 47.4009,-49.39009 78.8096,-39.28572 46.0933,14.82856 64.7005,68.99035 48.3333,112.14285 -21.8149,57.5155 -90.6644,80.14986 -145.4762,57.38097 -68.975,-28.65233 -95.6698,-112.37761 -66.4286,-178.80951 35.415,-80.457943 134.1126,-111.2303243 212.1429,-75.47622 91.9559,42.134974 126.8163,155.86118 84.5238,245.47618 -48.8284,103.46406 -177.6188,142.41936 -278.8095,93.57146 C 1447.1636,313.28667 1404.1086,169.40799 1459.5238,56.647919 1521.6913,-69.851839 1680.6752,-117.00994 1805,-55.01879 c 138.024,68.821924 189.2879,242.92355 120.7143,378.8095"
       sodipodi:t0="0"
       sodipodi:argument="-18.329201"
       sodipodi:radius="293.07657"
       sodipodi:revolution="3"
       sodipodi:expansion="1"
       sodipodi:cy="178.07646"
       sodipodi:cx="1671.4286"
       id="path3026"
       style="fill:#000080;stroke:#000000;stroke-width:2.21757078px;stroke-linecap:butt;stroke-linejoin:miter;stroke-opacity:1"
       sodipodi:type="spiral" />
    <path
       sodipodi:type="spiral"
       style="fill:#ffff00;stroke:#000000;stroke-width:1.65636694px;stroke-linecap:butt;stroke-linejoin:miter;stroke-opacity:1"
       id="path3028"
       sodipodi:cx="1671.4286"
       sodipodi:cy="178.07646"
       sodipodi:expansion="1"
       sodipodi:revolution="2.9485071"
       sodipodi:radius="288.04593"
       sodipodi:argument="-18.329201"
       sodipodi:t0="0"
       d="m 1671.4286,178.07646 c 12.7495,7.30588 -3.558,20.7905 -12.1429,21.19047 -23.2643,1.08388 -34.4201,-26.06363 -30.238,-45.47616 7.4806,-34.72447 47.4008,-49.39006 78.8094,-39.2857 46.0934,14.82855 64.7005,68.9903 48.3333,112.14278 -21.8148,57.51546 -90.6643,80.14981 -145.476,57.38093 -68.975,-28.65231 -95.6698,-112.37753 -66.4286,-178.8094 35.415,-80.457886 134.1125,-111.2302476 212.1427,-75.476166 91.9559,42.134948 126.8163,155.861076 84.5238,245.476016 -48.8283,103.464 -177.6187,142.41928 -278.8093,93.57141 C 1447.1637,313.28658 1404.1088,169.408 1459.5239,56.647996 c 62.1675,-126.499678 221.1513,-173.657746 345.476,-111.666638 106.3657,53.0363441 165.7324,172.519762 148.9137,289.421722"
       transform="matrix(0.55211257,0.09266208,-0.58423893,0.56212089,813.21807,82.609918)" />
    <path
       transform="matrix(0.55281025,-0.01410936,-0.36471625,0.60745249,1033.3841,342.11547)"
       d="m 1671.4286,178.07646 c 12.7495,7.30588 -3.558,20.79051 -12.1429,21.19048 -23.2643,1.08388 -34.4201,-26.06364 -30.2381,-45.47619 7.4807,-34.72449 47.4009,-49.39009 78.8096,-39.28572 46.0933,14.82856 64.7005,68.99035 48.3333,112.14285 -21.8149,57.5155 -90.6644,80.14986 -145.4762,57.38097 -68.975,-28.65233 -95.6698,-112.37761 -66.4286,-178.80951 35.415,-80.457943 134.1126,-111.2303243 212.1429,-75.47622 91.9559,42.134974 126.8163,155.86118 84.5238,245.47618 -48.8284,103.46406 -177.6188,142.41936 -278.8095,93.57146 C 1447.1636,313.28667 1404.1086,169.40799 1459.5238,56.647919 1521.6913,-69.851839 1680.6752,-117.00994 1805,-55.01879 c 138.024,68.821924 189.2879,242.92355 120.7143,378.8095"
       sodipodi:t0="0"
       sodipodi:argument="-18.329201"
       sodipodi:radius="293.07657"
       sodipodi:revolution="3"
       sodipodi:expansion="1"
       sodipodi:cy="178.07646"
       sodipodi:cx="1671.4286"
       id="path3030"
       style="fill:#00ff00;stroke:#000000;stroke-width:1.73903775px;stroke-linecap:butt;stroke-linejoin:miter;stroke-opacity:1"
       sodipodi:type="spiral" />
    <path
       transform="matrix(-0.02527586,0.48781183,-0.29180913,0.04094749,2233.6151,-446.48805)"
       d="m 1671.4286,178.07646 c 12.7495,7.30588 -3.558,20.79051 -12.1429,21.19048 -23.2643,1.08388 -34.4201,-26.06364 -30.2381,-45.47619 7.4807,-34.72449 47.4009,-49.39009 78.8096,-39.28572 46.0933,14.82856 64.7005,68.99035 48.3333,112.14285 -21.8149,57.5155 -90.6644,80.14986 -145.4762,57.38097 -68.975,-28.65233 -95.6698,-112.37761 -66.4286,-178.80951 35.415,-80.457943 134.1126,-111.2303243 212.1429,-75.47622 91.9559,42.134974 126.8163,155.86118 84.5238,245.47618 -48.8284,103.46406 -177.6188,142.41936 -278.8095,93.57146 C 1447.1636,313.28667 1404.1086,169.40799 1459.5238,56.647919 1521.6913,-69.851839 1680.6752,-117.00994 1805,-55.01879 c 138.024,68.821924 189.2879,242.92355 120.7143,378.8095"
       sodipodi:t0="0"
       sodipodi:argument="-18.329201"
       sodipodi:radius="293.07657"
       sodipodi:revolution="3"
       sodipodi:expansion="1"
       sodipodi:cy="178.07646"
       sodipodi:cx="1671.4286"
       id="path3032"
       style="fill:#000080;stroke:#000000;stroke-width:2.66016769px;stroke-linecap:butt;stroke-linejoin:miter;stroke-opacity:1"
       sodipodi:type="spiral" />
    <flowRoot
       xml:space="preserve"
       id="flowRoot3034"
       style="font-size:40px;font-style:normal;font-weight:normal;line-height:125%;letter-spacing:0px;word-spacing:0px;fill:#000000;fill-opacity:1;stroke:none;font-family:Sans"
       transform="matrix(3.3492599,0,0,5.6765921,-3102.1439,-3324.6268)"><flowRegion
         id="flowRegion3036"><rect
           id="rect3038"
           width="654.28571"
           height="91.428574"
           x="1337.1428"
           y="689.50507" /></flowRegion><flowPara
         id="flowPara3040"
         style="font-style:normal;font-variant:normal;font-weight:normal;font-stretch:normal;fill:#ff0000;font-family:Courier 10 Pitch;-inkscape-font-specification:Courier 10 Pitch">GLAMOUR TOUCH</flowPara></flowRoot>    <path
       sodipodi:type="arc"
       style="opacity:0.71193417000000003;color:#000000;fill:url(#radialGradient3058);fill-opacity:1;fill-rule:nonzero;stroke:#d78b31;stroke-width:0.73368138000000005;stroke-linecap:square;stroke-linejoin:round;stroke-miterlimit:4;stroke-opacity:0.80710658999999985;stroke-dasharray:none;stroke-dashoffset:0;marker:none;visibility:visible;display:inline;overflow:visible;enable-background:accumulate"
       id="path3042"
       sodipodi:cx="1867.1428"
       sodipodi:cy="629.50507"
       sodipodi:rx="415.71429"
       sodipodi:ry="88.571426"
       d="m 1881.9,540.98946 a 415.71429,88.571426 0 1 1 -30.431,0.007"
       sodipodi:start="4.7478949"
       sodipodi:end="10.957862"
       sodipodi:open="true"
       transform="translate(-17.142857,40)" />
    <flowRoot
       transform="matrix(3.3492599,0,0,-5.6765921,-3100.7153,4915.5145)"
       style="font-size:40px;font-style:normal;font-weight:normal;line-height:125%;letter-spacing:0px;word-spacing:0px;fill:url(#radialGradient3074);fill-opacity:1;stroke:none;font-family:Sans"
       id="flowRoot3060"
       xml:space="preserve"><flowRegion
         id="flowRegion3062"
         style="fill:url(#radialGradient3074)"><rect
           y="689.50507"
           x="1337.1428"
           height="91.428574"
           width="654.28571"
           id="rect3064"
           style="fill:url(#radialGradient3074)" /></flowRegion><flowPara
         style="font-style:normal;font-variant:normal;font-weight:normal;font-stretch:normal;fill:url(#radialGradient3074);font-family:Courier 10 Pitch;-inkscape-font-specification:Courier 10 Pitch"
         id="flowPara3066">GLAMOUR TOUCH</flowPara></flowRoot>  </g>
</svg>
