<?xml version="1.0" encoding="UTF-8" standalone="no"?>
<!-- Created with Inkscape (http://www.inkscape.org/) -->

<svg
   xmlns:dc="http://purl.org/dc/elements/1.1/"
   xmlns:cc="http://creativecommons.org/ns#"
   xmlns:rdf="http://www.w3.org/1999/02/22-rdf-syntax-ns#"
   xmlns:svg="http://www.w3.org/2000/svg"
   xmlns="http://www.w3.org/2000/svg"
   xmlns:xlink="http://www.w3.org/1999/xlink"
   xmlns:sodipodi="http://sodipodi.sourceforge.net/DTD/sodipodi-0.dtd"
   xmlns:inkscape="http://www.inkscape.org/namespaces/inkscape"
   width="744.09448819"
   height="1052.3622047"
   id="svg2"
   version="1.1"
   inkscape:version="0.48.4 r9939"
   sodipodi:docname="vine.svg"
   inkscape:export-filename="/home/ab-ist/Desktop/Logos/vine.png"
   inkscape:export-xdpi="90"
   inkscape:export-ydpi="90">
  <defs
     id="defs4">
    <linearGradient
       inkscape:collect="always"
       id="linearGradient3116">
      <stop
         style="stop-color:#ff6600;stop-opacity:1;"
         offset="0"
         id="stop3118" />
      <stop
         style="stop-color:#ff6600;stop-opacity:0;"
         offset="1"
         id="stop3120" />
    </linearGradient>
    <linearGradient
       inkscape:collect="always"
       id="linearGradient3350">
      <stop
         style="stop-color:#501616;stop-opacity:1;"
         offset="0"
         id="stop3352" />
      <stop
         style="stop-color:#501616;stop-opacity:0;"
         offset="1"
         id="stop3354" />
    </linearGradient>
    <inkscape:path-effect
       effect="spiro"
       id="path-effect3344"
       is_visible="true" />
    <linearGradient
       inkscape:collect="always"
       id="linearGradient3312">
      <stop
         style="stop-color:#ff6600;stop-opacity:1;"
         offset="0"
         id="stop3314" />
      <stop
         style="stop-color:#ff6600;stop-opacity:0;"
         offset="1"
         id="stop3316" />
    </linearGradient>
    <linearGradient
       inkscape:collect="always"
       id="linearGradient3260">
      <stop
         style="stop-color:#c83737;stop-opacity:1;"
         offset="0"
         id="stop3262" />
      <stop
         style="stop-color:#c83737;stop-opacity:0;"
         offset="1"
         id="stop3264" />
    </linearGradient>
    <linearGradient
       inkscape:collect="always"
       id="linearGradient3248">
      <stop
         style="stop-color:#a02c2c;stop-opacity:1;"
         offset="0"
         id="stop3250" />
      <stop
         style="stop-color:#a02c2c;stop-opacity:0;"
         offset="1"
         id="stop3252" />
    </linearGradient>
    <inkscape:path-effect
       effect="spiro"
       id="path-effect3244"
       is_visible="true" />
    <inkscape:path-effect
       effect="spiro"
       id="path-effect3242"
       is_visible="true" />
    <inkscape:path-effect
       effect="spiro"
       id="path-effect3240"
       is_visible="true" />
    <inkscape:path-effect
       effect="spiro"
       id="path-effect3238"
       is_visible="true" />
    <inkscape:path-effect
       effect="spiro"
       id="path-effect3236"
       is_visible="true" />
    <inkscape:path-effect
       effect="spiro"
       id="path-effect3234"
       is_visible="true" />
    <inkscape:path-effect
       is_visible="true"
       id="path-effect3232"
       effect="spiro" />
    <inkscape:path-effect
       is_visible="true"
       id="path-effect3230"
       effect="spiro" />
    <inkscape:path-effect
       is_visible="true"
       id="path-effect3212"
       effect="spiro" />
    <inkscape:path-effect
       is_visible="true"
       id="path-effect3210"
       effect="spiro" />
    <inkscape:path-effect
       is_visible="true"
       id="path-effect3208"
       effect="spiro" />
    <inkscape:path-effect
       is_visible="true"
       id="path-effect3206"
       effect="spiro" />
    <inkscape:path-effect
       is_visible="true"
       id="path-effect3204"
       effect="spiro" />
    <inkscape:path-effect
       is_visible="true"
       id="path-effect3202"
       effect="spiro" />
    <inkscape:path-effect
       is_visible="true"
       id="path-effect3200"
       effect="spiro" />
    <inkscape:path-effect
       is_visible="true"
       id="path-effect3198"
       effect="spiro" />
    <inkscape:path-effect
       is_visible="true"
       id="path-effect3196"
       effect="spiro" />
    <inkscape:path-effect
       is_visible="true"
       id="path-effect3194"
       effect="spiro" />
    <inkscape:path-effect
       is_visible="true"
       id="path-effect3192"
       effect="spiro" />
    <inkscape:path-effect
       is_visible="true"
       id="path-effect3190"
       effect="spiro" />
    <inkscape:path-effect
       is_visible="true"
       id="path-effect3188"
       effect="spiro" />
    <inkscape:path-effect
       is_visible="true"
       id="path-effect3186"
       effect="spiro" />
    <inkscape:path-effect
       is_visible="true"
       id="path-effect3168"
       effect="spiro" />
    <inkscape:path-effect
       is_visible="true"
       id="path-effect3166"
       effect="spiro" />
    <inkscape:path-effect
       is_visible="true"
       id="path-effect3164"
       effect="spiro" />
    <inkscape:path-effect
       is_visible="true"
       id="path-effect3162"
       effect="spiro" />
    <inkscape:path-effect
       is_visible="true"
       id="path-effect3160"
       effect="spiro" />
    <inkscape:path-effect
       is_visible="true"
       id="path-effect3158"
       effect="spiro" />
    <inkscape:path-effect
       is_visible="true"
       id="path-effect3156"
       effect="spiro" />
    <inkscape:path-effect
       is_visible="true"
       id="path-effect3154"
       effect="spiro" />
    <inkscape:path-effect
       effect="spiro"
       id="path-effect3124"
       is_visible="true" />
    <inkscape:path-effect
       effect="spiro"
       id="path-effect3120"
       is_visible="true" />
    <linearGradient
       inkscape:collect="always"
       id="linearGradient3102">
      <stop
         style="stop-color:#782121;stop-opacity:1;"
         offset="0"
         id="stop3104" />
      <stop
         style="stop-color:#782121;stop-opacity:0;"
         offset="1"
         id="stop3106" />
    </linearGradient>
    <linearGradient
       inkscape:collect="always"
       id="linearGradient3094">
      <stop
         style="stop-color:#782121;stop-opacity:1;"
         offset="0"
         id="stop3096" />
      <stop
         style="stop-color:#782121;stop-opacity:0;"
         offset="1"
         id="stop3098" />
    </linearGradient>
    <inkscape:path-effect
       effect="spiro"
       id="path-effect3092"
       is_visible="true" />
    <inkscape:path-effect
       effect="spiro"
       id="path-effect3090"
       is_visible="true" />
    <inkscape:path-effect
       effect="spiro"
       id="path-effect3088"
       is_visible="true" />
    <inkscape:path-effect
       effect="spiro"
       id="path-effect3086"
       is_visible="true" />
    <inkscape:path-effect
       effect="spiro"
       id="path-effect3084"
       is_visible="true" />
    <inkscape:path-effect
       is_visible="true"
       id="path-effect3062"
       effect="spiro" />
    <inkscape:path-effect
       is_visible="true"
       id="path-effect3060"
       effect="spiro" />
    <inkscape:path-effect
       is_visible="true"
       id="path-effect3058"
       effect="spiro" />
    <inkscape:path-effect
       is_visible="true"
       id="path-effect3056"
       effect="spiro" />
    <inkscape:path-effect
       is_visible="true"
       id="path-effect3054"
       effect="spiro" />
    <inkscape:path-effect
       is_visible="true"
       id="path-effect3042"
       effect="spiro" />
    <inkscape:path-effect
       is_visible="true"
       id="path-effect3040"
       effect="spiro" />
    <inkscape:path-effect
       is_visible="true"
       id="path-effect3038"
       effect="spiro" />
    <inkscape:path-effect
       is_visible="true"
       id="path-effect3036"
       effect="spiro" />
    <inkscape:path-effect
       is_visible="true"
       id="path-effect3034"
       effect="spiro" />
    <inkscape:path-effect
       effect="spiro"
       id="path-effect3022"
       is_visible="true" />
    <inkscape:path-effect
       effect="spiro"
       id="path-effect3018"
       is_visible="true" />
    <inkscape:path-effect
       effect="spiro"
       id="path-effect3014"
       is_visible="true" />
    <inkscape:path-effect
       effect="spiro"
       id="path-effect3010"
       is_visible="true" />
    <inkscape:path-effect
       effect="spiro"
       id="path-effect2987"
       is_visible="true" />
    <radialGradient
       inkscape:collect="always"
       xlink:href="#linearGradient3094"
       id="radialGradient3100"
       cx="1167.1062"
       cy="486.3634"
       fx="1167.1062"
       fy="486.3634"
       r="323.49923"
       gradientTransform="matrix(0.73711203,0.1424223,-0.06317419,0.63085783,-53.844,-209.93378)"
       gradientUnits="userSpaceOnUse" />
    <radialGradient
       inkscape:collect="always"
       xlink:href="#linearGradient3102"
       id="radialGradient3108"
       cx="787.7677"
       cy="361.89062"
       fx="787.7677"
       fy="361.89062"
       r="723.91149"
       gradientTransform="matrix(0.81306228,-0.00776467,0.00448011,0.9051644,-57.3418,-101.08464)"
       gradientUnits="userSpaceOnUse" />
    <radialGradient
       inkscape:collect="always"
       xlink:href="#linearGradient3094"
       id="radialGradient3114"
       gradientUnits="userSpaceOnUse"
       gradientTransform="matrix(-0.73711203,0.1424223,0.06317419,0.63085783,809.277,-209.93378)"
       cx="1167.1062"
       cy="486.3634"
       fx="1167.1062"
       fy="486.3634"
       r="323.49923" />
    <radialGradient
       inkscape:collect="always"
       xlink:href="#linearGradient3102"
       id="radialGradient3116"
       gradientUnits="userSpaceOnUse"
       gradientTransform="matrix(-0.81306228,-0.00776467,-0.00448011,0.9051644,812.7748,-101.08464)"
       cx="787.7677"
       cy="361.89062"
       fx="787.7677"
       fy="361.89062"
       r="723.91149" />
    <radialGradient
       inkscape:collect="always"
       xlink:href="#linearGradient3248"
       id="radialGradient3254"
       cx="-495.73599"
       cy="1522.6298"
       fx="-495.73599"
       fy="1522.6298"
       r="736.64911"
       gradientTransform="matrix(0.40355195,-0.00192479,0.00178772,0.19038416,581.9952,273.33821)"
       gradientUnits="userSpaceOnUse" />
    <radialGradient
       inkscape:collect="always"
       xlink:href="#linearGradient3260"
       id="radialGradient3266"
       cx="-1331.4286"
       cy="700.93414"
       fx="-1331.4286"
       fy="700.93414"
       r="106.13291"
       gradientTransform="matrix(1.6083055,0.03335659,-0.03331631,2.4114292,833.26782,-944.90698)"
       gradientUnits="userSpaceOnUse" />
    <radialGradient
       inkscape:collect="always"
       xlink:href="#linearGradient3260"
       id="radialGradient3270"
       gradientUnits="userSpaceOnUse"
       gradientTransform="matrix(1.6083055,0.03335659,-0.03331631,2.4114292,833.26782,-944.90698)"
       cx="-1331.4286"
       cy="700.93414"
       fx="-1331.4286"
       fy="700.93414"
       r="106.13291" />
    <radialGradient
       inkscape:collect="always"
       xlink:href="#linearGradient3260"
       id="radialGradient3274"
       gradientUnits="userSpaceOnUse"
       gradientTransform="matrix(1.6083055,0.03335659,-0.03331631,2.4114292,833.26782,-944.90698)"
       cx="-1331.4286"
       cy="700.93414"
       fx="-1331.4286"
       fy="700.93414"
       r="106.13291" />
    <radialGradient
       inkscape:collect="always"
       xlink:href="#linearGradient3260"
       id="radialGradient3290"
       gradientUnits="userSpaceOnUse"
       gradientTransform="matrix(1.6083055,0.03335659,-0.03331631,2.4114292,833.26782,-944.90698)"
       cx="-1331.4286"
       cy="700.93414"
       fx="-1331.4286"
       fy="700.93414"
       r="106.13291" />
    <radialGradient
       inkscape:collect="always"
       xlink:href="#linearGradient3260"
       id="radialGradient3294"
       gradientUnits="userSpaceOnUse"
       gradientTransform="matrix(1.6083055,0.03335659,-0.03331631,2.4114292,833.26782,-944.90698)"
       cx="-1331.4286"
       cy="700.93414"
       fx="-1331.4286"
       fy="700.93414"
       r="106.13291" />
    <radialGradient
       inkscape:collect="always"
       xlink:href="#linearGradient3312"
       id="radialGradient3318"
       cx="-426.47327"
       cy="984.83258"
       fx="-426.47327"
       fy="984.83258"
       r="179.19922"
       gradientTransform="matrix(1.5283235,-0.0106295,0.00761174,0.14302264,85.001735,777.06867)"
       gradientUnits="userSpaceOnUse" />
    <radialGradient
       inkscape:collect="always"
       xlink:href="#linearGradient3312"
       id="radialGradient3324"
       gradientUnits="userSpaceOnUse"
       gradientTransform="matrix(1.5283235,-0.0106295,0.00761174,0.14302264,85.001735,777.06867)"
       cx="-426.47327"
       cy="984.83258"
       fx="-426.47327"
       fy="984.83258"
       r="179.19922" />
    <radialGradient
       inkscape:collect="always"
       xlink:href="#linearGradient3350"
       id="radialGradient3356"
       cx="2383.8752"
       cy="759.66357"
       fx="2383.8752"
       fy="759.66357"
       r="202.10396"
       gradientTransform="matrix(3.0215907,-1.5122283e-6,6.1114544e-7,1.2211327,-6131.2204,-167.98288)"
       gradientUnits="userSpaceOnUse" />
    <radialGradient
       inkscape:collect="always"
       xlink:href="#linearGradient3350"
       id="radialGradient3360"
       gradientUnits="userSpaceOnUse"
       gradientTransform="matrix(-3.0215907,-1.5122283e-6,-6.1114544e-7,1.2211327,6963.5426,-162.2686)"
       cx="2383.8752"
       cy="759.66357"
       fx="2383.8752"
       fy="759.66357"
       r="202.10396" />
    <radialGradient
       inkscape:collect="always"
       xlink:href="#linearGradient3350"
       id="radialGradient3364"
       gradientUnits="userSpaceOnUse"
       gradientTransform="matrix(2.2668068,-1.0137754,0.43054043,0.87175979,-4703.5573,2432.2499)"
       cx="2383.8752"
       cy="759.66357"
       fx="2383.8752"
       fy="759.66357"
       r="202.10396" />
    <radialGradient
       inkscape:collect="always"
       xlink:href="#linearGradient3350"
       id="radialGradient3368"
       gradientUnits="userSpaceOnUse"
       gradientTransform="matrix(-2.2668068,-1.0137754,-0.43054043,0.87175979,5554.2345,2443.6785)"
       cx="2383.8752"
       cy="759.66357"
       fx="2383.8752"
       fy="759.66357"
       r="202.10396" />
    <radialGradient
       inkscape:collect="always"
       xlink:href="#linearGradient3116"
       id="radialGradient3122"
       cx="711.85388"
       cy="1152.5554"
       fx="711.85388"
       fy="1152.5554"
       r="154.755"
       gradientTransform="matrix(-0.00609525,0.17415079,-1.5335507,-0.02054484,2483.695,1058.5584)"
       gradientUnits="userSpaceOnUse" />
    <radialGradient
       inkscape:collect="always"
       xlink:href="#linearGradient3116"
       id="radialGradient3124"
       gradientUnits="userSpaceOnUse"
       gradientTransform="matrix(-0.00609525,0.17415079,-1.5335507,-0.02054484,2483.695,1058.5584)"
       cx="711.85388"
       cy="1152.5554"
       fx="711.85388"
       fy="1152.5554"
       r="154.755" />
    <radialGradient
       inkscape:collect="always"
       xlink:href="#linearGradient3116"
       id="radialGradient3126"
       gradientUnits="userSpaceOnUse"
       gradientTransform="matrix(-0.00609525,0.17415079,-1.5335507,-0.02054484,2483.695,1058.5584)"
       cx="711.85388"
       cy="1152.5554"
       fx="711.85388"
       fy="1152.5554"
       r="154.755" />
    <radialGradient
       inkscape:collect="always"
       xlink:href="#linearGradient3116"
       id="radialGradient3128"
       gradientUnits="userSpaceOnUse"
       gradientTransform="matrix(-0.00609525,0.17415079,-1.5335507,-0.02054484,2483.695,1058.5584)"
       cx="711.85388"
       cy="1152.5554"
       fx="711.85388"
       fy="1152.5554"
       r="154.755" />
  </defs>
  <sodipodi:namedview
     id="base"
     pagecolor="#ffffff"
     bordercolor="#666666"
     borderopacity="1.0"
     inkscape:pageopacity="0.0"
     inkscape:pageshadow="2"
     inkscape:zoom="0.35"
     inkscape:cx="412.37487"
     inkscape:cy="467.69348"
     inkscape:document-units="px"
     inkscape:current-layer="layer1"
     showgrid="false"
     inkscape:window-width="1366"
     inkscape:window-height="744"
     inkscape:window-x="0"
     inkscape:window-y="24"
     inkscape:window-maximized="1" />
  <metadata
     id="metadata7">
    <rdf:RDF>
      <cc:Work
         rdf:about="">
        <dc:format>image/svg+xml</dc:format>
        <dc:type
           rdf:resource="http://purl.org/dc/dcmitype/StillImage" />
        <dc:title />
      </cc:Work>
    </rdf:RDF>
  </metadata>
  <g
     inkscape:label="Layer 1"
     inkscape:groupmode="layer"
     id="layer1">
    <path
       inkscape:connector-curvature="0"
       id="path3080"
       d="m 806.6752,341.47887 c 9.4211,-2.4984 13.0341,-5.31615 16.3965,-12.78775 6.4363,-14.302 7.7,-29.89877 3.5821,-44.21093 -1.2461,-4.331 -1.9843,-8.29879 -1.6405,-8.81732 0.8035,-1.21162 11.0056,9.3978 24.5709,25.55179 9.7728,11.63797 11.3821,12.85498 18.8334,14.24325 8.606,1.60343 11.1484,0.9072 26.2399,-7.18572 4.3716,-2.34428 12.9826,-5.06846 19.1356,-6.05364 l 11.1873,-1.7913 -81.1918,-44.65707 c -44.6555,-24.56144 -81.9951,-45.0425 -82.9769,-45.51358 -0.9817,-0.47102 1.4578,4.61307 5.4211,11.29799 3.9633,6.68498 8.8122,16.14255 10.7752,21.01685 4.7807,11.87059 11.5508,36.75826 10.4253,38.32497 -0.4957,0.6901 -1.1574,0.38435 -1.4705,-0.67953 -2.7267,-9.26656 -13.298,-27.99404 -22.5287,-39.91056 -16.896,-21.81233 -40.5843,-37.69055 -64.4367,-43.19174 -18.3622,-4.23499 -46.3342,-0.25257 -61.7071,8.78536 -8.7017,5.11585 -19.14,12.58944 -19.0923,13.66969 0.028,0.6291 4.6728,3.31271 10.3223,5.9635 29.249,13.72436 58.1461,50.04682 72.452,91.06928 l 4.9149,14.09391 2.1605,-11.81569 c 1.6119,-8.81579 1.9709,-17.50001 1.4143,-34.20446 -0.6434,-19.31159 -1.2944,-24.28451 -4.7358,-36.18096 -2.1944,-7.58566 -4.0084,-14.28117 -4.0313,-14.87884 -0.096,-2.51462 15.6243,1.2339 22.3248,5.32338 11.6023,7.08118 17.7545,17.31293 30.5214,50.76077 12.038,31.53825 17.6274,41.07214 27.9373,47.65244 7.1364,4.55499 17.3019,6.21952 25.1968,4.12591 l 0,0 z"
       style="opacity:0.71193417;fill:url(#radialGradient3100);fill-opacity:1;stroke:#d78b31;stroke-width:0.73400003;stroke-linecap:square;stroke-linejoin:round;stroke-miterlimit:4;stroke-opacity:0.80710659;stroke-dasharray:none;stroke-dashoffset:0" />
    <path
       inkscape:connector-curvature="0"
       id="path3082"
       d="m 473.2476,430.88227 c 14.5595,-5.70835 29.534,-24.42345 35.0343,-43.78598 2.4684,-8.68953 3.0578,-14.46685 3.0953,-30.34399 0.042,-17.73325 -0.3126,-20.63325 -3.7028,-30.28817 -4.0503,-11.53462 -14.3253,-27.61075 -17.6474,-27.61075 -2.8123,0 -8.7732,13.60436 -11.7344,26.78121 -2.5584,11.38447 -3.339,31.11771 -1.2309,31.11771 0.671,0 4.0245,-4.33277 7.4522,-9.62838 l 6.2321,-9.62837 4.6239,6.22528 c 5.7954,7.80254 7.8403,16.22929 7.0698,29.13466 -0.7648,12.8113 -5.7591,22.01954 -15.9086,29.332 -6.7013,4.82808 -8.3051,5.2188 -18.7569,4.56961 -13.3729,-0.83066 -23.1946,-6.15293 -32.1928,-17.44497 -8.5923,-10.78268 -11.3636,-19.62609 -11.3738,-36.29525 -0.011,-16.89103 3.2536,-31.84985 12.7237,-58.31147 13.9278,-38.91783 25.2507,-56.50282 44.7967,-69.5718 19.9423,-13.33393 43.6012,-18.50853 107.0595,-23.41571 35.9805,-2.7824 47.9949,-7.01823 65.729,-23.17374 21.268,-19.37475 34.0579,-47.71496 37.0828,-82.16938 1.3821,-15.742001 3.3649,-9.656828 3.3905,10.4052 0.035,27.61772 -6.4561,48.37603 -20.8361,66.63167 l -7.1516,9.07901 24.4247,1.17548 c 55.9715,2.69378 94.2053,17.68739 167.6239,65.73482 13.6812,8.95343 35.0903,22.93086 47.5756,31.06096 21.4291,13.9539 28.2114,17.33509 20.2644,10.10218 -7.1164,-6.47689 -25.2623,-29.91804 -32.4476,-41.91607 -8.76,-14.62747 -18.3958,-33.79303 -17.5681,-34.94275 0.322,-0.44733 6.2704,6.46414 13.2186,15.35881 28.9493,37.05943 61.7636,70.3584 78.8227,79.98691 24.0404,13.56894 55.692,3.35504 75.2028,-24.26787 10.1047,-14.30618 14.2211,-27.52237 14.2844,-45.86245 0.1182,-34.28141 -22.289,-60.66102 -45.774,-53.88877 -10.6268,3.06443 -16.4303,11.14786 -16.4303,22.88487 0,7.11537 0.6432,9.17719 4.1369,13.26072 7.8257,9.14673 18.2748,5.05798 21.6725,-8.48049 1.0984,-4.37677 2.1239,-5.36006 5.5839,-5.35431 5.5201,0.009 12.3191,5.87204 15.6747,13.51683 3.5197,8.01885 3.576,23.41225 0.12,32.8223 -5.4166,14.74801 -25.9603,36.38703 -40.8813,43.06089 -15.2254,6.81003 -25.5702,7.06661 -16.6189,0.41223 10.2736,-7.63735 9.9772,-31.47646 -0.4982,-40.07186 -5.661,-4.64512 -11.5978,-3.717 -20.6583,3.22971 -11.3976,8.73844 -14.5449,9.47549 -21.6965,5.0812 -6.4485,-3.9622 -7.8739,-7.62584 -2.9716,-7.63715 4.7111,-0.0111 11.1242,-6.4082 13.1143,-13.08193 1.881,-6.30792 1.9718,-5.43537 -3.1614,-30.3836 -1.2138,-5.89937 -1.0422,-8.10638 1.0495,-13.50161 1.3752,-3.54723 3.7353,-6.99391 5.2445,-7.65931 2.6647,-1.17476 2.671,-1.28379 0.2187,-3.77458 -3.9457,-4.00772 -13.0586,-3.18586 -18.1561,1.63745 -2.6896,2.54484 -6.878,10.26174 -10.6195,19.56543 -3.3979,8.4497 -6.5476,15.3836 -6.9992,15.40857 -0.4517,0.0249 -2.6706,-4.78716 -4.9309,-10.69384 -7.5004,-19.59897 -8.5238,-42.06894 -2.8659,-62.92382 1.3769,-5.07496 2.2655,-9.55765 1.9747,-9.96151 -1.0924,-1.51747 -12.5023,6.73443 -17.151,12.40411 -5.3217,6.49041 -9.5863,17.6887 -11.119,29.19711 l -0.995,7.47089 -2.5576,-14.00786 c -3.2072,-17.56603 -10.1466,-32.02322 -19.9175,-41.49485 -4.0089,-3.88606 -7.7596,-7.06555 -8.3351,-7.06555 -0.5755,0 -0.1057,3.12695 1.0438,6.94879 2.9677,9.86599 1.761,23.12583 -3.6171,39.74393 -7.7719,24.01518 -5.5499,44.75334 6.12,57.11732 2.6153,2.7709 4.4754,5.42641 4.1336,5.90119 -0.7835,1.08828 -97.607,-53.91753 -97.607,-55.45091 0,-0.62115 2.433,-0.80706 5.4067,-0.41314 3.9077,0.51766 7.4496,-0.6722 12.7754,-4.29159 9.9093,-6.73432 13.3303,-15.03864 16.1217,-39.13419 2.2904,-19.77083 4.2909,-26.93296 9.8851,-35.39034 l 3.5442,-5.358001 -3.3615,1.288516 c -8.0386,3.081315 -20.4444,12.986945 -27.0443,21.593925 -3.9274,5.12172 -7.2303,9.31221 -7.3398,9.31221 -0.1094,0 -0.5366,-4.54205 -0.9491,-10.09343 -0.4124,-5.55139 -1.561,-12.24376 -2.5524,-14.87194 -1.8007,-4.77385 -1.807,-4.76627 -6.4695,7.75879 -5.7958,15.56955 -22.1954,39.08831 -31.3269,44.92609 -3.5396,2.26283 -9.8686,5.35633 -14.0646,6.87441 -7.733,2.79783 -23.3703,3.76772 -24.9679,1.54868 -0.4797,-0.66638 1.2935,-4.5413 3.9403,-8.61096 12.0008,-18.45134 14.8896,-44.13633 7.4029,-65.819645 -3.6895,-10.685526 -8.9967,-19.1277 -16.2605,-25.865656 -4.6078,-4.274104 -4.9976,-4.019554 -6.0033,3.920087 -2.3981,18.931807 -10.8016,44.992374 -19.3604,60.039604 l -2.5455,4.47531 -0.893,-8.27156 c -1.14,-10.55951 -4.9871,-19.32256 -10.5519,-24.03548 -2.4102,-2.04125 -4.7513,-3.714508 -5.2025,-3.718344 -0.4512,-0.0042 -1.164,4.618084 -1.584,10.270964 -1.9097,25.70147 -16.9384,49.79164 -34.7793,55.74917 -3.4503,1.15215 -3.5484,0.95957 -2.9549,-5.80287 0.777,-8.85394 -2.5273,-17.91006 -9.2616,-25.38322 -4.2827,-4.7525 -6.1867,-5.58028 -12.8356,-5.58028 -10.5737,0 -17.7355,4.88671 -43.9871,30.01374 -11.8324,11.32558 -26.9591,25.0027 -33.6148,30.39364 -6.6558,5.39091 -14.069,12.38123 -16.4739,15.53408 -3.3626,4.40834 -4.7394,5.22272 -5.961,3.52591 -1.847,-2.5655 -2.0583,-2.21963 5.1811,-8.48127 4.1951,-3.62841 6.6303,-7.80116 9.6841,-16.59375 5.7844,-16.65445 6.3272,-25.38463 2.9751,-47.85452 -3.9987,-26.80434 -1.9341,-38.742295 8.6373,-49.942478 5.8631,-6.211893 7.0665,-5.091383 3.43,3.193941 -3.6425,8.299076 -3.5289,18.158697 0.3003,26.082337 3.0265,6.26251 12.1826,14.73594 13.6782,12.65841 0.4234,-0.58814 -0.1984,-4.28824 -1.3818,-8.22245 -5.3083,-17.6474 2.8061,-35.67858 19.6016,-43.557209 14.7907,-6.93815 22.8381,-18.673109 22.8475,-33.316845 l 0.01,-7.811452 -6.7848,6.342149 c -7.4553,6.969005 -9.4743,7.634404 -28.1746,9.285926 -14.8062,1.30761 -20.7369,5.049801 -28.0553,17.702511 -8.2251,14.220463 -17.0662,18.397768 -25.7446,12.164029 -2.154,-1.54725 -7.3407,-8.774665 -11.526,-16.06091 -12.058,-20.991984 -26.7727,-31.269974 -41.7036,-29.129435 -30.6796,4.398307 -46.3421,50.138817 -27.1175,79.193346 3.6493,5.51537 13.4954,11.76746 18.5319,11.76746 4.0336,0 4.0595,-0.0629 2.1468,-5.20074 -5.0852,-13.65946 -3.7118,-29.319456 3.5834,-40.860826 5.437,-8.601513 11.0247,-11.837376 20.4409,-11.837376 18.4425,0 34.6042,22.364366 40.4912,56.031232 5.7815,33.06308 -1.7378,67.19919 -19.9658,90.64125 -5.1673,6.64549 -9.9574,12.08268 -10.6447,12.08268 -0.6872,0 -2.1898,-3.15173 -3.3391,-7.00391 -3.7487,-12.56498 -14.1141,-32.35705 -20.7775,-39.67339 -8.101,-8.89473 -15.279,-12.23311 -34.131,-15.87394 -8.1293,-1.56998 -15.8681,-3.33398 -17.1974,-3.91996 -1.9866,-0.87583 -1.7181,0.54028 1.5084,7.95576 6.5399,15.0308 8.8919,27.54345 8.8928,47.30923 0,18.07645 -3.3753,37.45591 -8.0056,45.9528 -2.9183,5.35515 -2.4364,6.24994 2.3409,4.34682 6.2119,-2.4747 17.8563,-14.07763 22.7614,-22.68036 5.1676,-9.06293 10.4562,-26.50378 10.4989,-34.62317 0.017,-3.33856 0.4857,-6.06853 1.0404,-6.0667 1.3488,0.007 7.6204,14.08581 10.3012,23.12926 3.1323,10.56604 4.1444,30.5539 2.1501,42.45799 -0.9262,5.52832 -5.7547,22.23834 -10.7299,37.1333 -13.3603,39.99871 -14.8498,49.05693 -11.6125,70.62321 3.4142,22.7452 14.1384,41.34428 29.8412,51.75389 9.3653,6.20837 25.4395,8.03597 35.6093,4.04868 z"
       style="opacity:0.71193417;fill:url(#radialGradient3108);fill-opacity:1;stroke:#d78b31;stroke-width:0.73400003;stroke-linecap:square;stroke-linejoin:round;stroke-miterlimit:4;stroke-opacity:0.80710659;stroke-dasharray:none;stroke-dashoffset:0" />
    <path
       style="opacity:0.71193417;fill:url(#radialGradient3114);fill-opacity:1;stroke:#d78b31;stroke-width:0.73400003;stroke-linecap:square;stroke-linejoin:round;stroke-miterlimit:4;stroke-opacity:0.80710659;stroke-dasharray:none;stroke-dashoffset:0"
       d="m -51.2421,341.47885 c -9.4212,-2.49838 -13.0342,-5.31614 -16.3966,-12.78771 -6.4363,-14.30205 -7.7,-29.89882 -3.5821,-44.21094 1.2462,-4.33101 1.9844,-8.29882 1.6405,-8.81734 -0.8035,-1.21163 -11.0056,9.39782 -24.5708,25.5518 -9.7729,11.63798 -11.3821,12.85497 -18.8334,14.24322 -8.606,1.60346 -11.1484,0.9072 -26.2399,-7.1857 -4.3716,-2.3443 -12.9827,-5.06845 -19.1357,-6.05363 l -11.1872,-1.79133 81.1918,-44.65703 c 44.6554,-24.56145 81.995,-45.04252 82.9768,-45.51357 0.9817,-0.47105 -1.4578,4.61308 -5.421,11.29799 -3.9633,6.68497 -8.8122,16.14254 -10.7753,21.01683 -4.7807,11.87056 -11.5507,36.75827 -10.4252,38.32499 0.4957,0.69011 1.1574,0.38431 1.4705,-0.67958 2.7267,-9.26656 13.2979,-27.99402 22.5286,-39.91054 16.896,-21.81232 40.5843,-37.69057 64.4367,-43.19173 18.3622,-4.23499 46.3343,-0.25258 61.7071,8.78534 8.7018,5.11584 19.1401,12.58943 19.0923,13.66973 -0.028,0.62905 -4.6728,3.31269 -10.3222,5.96349 -29.249,13.72432 -58.1462,50.04683 -72.452,91.06923 l -4.915,14.09393 -2.1604,-11.81565 c -1.6119,-8.81584 -1.971,-17.50002 -1.4143,-34.20447 0.6434,-19.3116 1.2944,-24.28454 4.7357,-36.181 2.1944,-7.58563 4.0084,-14.28113 4.0313,-14.87881 0.096,-2.51464 -15.6243,1.23392 -22.3248,5.32339 -11.6023,7.08118 -17.7545,17.31292 -30.5213,50.76073 -12.038,31.53824 -17.6275,41.07216 -27.9373,47.65247 -7.1365,4.55497 -17.3019,6.21955 -25.1968,4.12589 l 0,0 z"
       id="path3110"
       inkscape:connector-curvature="0" />
    <path
       style="opacity:0.71193417;fill:url(#radialGradient3116);fill-opacity:1;stroke:#d78b31;stroke-width:0.73400003;stroke-linecap:square;stroke-linejoin:round;stroke-miterlimit:4;stroke-opacity:0.80710659;stroke-dasharray:none;stroke-dashoffset:0"
       d="m 282.1855,430.88227 c -14.5595,-5.70836 -29.534,-24.42346 -35.0343,-43.78599 -2.4685,-8.68953 -3.0578,-14.46685 -3.0953,-30.34398 -0.042,-17.73326 0.3125,-20.63325 3.7028,-30.28817 4.0502,-11.53463 14.3253,-27.61076 17.6474,-27.61076 2.8123,0 8.7731,13.60437 11.7344,26.78121 2.5584,11.38448 3.3389,31.11772 1.2308,31.11772 -0.671,0 -4.0244,-4.33278 -7.4521,-9.62839 l -6.2321,-9.62837 -4.6239,6.22529 c -5.7955,7.80253 -7.8404,16.22929 -7.0699,29.13465 0.7648,12.8113 5.7591,22.01954 15.9087,29.332 6.7013,4.82808 8.3051,5.2188 18.7569,4.56961 13.3729,-0.83066 23.1946,-6.15292 32.1928,-17.44497 8.5923,-10.78267 11.3635,-19.62609 11.3738,-36.29525 0.011,-16.89103 -3.2537,-31.84985 -12.7237,-58.31147 -13.9279,-38.91782 -25.2507,-56.50282 -44.7967,-69.5718 -19.9424,-13.33393 -43.6012,-18.50853 -107.0596,-23.41571 -35.9805,-2.7824 -47.9949,-7.01823 -65.729,-23.17374 -21.268,-19.37474 -34.0578,-47.71496 -37.0828,-82.169379 -1.3821,-15.741999 -3.3649,-9.656826 -3.3905,10.405209 -0.035,27.61772 6.4562,48.37603 20.8361,66.63166 l 7.1516,9.07901 -24.4247,1.17548 c -55.9715,2.69378 -94.2052,17.68739 -167.6239,65.73482 -13.6812,8.95344 -35.0902,22.93086 -47.5756,31.06097 -21.429,13.95389 -28.2114,17.33508 -20.2643,10.10218 7.1163,-6.4769 25.2623,-29.91805 32.4475,-41.91608 8.76,-14.62746 18.3958,-33.79303 17.5681,-34.94275 -0.322,-0.44733 -6.2703,6.46415 -13.2185,15.35882 -28.9493,37.05943 -61.7636,70.35839 -78.8228,79.9869 -24.0404,13.56894 -55.6919,3.35504 -75.2027,-24.26787 -10.1048,-14.30618 -14.2211,-27.52237 -14.2844,-45.86245 -0.1183,-34.2814 22.2889,-60.66101 45.7739,-53.88876 10.6268,3.06442 16.4304,11.14786 16.4304,22.88486 0,7.11537 -0.6432,9.1772 -4.137,13.26072 -7.8256,9.14673 -18.2748,5.05798 -21.6724,-8.48048 -1.0985,-4.37678 -2.1239,-5.36007 -5.5839,-5.35432 -5.5202,0.009 -12.3192,5.87204 -15.6747,13.51684 -3.5198,8.01884 -3.5761,23.41224 -0.12,32.82229 5.4165,14.74801 25.9603,36.38703 40.8813,43.06089 15.2254,6.81003 25.5701,7.06661 16.6188,0.41223 -10.2735,-7.63735 -9.9772,-31.47646 0.4982,-40.07186 5.6611,-4.64511 11.5978,-3.71699 20.6584,3.22972 11.3976,8.73843 14.5448,9.47548 21.6965,5.08119 6.4484,-3.96219 7.8739,-7.62584 2.9715,-7.63715 -4.711,-0.0111 -11.1241,-6.40819 -13.1142,-13.08193 -1.881,-6.30792 -1.9718,-5.43536 3.1613,-30.3836 1.2139,-5.89936 1.0423,-8.10638 -1.0494,-13.50161 -1.3753,-3.54722 -3.7353,-6.99391 -5.2445,-7.65931 -2.6647,-1.17476 -2.6711,-1.28379 -0.2188,-3.77458 3.9458,-4.00772 13.0587,-3.18586 18.1562,1.63745 2.6895,2.54484 6.878,10.26175 10.6194,19.56543 3.398,8.4497 6.5477,15.3836 6.9993,15.40857 0.4516,0.0249 2.6705,-4.78716 4.9309,-10.69384 7.5004,-19.59897 8.5237,-42.06894 2.8658,-62.92381 -1.3768,-5.07496 -2.2654,-9.55765 -1.9747,-9.96152 1.0925,-1.51746 12.5023,6.73443 17.1511,12.40411 5.3217,6.49041 9.5863,17.6887 11.119,29.19712 l 0.995,7.47088 2.5575,-14.00786 c 3.2073,-17.56602 10.1467,-32.02321 19.9176,-41.49485 4.0088,-3.88606 7.7596,-7.06554 8.3351,-7.06554 0.5755,0 0.1057,3.12694 -1.0439,6.94878 -2.9677,9.866 -1.7609,23.12583 3.6171,39.74394 7.7719,24.01517 5.5499,44.75334 -6.1199,57.11731 -2.6153,2.7709 -4.4755,5.42641 -4.1337,5.90119 0.7835,1.08828 97.607,-53.91753 97.607,-55.45091 0,-0.62114 -2.433,-0.80705 -5.4067,-0.41313 -3.9077,0.51766 -7.4496,-0.67221 -12.7754,-4.29159 -9.9092,-6.73433 -13.3303,-15.03865 -16.1217,-39.13419 -2.2903,-19.77084 -4.2908,-26.93297 -9.8851,-35.39034 l -3.5441,-5.35801 3.3615,1.288517 c 8.0385,3.081313 20.4443,12.986953 27.0442,21.593923 3.9274,5.12172 7.2303,9.31221 7.3398,9.31221 0.1095,0 0.5366,-4.54204 0.9491,-10.09343 0.4125,-5.55139 1.5611,-12.24376 2.5524,-14.87194 1.8007,-4.77384 1.807,-4.76626 6.4695,7.7588 5.7958,15.56954 22.1954,39.08831 31.327,44.92608 3.5395,2.26284 9.8685,5.35634 14.0645,6.87442 7.7331,2.79782 23.3704,3.76771 24.9679,1.54867 0.4797,-0.66638 -1.2934,-4.5413 -3.9403,-8.61096 -12.0008,-18.45134 -14.8896,-44.13632 -7.4029,-65.819644 3.6895,-10.685523 8.9967,-19.127694 16.2606,-25.86565 4.6077,-4.274104 4.9975,-4.019555 6.0032,3.920088 2.3981,18.931802 10.8016,44.992376 19.3604,60.039596 l 2.5456,4.47531 0.8929,-8.27156 c 1.14,-10.55951 4.9871,-19.32256 10.5519,-24.03548 2.4102,-2.04125 4.7514,-3.714506 5.2026,-3.718342 0.4511,-0.0042 1.1639,4.618092 1.584,10.270962 1.9096,25.70147 16.9383,49.79164 34.7792,55.74918 3.4504,1.15214 3.5485,0.95956 2.9549,-5.80288 -0.777,-8.85394 2.5273,-17.91006 9.2617,-25.38322 4.2826,-4.7525 6.1867,-5.58027 12.8356,-5.58027 10.5737,0 17.7355,4.8867 43.987,30.01374 11.8325,11.32557 26.9592,25.00269 33.6149,30.39364 6.6557,5.39091 14.069,12.38122 16.4739,15.53407 3.3625,4.40834 4.7394,5.22272 5.961,3.52592 1.8469,-2.56551 2.0583,-2.21964 -5.1812,-8.48127 -4.195,-3.62842 -6.6302,-7.80117 -9.6841,-16.59376 -5.7844,-16.65445 -6.3271,-25.38463 -2.9751,-47.85452 3.9988,-26.80433 1.9342,-38.742293 -8.6373,-49.942475 -5.8631,-6.211892 -7.0665,-5.091383 -3.43,3.193941 3.6425,8.299075 3.529,18.158694 -0.3003,26.082334 -3.0265,6.26251 -12.1825,14.73594 -13.6782,12.65841 -0.4234,-0.58814 0.1984,-4.28824 1.3818,-8.22244 5.3084,-17.64741 -2.806,-35.678587 -19.6016,-43.557212 -14.7906,-6.938151 -22.838,-18.673109 -22.8474,-33.316845 l -0.01,-7.811452 6.7847,6.342149 c 7.4554,6.969005 9.4743,7.634404 28.1747,9.285925 14.8062,1.307612 20.7368,5.049802 28.0552,17.702512 8.2252,14.22046 17.0663,18.397764 25.7446,12.164025 2.1541,-1.54725 7.3408,-8.774661 11.5261,-16.060907 12.058,-20.991983 26.7726,-31.269973 41.7036,-29.129434 30.6795,4.398307 46.342,50.138813 27.1175,79.193339 -3.6494,5.51538 -13.4955,11.76747 -18.532,11.76747 -4.0335,0 -4.0595,-0.0629 -2.1468,-5.20075 5.0852,-13.65945 3.7119,-29.319455 -3.5834,-40.860822 -5.437,-8.60151 -11.0247,-11.837373 -20.4409,-11.837373 -18.4424,0 -34.6041,22.364363 -40.4912,56.031225 -5.7814,33.06308 1.7378,67.1992 19.9658,90.64125 5.1673,6.6455 9.9575,12.08269 10.6447,12.08269 0.6872,0 2.1898,-3.15174 3.3391,-7.00392 3.7487,-12.56498 14.1141,-32.35705 20.7776,-39.67339 8.1009,-8.89473 15.2789,-12.2331 34.1309,-15.87393 8.1294,-1.56999 15.8682,-3.33399 17.1974,-3.91997 1.9866,-0.87582 1.7181,0.54028 -1.5083,7.95577 -6.5399,15.03079 -8.8919,27.54344 -8.8929,47.30923 0,18.07644 3.3753,37.4559 8.0057,45.95279 2.9183,5.35515 2.4364,6.24994 -2.3409,4.34683 -6.2119,-2.4747 -17.8564,-14.07764 -22.7615,-22.68037 -5.1676,-9.06293 -10.4562,-26.50378 -10.4989,-34.62317 -0.017,-3.33855 -0.4857,-6.06853 -1.0404,-6.0667 -1.3488,0.007 -7.6203,14.08581 -10.3012,23.12926 -3.1322,10.56605 -4.1444,30.5539 -2.15,42.45799 0.9262,5.52832 5.7546,22.23834 10.7298,37.1333 13.3603,39.99871 14.8498,49.05693 11.6125,70.62321 -3.4142,22.74521 -14.1384,41.34428 -29.8411,51.75389 -9.3654,6.20837 -25.4395,8.03597 -35.6094,4.04869 z"
       id="path3112"
       inkscape:connector-curvature="0" />
    <path
       style="opacity:0.71193417;fill:url(#radialGradient3254);fill-opacity:1;stroke:#d78b31;stroke-width:0.73400003;stroke-linecap:square;stroke-linejoin:round;stroke-miterlimit:4;stroke-opacity:0.80710659;stroke-dasharray:none;stroke-dashoffset:0"
       d="m 288.3093,600.39581 c -2.1333,-1.33004 -3.8566,-2.9566 -5.2102,-4.9179 -1.879,-2.72248 -2.0226,-3.24185 -2.0226,-7.31475 0,-4.16336 0.1072,-4.52747 2.1291,-7.22951 4.2154,-5.63348 13.2276,-10.45893 22.8456,-12.23238 2.6936,-0.49669 4.4372,-1.03854 4.3333,-1.3467 -0.3035,-0.89995 -8.3899,-7.54853 -12.551,-10.31937 -5.7132,-3.80431 -12.5408,-7.50191 -26.5843,-14.39725 -19.1264,-9.39101 -24.5637,-12.88826 -31.3756,-20.18085 -6.4165,-6.8694 -12.9103,-18.15399 -14.4038,-25.03024 -2.4026,-11.06198 9.1418,-17.60578 25.7721,-14.60854 9.3568,1.68632 26.5533,7.05523 33.8269,10.56103 1.858,0.89551 7.6622,3.36397 12.8983,5.48546 13.5322,5.48276 33.3902,15.21807 48.4194,23.7375 3.1526,1.78708 5.8672,3.15285 6.0325,3.03504 0.1653,-0.1178 -2.4968,-3.5324 -5.9158,-7.588 -3.419,-4.05558 -10.2436,-13.17591 -15.1658,-20.26737 -10.2583,-14.77953 -13.6037,-18.81358 -20.1637,-24.31475 -5.627,-4.71868 -7.6796,-7.37763 -7.6764,-9.94413 0,-4.67351 6.6605,-7.35344 13.329,-5.36765 8.2363,2.45264 16.6012,11.32894 33.8184,35.88581 3.3761,4.81519 8.2155,12.10366 10.7543,16.19655 2.5388,4.09293 5.1104,8.22962 5.7146,9.19265 l 1.0985,1.75098 0.3479,-2.4076 c 0.1914,-1.32418 0.103,-9.79452 -0.1964,-18.82302 -0.6489,-19.5672 -0.6185,-22.47344 0.2773,-26.48359 1.4006,-6.27023 3.1334,-9.54875 6.3243,-11.96589 2.6044,-1.97287 4.738,-2.7004 7.8854,-2.68894 7.454,0.0271 12.7353,4.43959 15.0025,12.53428 1.0904,3.89308 1.1517,7.4803 0.5523,32.32496 -0.2779,11.51857 -0.2096,16.92966 0.2099,16.63431 0.3419,-0.24075 2.3269,-3.29402 4.411,-6.78504 7.3484,-12.30939 22.5073,-33.72854 30.45,-43.02531 4.0246,-4.71061 9.1818,-9.37387 12.3359,-11.15424 3.5017,-1.97662 8.2667,-2.9806 11.1231,-2.34363 4.3384,0.96743 6.2533,2.78622 6.2533,5.93961 0,2.80027 -1.7062,5.06728 -7.4306,9.87329 -6.7897,5.70024 -9.5683,9.04852 -20.5248,24.73258 -5.2139,7.46357 -12.074,16.62337 -15.2446,20.35515 -3.1707,3.73177 -5.5532,6.84451 -5.2944,6.9172 0.2587,0.0727 3.7244,-1.66571 7.7014,-3.86309 15.641,-8.64187 33.803,-17.57532 44.4782,-21.87776 3.2092,-1.29343 8.8753,-3.66929 12.5912,-5.27971 8.5045,-3.68561 15.8642,-6.3106 24.8754,-8.87223 9.9703,-2.83429 13.8822,-3.47016 20.2025,-3.2839 8.6079,0.25368 13.2908,2.49056 16.0377,7.66075 1.1328,2.13224 1.2987,3.10686 1.0068,5.91467 -0.7027,6.75827 -8.4641,20.55413 -15.6002,27.72911 -6.79,6.82697 -11.8469,10.00181 -30.3819,19.07462 -19.8326,9.70796 -26.8928,13.93222 -35.3411,21.14535 l -4.5657,3.89809 5.1025,1.04987 c 6.932,1.42633 11.7317,3.33142 16.5657,6.57538 9.1383,6.13248 11.2813,13.65992 5.9311,20.833 -1.0453,1.40145 -3.1343,3.32205 -4.6422,4.26803 l -2.7416,1.71992 -49.9714,0 c -32.9047,0 -49.9713,0.1495 -49.9713,0.43774 0,0.28759 -14.4885,0.43776 -42.2372,0.43776 l -42.2372,0 -3.1876,-1.98735 0,0 z m 42.5307,-53.63987 5.515,-3.9733 -3.6852,-2.43569 c -5.1114,-3.37831 -20.3479,-12.04381 -27.6797,-15.74239 -8.5558,-4.31608 -24.2177,-11.28894 -35.465,-15.78941 -3.3908,-1.35679 -5.645,-1.27211 -7.8433,0.29463 -2.0472,1.45899 -2.262,2.80169 -0.7173,4.48363 1.6646,1.81261 12.838,8.44171 33.6245,19.94922 10.4722,5.79748 21.5279,12.03182 24.5683,13.85409 3.0403,1.82227 5.6718,3.31756 5.8477,3.32287 0.176,0.006 2.8017,-1.77833 5.835,-3.96365 l 0,0 z m 127.1278,-5.89171 c 4.3916,-2.49021 13.8766,-7.7811 21.0779,-11.75754 15.6311,-8.63133 26.1517,-14.99269 27.0771,-16.37245 1.0934,-1.63009 0.7813,-3.11669 -0.9069,-4.31985 -2.3231,-1.65568 -6.2037,-1.30002 -11.0481,1.01255 -2.0058,0.95759 -6.6874,2.99349 -10.4033,4.52423 -11.7644,4.8462 -25.48,11.61901 -37.8451,18.68794 -7.9343,4.53598 -15.1865,9.06531 -15.238,9.51687 -0.025,0.22029 2.5109,2.1142 5.6357,4.20871 l 5.6814,3.80814 3.9923,-2.39047 c 2.1958,-1.31476 7.5855,-4.42792 11.977,-6.91813 l 0,0 z"
       id="path3246"
       inkscape:connector-curvature="0" />
    <path
       sodipodi:type="arc"
       style="opacity:0.71193417;color:#000000;fill:url(#radialGradient3266);fill-opacity:1;fill-rule:nonzero;stroke:#d78b31;stroke-width:4.59915972;stroke-linecap:square;stroke-linejoin:round;stroke-miterlimit:4;stroke-opacity:0.80710659;stroke-dasharray:none;stroke-dashoffset:0;marker:none;visibility:visible;display:inline;overflow:visible;enable-background:accumulate"
       id="path3256"
       sodipodi:cx="-1331.4286"
       sodipodi:cy="700.93359"
       sodipodi:rx="105.71429"
       sodipodi:ry="97.14286"
       d="m -1327.6759,603.85196 a 105.71429,97.14286 0 1 1 -2.9376,-0.0583 l -0.8151,97.13997 z"
       sodipodi:start="4.7478949"
       sodipodi:end="11.003285"
       transform="matrix(0.20916218,0,0,0.12166758,659.6574,358.32897)" />
    <path
       transform="matrix(0.16855792,0.03162899,-0.03139174,0.08497539,708.0603,430.75584)"
       sodipodi:end="11.003285"
       sodipodi:start="4.7478949"
       d="m -1327.6759,603.85196 a 105.71429,97.14286 0 1 1 -2.9376,-0.0583 l -0.8151,97.13997 z"
       sodipodi:ry="97.14286"
       sodipodi:rx="105.71429"
       sodipodi:cy="700.93359"
       sodipodi:cx="-1331.4286"
       id="path3268"
       style="opacity:0.71193417;color:#000000;fill:url(#radialGradient3270);fill-opacity:1;fill-rule:nonzero;stroke:#d78b31;stroke-width:5.92833138;stroke-linecap:square;stroke-linejoin:round;stroke-miterlimit:4;stroke-opacity:0.80710659;stroke-dasharray:none;stroke-dashoffset:0;marker:none;visibility:visible;display:inline;overflow:visible;enable-background:accumulate"
       sodipodi:type="arc"
       inkscape:transform-center-x="18.160536" />
    <path
       sodipodi:type="arc"
       style="opacity:0.71193417;color:#000000;fill:url(#radialGradient3274);fill-opacity:1;fill-rule:nonzero;stroke:#d78b31;stroke-width:6.03713989;stroke-linecap:square;stroke-linejoin:round;stroke-miterlimit:4;stroke-opacity:0.80710659;stroke-dasharray:none;stroke-dashoffset:0;marker:none;visibility:visible;display:inline;overflow:visible;enable-background:accumulate"
       id="path3272"
       sodipodi:cx="-1331.4286"
       sodipodi:cy="700.93359"
       sodipodi:rx="105.71429"
       sodipodi:ry="97.14286"
       d="m -1327.6759,603.85196 a 105.71429,97.14286 0 1 1 -2.9376,-0.0583 l -0.8151,97.13997 z"
       sodipodi:start="4.7478949"
       sodipodi:end="11.003285"
       transform="matrix(0.13577527,0.06988237,-0.07293951,0.07123435,771.6254,517.51826)"
       inkscape:transform-center-x="17.991563"
       inkscape:transform-center-y="-11.874362" />
    <path
       inkscape:transform-center-y="-11.87436"
       inkscape:transform-center-x="-17.991565"
       transform="matrix(-0.13577527,0.06988237,0.07293951,0.07123435,-9.1066,521.45797)"
       sodipodi:end="11.003285"
       sodipodi:start="4.7478949"
       d="m -1327.6759,603.85196 a 105.71429,97.14286 0 1 1 -2.9376,-0.0583 l -0.8151,97.13997 z"
       sodipodi:ry="97.14286"
       sodipodi:rx="105.71429"
       sodipodi:cy="700.93359"
       sodipodi:cx="-1331.4286"
       id="path3288"
       style="opacity:0.71193417;color:#000000;fill:url(#radialGradient3290);fill-opacity:1;fill-rule:nonzero;stroke:#d78b31;stroke-width:6.03713989;stroke-linecap:square;stroke-linejoin:round;stroke-miterlimit:4;stroke-opacity:0.80710659;stroke-dasharray:none;stroke-dashoffset:0;marker:none;visibility:visible;display:inline;overflow:visible;enable-background:accumulate"
       sodipodi:type="arc" />
    <path
       inkscape:transform-center-x="-18.160548"
       sodipodi:type="arc"
       style="opacity:0.71193417;color:#000000;fill:url(#radialGradient3294);fill-opacity:1;fill-rule:nonzero;stroke:#d78b31;stroke-width:5.92833138;stroke-linecap:square;stroke-linejoin:round;stroke-miterlimit:4;stroke-opacity:0.80710659;stroke-dasharray:none;stroke-dashoffset:0;marker:none;visibility:visible;display:inline;overflow:visible;enable-background:accumulate"
       id="path3292"
       sodipodi:cx="-1331.4286"
       sodipodi:cy="700.93359"
       sodipodi:rx="105.71429"
       sodipodi:ry="97.14286"
       d="m -1327.6759,603.85196 a 105.71429,97.14286 0 1 1 -2.9376,-0.0583 l -0.8151,97.13997 z"
       sodipodi:start="4.7478949"
       sodipodi:end="11.003285"
       transform="matrix(-0.16855792,0.03162899,0.03139174,0.08497539,55.0226,432.98833)" />
    <flowRoot
       xml:space="preserve"
       id="flowRoot3326"
       style="font-size:40px;font-style:normal;font-weight:normal;line-height:125%;letter-spacing:0px;word-spacing:0px;fill:#000000;fill-opacity:1;stroke:none;font-family:Sans"
       transform="translate(8,0)"><flowRegion
         id="flowRegion3328"><rect
           id="rect3330"
           width="1105.7142"
           height="525.71429"
           x="-1088.5714"
           y="572.36218" /></flowRegion><flowPara
         id="flowPara3332" /></flowRoot>    <path
       sodipodi:type="arc"
       style="opacity:0.71193417;color:#000000;fill:#280b0b;fill-opacity:1;fill-rule:nonzero;stroke:#d78b31;stroke-width:4.06400585;stroke-linecap:square;stroke-linejoin:round;stroke-miterlimit:4;stroke-opacity:0.80710659;stroke-dasharray:none;stroke-dashoffset:0;marker:none;visibility:visible;display:inline;overflow:visible;enable-background:accumulate"
       id="path3334"
       sodipodi:cx="-844.28571"
       sodipodi:cy="842.36218"
       sodipodi:rx="98.571426"
       sodipodi:ry="90"
       d="m -840.78657,752.41891 a 98.571426,90 0 1 1 -2.73909,-0.054 l -0.76005,89.99732 z"
       sodipodi:start="4.7478949"
       sodipodi:end="11.003285"
       transform="matrix(0.2080666,0,0,0.15664045,554.3275,441.21908)" />
    <path
       sodipodi:type="arc"
       style="opacity:0.71193417;color:#000000;fill:#280b0b;fill-opacity:1;fill-rule:nonzero;stroke:#d78b31;stroke-width:5.10024309;stroke-linecap:square;stroke-linejoin:round;stroke-miterlimit:4;stroke-opacity:0.80710659;stroke-dasharray:none;stroke-dashoffset:0;marker:none;visibility:visible;display:inline;overflow:visible;enable-background:accumulate"
       id="path3338"
       sodipodi:cx="-844.28571"
       sodipodi:cy="842.36218"
       sodipodi:rx="98.571426"
       sodipodi:ry="90"
       d="m -840.78657,752.41891 a 98.571426,90 0 1 1 -2.73909,-0.054 l -0.76005,89.99732 z"
       sodipodi:start="4.7478949"
       sodipodi:end="11.003285"
       transform="matrix(0.18494915,0,0,0.11188733,486.9561,488.98696)" />
    <path
       transform="matrix(0.18494915,0,0,0.11188733,580.3847,482.94525)"
       sodipodi:end="11.003285"
       sodipodi:start="4.7478949"
       d="m -840.78657,752.41891 a 98.571426,90 0 1 1 -2.73909,-0.054 l -0.76005,89.99732 z"
       sodipodi:ry="90"
       sodipodi:rx="98.571426"
       sodipodi:cy="842.36218"
       sodipodi:cx="-844.28571"
       id="path3340"
       style="opacity:0.71193417;color:#000000;fill:#280b0b;fill-opacity:1;fill-rule:nonzero;stroke:#d78b31;stroke-width:5.10024309;stroke-linecap:square;stroke-linejoin:round;stroke-miterlimit:4;stroke-opacity:0.80710659;stroke-dasharray:none;stroke-dashoffset:0;marker:none;visibility:visible;display:inline;overflow:visible;enable-background:accumulate"
       sodipodi:type="arc" />
    <path
       inkscape:connector-curvature="0"
       id="path3348"
       d="m 871.609,806.38582 c 3.0805,-15.65918 11.5475,-32.36973 22.5824,-44.56863 6.5355,-7.22497 19.9461,-16.83453 29.505,-21.14225 29.2824,-13.19616 58.515,-13.36544 91.0725,-0.5274 14.4797,5.70962 21.3552,9.37168 55.9134,29.78064 33.8971,20.01848 45.9697,26.0864 62.2308,31.2784 12.7511,4.07127 34.7669,6.83618 45.8553,5.75871 34.75,-3.37663 58.9166,-25.38314 60.1866,-54.80685 0.3397,-7.87121 -0.1,-10.65407 -2.6789,-16.95136 -7.1446,-17.44674 -25.1613,-27.18408 -42.9166,-23.19476 -23.1669,5.20522 -33.2696,36.19815 -14.9723,45.9319 13.916,7.40303 32.9055,-2.32834 37.2315,-19.07963 l 1.2912,-4.99979 2.6921,5.33381 c 7.2714,14.40675 2.9427,30.53279 -10.8213,40.3127 -26.2361,18.64204 -64.4094,-0.41524 -68.9047,-34.39939 -2.3365,-17.66398 7.733,-39.06734 24.4257,-51.91833 28.7704,-22.149 66.8577,-18.12188 91.4214,9.66633 6.3128,7.14152 8.9242,11.24471 12.0076,18.867 5.6866,14.05733 6.7833,21.81748 5.2578,37.20038 -1.5636,15.76545 -5.0568,25.43402 -14.1046,39.03949 -22.985,34.56324 -65.403,49.74044 -109.0714,39.02576 -21.7859,-5.34552 -37.9566,-13.06788 -78.268,-37.37743 -29.4349,-17.75055 -45.2584,-25.99882 -61.6618,-32.14235 -9.6395,-3.61033 -13.06,-4.31759 -31.1594,-6.44306 -18.8846,-2.21768 -21.0782,-2.26313 -30.8305,-0.63876 -31.5317,5.25197 -56.1935,20.8559 -72.8976,46.12371 l -4.8569,7.34685 1.4707,-7.47569 z"
       style="opacity:0.71193417;fill:url(#radialGradient3356);fill-opacity:1;stroke:#d78b31;stroke-width:0.73400003;stroke-linecap:square;stroke-linejoin:round;stroke-miterlimit:4;stroke-opacity:0.80710659;stroke-dasharray:none;stroke-dashoffset:0" />
    <path
       style="opacity:0.71193417;fill:url(#radialGradient3360);fill-opacity:1;stroke:#d78b31;stroke-width:0.73400003;stroke-linecap:square;stroke-linejoin:round;stroke-miterlimit:4;stroke-opacity:0.80710659;stroke-dasharray:none;stroke-dashoffset:0"
       d="m -39.287,812.1001 c -3.0805,-15.65918 -11.5475,-32.36973 -22.5824,-44.56863 -6.5355,-7.22497 -19.9461,-16.83453 -29.505,-21.14225 -29.2824,-13.19616 -58.515,-13.36544 -91.0725,-0.5274 -14.4797,5.70962 -21.3552,9.37168 -55.9134,29.78064 -33.8971,20.01848 -45.9697,26.0864 -62.2308,31.2784 -12.7511,4.07127 -34.7669,6.83618 -45.8553,5.75871 -34.75,-3.37663 -58.9166,-25.38314 -60.1866,-54.80685 -0.3397,-7.87121 0.1,-10.65407 2.6789,-16.95136 7.1446,-17.44674 25.1613,-27.18408 42.9166,-23.19476 23.1669,5.20522 33.2696,36.19815 14.9723,45.9319 -13.916,7.40303 -32.9055,-2.32834 -37.2315,-19.07963 l -1.2912,-4.99979 -2.6921,5.33381 c -7.2714,14.40675 -2.9427,30.53279 10.8213,40.3127 26.2361,18.64204 64.4094,-0.41524 68.9047,-34.39939 2.3365,-17.66398 -7.733,-39.06734 -24.4257,-51.91833 -28.7704,-22.149 -66.8577,-18.12188 -91.4214,9.66633 -6.3128,7.14152 -8.9242,11.24471 -12.0076,18.867 -5.6866,14.05733 -6.7833,21.81748 -5.2578,37.20038 1.5636,15.76545 5.0568,25.43402 14.1046,39.03949 22.985,34.56324 65.403,49.74044 109.0714,39.02576 21.7859,-5.34552 37.9566,-13.06788 78.268,-37.37743 29.4349,-17.75055 45.2584,-25.99882 61.6618,-32.14235 9.6395,-3.61033 13.06,-4.31759 31.1594,-6.44306 18.8846,-2.21768 21.0782,-2.26313 30.8305,-0.63876 31.5317,5.25197 56.1935,20.8559 72.8976,46.12371 l 4.8569,7.34685 -1.4707,-7.47569 z"
       id="path3358"
       inkscape:connector-curvature="0" />
    <path
       style="opacity:0.71193417;fill:url(#radialGradient3364);fill-opacity:1;stroke:#d78b31;stroke-width:0.73400003;stroke-linecap:square;stroke-linejoin:round;stroke-miterlimit:4;stroke-opacity:0.80710659;stroke-dasharray:none;stroke-dashoffset:0"
       d="m 893.526,778.326 c -3.2101,-12.21253 -2.7498,-26.98287 1.2276,-39.39391 2.3555,-7.35059 9.0281,-18.7102 14.6805,-24.99257 17.3151,-19.24521 39.1858,-29.17389 68.137,-30.93226 12.8757,-0.78201 19.3249,-0.47449 52.4462,2.50074 32.4877,2.91825 43.684,3.19963 57.7137,1.4504 11.0014,-1.37166 28.4925,-6.78433 36.4312,-11.27381 24.8791,-14.06953 35.2501,-37.88801 25.8288,-59.31953 -2.5205,-5.73318 -3.8315,-7.57233 -7.9865,-11.20268 -11.511,-10.05805 -28.4605,-10.9647 -40.374,-2.15965 -15.5447,11.48871 -12.1964,37.00394 4.9622,37.81389 13.05,0.61601 23.8649,-12.70233 21.2042,-26.1124 l -0.7941,-4.00253 3.9001,2.90456 c 10.5345,7.84526 12.9728,20.80987 6.095,32.40966 -13.1096,22.11092 -48.4665,21.31358 -63.8208,-1.43931 -7.9807,-11.8263 -7.9728,-30.48446 0.019,-45.25928 13.7745,-25.46481 43.7676,-35.36855 71.9928,-23.77206 7.2537,2.98028 10.6596,5.03337 15.6601,9.44038 9.2224,8.12753 12.7811,13.29951 17.0604,24.79309 4.3854,11.77948 5.1737,19.85382 3.1829,32.60232 -5.0573,32.38621 -31.5283,57.45279 -68.0662,64.45484 -18.2286,3.49325 -33.0825,3.40573 -71.8952,-0.42384 -28.3406,-2.7963 -43.1196,-3.37575 -57.5915,-2.25808 -8.5045,0.65675 -11.32,1.29945 -25.6476,5.85463 -14.9492,4.75278 -16.6108,5.45631 -23.3544,9.88794 -21.8034,14.32856 -34.8032,33.74241 -38.4259,57.38534 l -1.0533,6.87441 -1.5324,-5.83029 z"
       id="path3362"
       inkscape:connector-curvature="0" />
    <path
       inkscape:connector-curvature="0"
       id="path3366"
       d="m -42.8488,789.75457 c 3.2101,-12.21253 2.7498,-26.98287 -1.2276,-39.39391 -2.3555,-7.35059 -9.0281,-18.7102 -14.6805,-24.99257 -17.3151,-19.24521 -39.1858,-29.17389 -68.137,-30.93226 -12.8757,-0.78201 -19.3249,-0.47449 -52.4462,2.50074 -32.4877,2.91825 -43.684,3.19963 -57.7137,1.4504 -11.0014,-1.37166 -28.4925,-6.78433 -36.4312,-11.27381 -24.8791,-14.06953 -35.2501,-37.88801 -25.8288,-59.31953 2.5205,-5.73318 3.8315,-7.57233 7.9865,-11.20268 11.511,-10.05805 28.4605,-10.9647 40.374,-2.15965 15.5447,11.48871 12.1964,37.00394 -4.9622,37.81389 -13.05,0.61601 -23.8649,-12.70233 -21.2042,-26.1124 l 0.7941,-4.00253 -3.9001,2.90456 c -10.5345,7.84526 -12.9728,20.80987 -6.095,32.40966 13.1096,22.11092 48.4665,21.31358 63.8208,-1.43931 7.9807,-11.8263 7.9728,-30.48446 -0.019,-45.25928 -13.7745,-25.46481 -43.7676,-35.36855 -71.9928,-23.77206 -7.2537,2.98028 -10.6596,5.03337 -15.6601,9.44038 -9.2224,8.12753 -12.7811,13.29951 -17.0604,24.79309 -4.3854,11.77948 -5.1737,19.85382 -3.1829,32.60232 5.0573,32.38621 31.5283,57.45279 68.0662,64.45484 18.2286,3.49325 33.0825,3.40573 71.8952,-0.42384 28.3406,-2.7963 43.1196,-3.37575 57.5915,-2.25808 8.5045,0.65675 11.32,1.29945 25.6476,5.85463 14.9492,4.75278 16.6108,5.45631 23.3544,9.88794 21.8034,14.32856 34.8032,33.74241 38.4259,57.38534 l 1.0533,6.87441 1.5324,-5.83029 z"
       style="opacity:0.71193417;fill:url(#radialGradient3368);fill-opacity:1;stroke:#d78b31;stroke-width:0.73400003;stroke-linecap:square;stroke-linejoin:round;stroke-miterlimit:4;stroke-opacity:0.80710659;stroke-dasharray:none;stroke-dashoffset:0" />
    <flowRoot
       xml:space="preserve"
       id="flowRoot3100"
       style="font-size:40px;font-style:normal;font-weight:normal;line-height:125%;letter-spacing:0px;word-spacing:0px;fill:#ff6600;fill-opacity:1;stroke:none;font-family:Sans"
       transform="matrix(2.8709624,0,0,4.8228151,-1668.8323,-4931.0392)"><flowRegion
         id="flowRegion3102"><rect
           id="rect3104"
           width="722.85712"
           height="242.85715"
           x="571.42859"
           y="1135.2194"
           style="fill:#ff6600" /></flowRegion><flowPara
         id="flowPara3106"
         style="font-style:normal;font-variant:normal;font-weight:normal;font-stretch:normal;font-family:Courier 10 Pitch;-inkscape-font-specification:Courier 10 Pitch">GLAMOUR TOUCH</flowPara></flowRoot>    <flowRoot
       transform="matrix(2.8709624,0,0,-4.8228151,-1666.3284,6367.5385)"
       style="font-size:40px;font-style:normal;font-weight:normal;line-height:125%;letter-spacing:0px;word-spacing:0px;fill:url(#radialGradient3122);fill-opacity:1;stroke:none;font-family:Sans"
       id="flowRoot3108"
       xml:space="preserve"><flowRegion
         id="flowRegion3110"
         style="fill:url(#radialGradient3126)"><rect
           style="fill:url(#radialGradient3124)"
           y="1135.2194"
           x="571.42859"
           height="242.85715"
           width="722.85712"
           id="rect3112" /></flowRegion><flowPara
         style="font-style:normal;font-variant:normal;font-weight:normal;font-stretch:normal;fill:url(#radialGradient3128);font-family:Courier 10 Pitch;-inkscape-font-specification:Courier 10 Pitch"
         id="flowPara3114">GLAMOUR TOUCH</flowPara></flowRoot>  </g>
</svg>
